Pretension2-BlackItalic.ufo
<glyph name="exclam" format="2">
  <advance width="776"/>
  <unicode hex="0021"/>
  <outline>
    <contour>
      <point x="191" y="466" type="line"/>
      <point x="330" y="1490" type="line"/>
      <point x="754" y="1490" type="line"/>
      <point x="555" y="466" type="line"/>
    </contour>
    <contour>
      <point x="312" y="-24" type="qcurve" smooth="yes"/>
      <point x="207" y="-24"/>
      <point x="98" y="99"/>
      <point x="115" y="201" type="qcurve" smooth="yes"/>
      <point x="129" y="284"/>
      <point x="247" y="374"/>
      <point x="337" y="374" type="qcurve" smooth="yes"/>
      <point x="442" y="374"/>
      <point x="551" y="251"/>
      <point x="534" y="149" type="qcurve" smooth="yes"/>
      <point x="521" y="67"/>
      <point x="402" y="-24"/>
    </contour>
  </outline>
</glyph>
<glyph name="dollar" format="2">
  <advance width="1364"/>
  <unicode hex="0024"/>
  <anchor x="668" y="0" name="m.uni0326"/>
  <anchor x="914" y="1490" name="m.uni030F_1"/>
  <anchor x="661" y="0" name="m.uni0327_3"/>
  <outline>
    <contour>
      <point x="516" y="-186" type="line"/>
      <point x="824" y="1676" type="line"/>
      <point x="944" y="1676" type="line"/>
      <point x="636" y="-186" type="line"/>
    </contour>
    <contour>
      <point x="630" y="-18" type="curve" smooth="yes"/>
      <point x="501" y="-18"/>
      <point x="389" y="1"/>
      <point x="295" y="40" type="curve" smooth="yes"/>
      <point x="107" y="116"/>
      <point x="12" y="275"/>
      <point x="52" y="524" type="curve"/>
      <point x="436" y="524" type="line"/>
      <point x="431" y="479"/>
      <point x="436" y="440"/>
      <point x="451" y="409" type="curve" smooth="yes"/>
      <point x="482" y="346"/>
      <point x="551" y="314"/>
      <point x="655" y="314" type="curve" smooth="yes"/>
      <point x="698" y="314"/>
      <point x="736" y="319"/>
      <point x="767" y="330" type="curve" smooth="yes"/>
      <point x="829" y="351"/>
      <point x="866" y="391"/>
      <point x="874" y="440" type="curve" smooth="yes"/>
      <point x="878" y="463"/>
      <point x="874" y="483"/>
      <point x="863" y="500" type="curve"/>
      <point x="839" y="534"/>
      <point x="781" y="561"/>
      <point x="674" y="584" type="curve" smooth="yes"/>
      <point x="529" y="616" type="line" smooth="yes"/>
      <point x="402" y="644"/>
      <point x="307" y="692"/>
      <point x="243" y="760" type="curve" smooth="yes"/>
      <point x="178" y="827"/>
      <point x="156" y="919"/>
      <point x="175" y="1036" type="curve" smooth="yes"/>
      <point x="190" y="1131"/>
      <point x="228" y="1214"/>
      <point x="287" y="1285" type="curve" smooth="yes"/>
      <point x="405" y="1427"/>
      <point x="595" y="1510"/>
      <point x="831" y="1510" type="curve" smooth="yes"/>
      <point x="952" y="1510"/>
      <point x="1055" y="1490"/>
      <point x="1140" y="1450" type="curve" smooth="yes"/>
      <point x="1310" y="1369"/>
      <point x="1394" y="1219"/>
      <point x="1363" y="1024" type="curve"/>
      <point x="975" y="1024" type="line"/>
      <point x="980" y="1073"/>
      <point x="968" y="1111"/>
      <point x="940" y="1138" type="curve" smooth="yes"/>
      <point x="912" y="1165"/>
      <point x="865" y="1178"/>
      <point x="800" y="1178" type="curve" smooth="yes"/>
      <point x="759" y="1178"/>
      <point x="724" y="1173"/>
      <point x="696" y="1164" type="curve"/>
      <point x="639" y="1144"/>
      <point x="609" y="1108"/>
      <point x="601" y="1064" type="curve" smooth="yes"/>
      <point x="597" y="1041"/>
      <point x="601" y="1020"/>
      <point x="612" y="1003" type="curve" smooth="yes"/>
      <point x="623" y="985"/>
      <point x="642" y="970"/>
      <point x="669" y="957" type="curve" smooth="yes"/>
      <point x="696" y="944"/>
      <point x="733" y="932"/>
      <point x="778" y="922" type="curve" smooth="yes"/>
      <point x="895" y="896" type="line" smooth="yes"/>
      <point x="1054" y="860"/>
      <point x="1162" y="803"/>
      <point x="1224" y="726" type="curve" smooth="yes"/>
      <point x="1286" y="649"/>
      <point x="1305" y="553"/>
      <point x="1286" y="440" type="curve" smooth="yes"/>
      <point x="1270" y="342"/>
      <point x="1234" y="259"/>
      <point x="1179" y="191" type="curve" smooth="yes"/>
      <point x="1067" y="54"/>
      <point x="882" y="-18"/>
    </contour>
  </outline>
</glyph>
<glyph name="percent" format="2">
  <advance width="1964"/>
  <unicode hex="0025"/>
  <outline>
    <contour>
      <point x="219" y="1084" type="curve" smooth="yes"/>
      <point x="232" y="1162" type="line" smooth="yes"/>
      <point x="243" y="1226"/>
      <point x="266" y="1285"/>
      <point x="303" y="1338" type="curve" smooth="yes"/>
      <point x="376" y="1445"/>
      <point x="495" y="1514"/>
      <point x="643" y="1514" type="curve" smooth="yes"/>
      <point x="720" y="1514"/>
      <point x="783" y="1498"/>
      <point x="830" y="1466" type="curve" smooth="yes"/>
      <point x="924" y="1402"/>
      <point x="959" y="1290"/>
      <point x="938" y="1162" type="curve" smooth="yes"/>
      <point x="925" y="1084" type="line" smooth="yes"/>
      <point x="915" y="1020"/>
      <point x="892" y="962"/>
      <point x="856" y="909" type="curve" smooth="yes"/>
      <point x="784" y="803"/>
      <point x="666" y="734"/>
      <point x="514" y="734" type="curve" smooth="yes"/>
      <point x="438" y="734"/>
      <point x="376" y="750"/>
      <point x="329" y="782" type="curve" smooth="yes"/>
      <point x="234" y="846"/>
      <point x="199" y="959"/>
    </contour>
    <contour>
      <point x="488" y="1162" type="curve" smooth="yes"/>
      <point x="475" y="1084" type="line" smooth="yes"/>
      <point x="470" y="1055"/>
      <point x="473" y="1027"/>
      <point x="482" y="1001" type="curve" smooth="yes"/>
      <point x="491" y="975"/>
      <point x="514" y="962"/>
      <point x="551" y="962" type="curve" smooth="yes"/>
      <point x="591" y="962"/>
      <point x="620" y="975"/>
      <point x="637" y="1001" type="curve" smooth="yes"/>
      <point x="654" y="1027"/>
      <point x="664" y="1055"/>
      <point x="669" y="1084" type="curve" smooth="yes"/>
      <point x="682" y="1162" type="line" smooth="yes"/>
      <point x="687" y="1191"/>
      <point x="686" y="1220"/>
      <point x="679" y="1247" type="curve" smooth="yes"/>
      <point x="671" y="1274"/>
      <point x="646" y="1288"/>
      <point x="605" y="1288" type="curve" smooth="yes"/>
      <point x="566" y="1288"/>
      <point x="538" y="1274"/>
      <point x="521" y="1246" type="curve" smooth="yes"/>
      <point x="504" y="1217"/>
      <point x="493" y="1189"/>
    </contour>
    <contour>
      <point x="1088" y="326" type="curve" smooth="yes"/>
      <point x="1101" y="404" type="line" smooth="yes"/>
      <point x="1112" y="468"/>
      <point x="1135" y="527"/>
      <point x="1172" y="580" type="curve" smooth="yes"/>
      <point x="1245" y="687"/>
      <point x="1364" y="756"/>
      <point x="1512" y="756" type="curve" smooth="yes"/>
      <point x="1589" y="756"/>
      <point x="1652" y="740"/>
      <point x="1699" y="708" type="curve" smooth="yes"/>
      <point x="1793" y="644"/>
      <point x="1828" y="532"/>
      <point x="1807" y="404" type="curve" smooth="yes"/>
      <point x="1794" y="326" type="line" smooth="yes"/>
      <point x="1784" y="262"/>
      <point x="1761" y="204"/>
      <point x="1725" y="151" type="curve" smooth="yes"/>
      <point x="1653" y="45"/>
      <point x="1535" y="-24"/>
      <point x="1383" y="-24" type="curve" smooth="yes"/>
      <point x="1307" y="-24"/>
      <point x="1245" y="-8"/>
      <point x="1198" y="24" type="curve" smooth="yes"/>
      <point x="1103" y="88"/>
      <point x="1068" y="201"/>
    </contour>
    <contour>
      <point x="1357" y="404" type="curve" smooth="yes"/>
      <point x="1344" y="326" type="line" smooth="yes"/>
      <point x="1339" y="297"/>
      <point x="1342" y="269"/>
      <point x="1351" y="243" type="curve" smooth="yes"/>
      <point x="1360" y="217"/>
      <point x="1383" y="204"/>
      <point x="1420" y="204" type="curve" smooth="yes"/>
      <point x="1460" y="204"/>
      <point x="1489" y="217"/>
      <point x="1506" y="243" type="curve" smooth="yes"/>
      <point x="1523" y="269"/>
      <point x="1533" y="297"/>
      <point x="1538" y="326" type="curve" smooth="yes"/>
      <point x="1551" y="404" type="line" smooth="yes"/>
      <point x="1556" y="433"/>
      <point x="1555" y="462"/>
      <point x="1548" y="489" type="curve" smooth="yes"/>
      <point x="1540" y="516"/>
      <point x="1515" y="530"/>
      <point x="1474" y="530" type="curve" smooth="yes"/>
      <point x="1435" y="530"/>
      <point x="1407" y="516"/>
      <point x="1390" y="488" type="curve" smooth="yes"/>
      <point x="1373" y="459"/>
      <point x="1362" y="431"/>
    </contour>
    <contour>
      <point x="257" y="0" type="line"/>
      <point x="1528" y="1490" type="line"/>
      <point x="1768" y="1490" type="line"/>
      <point x="497" y="0" type="line"/>
    </contour>
  </outline>
</glyph>
<glyph name="ampersand" format="2">
  <advance width="1422"/>
  <unicode hex="0026"/>
  <outline>
    <contour>
      <point x="480" y="-24" type="qcurve"/>
      <point x="321" y="-23"/>
      <point x="109" y="91"/>
      <point x="16" y="281"/>
      <point x="34" y="396" type="qcurve" smooth="yes"/>
      <point x="48" y="480"/>
      <point x="133" y="608"/>
      <point x="267" y="716"/>
      <point x="352" y="768" type="qcurve"/>
      <point x="724" y="978" type="line" smooth="yes"/>
      <point x="780" y="1010"/>
      <point x="827" y="1080"/>
      <point x="832" y="1106" type="qcurve" smooth="yes"/>
      <point x="839" y="1141"/>
      <point x="796" y="1196"/>
      <point x="738" y="1196" type="qcurve" smooth="yes"/>
      <point x="706" y="1196"/>
      <point x="651" y="1172"/>
      <point x="615" y="1127"/>
      <point x="610" y="1094" type="qcurve"/>
      <point x="605" y="1051"/>
      <point x="641" y="961"/>
      <point x="709" y="858"/>
      <point x="750" y="794" type="qcurve"/>
      <point x="1340" y="0" type="line"/>
      <point x="940" y="0" type="line"/>
      <point x="442" y="640" type="line" smooth="yes"/>
      <point x="405" y="688"/>
      <point x="320" y="825"/>
      <point x="271" y="998"/>
      <point x="288" y="1100" type="qcurve" smooth="yes"/>
      <point x="307" y="1214"/>
      <point x="447" y="1401"/>
      <point x="661" y="1513"/>
      <point x="792" y="1512" type="qcurve"/>
      <point x="917" y="1513"/>
      <point x="1082" y="1410"/>
      <point x="1152" y="1238"/>
      <point x="1134" y="1134" type="qcurve"/>
      <point x="1118" y="1030"/>
      <point x="986" y="850"/>
      <point x="878" y="782" type="qcurve" smooth="yes"/>
      <point x="532" y="564" type="line" smooth="yes"/>
      <point x="494" y="540"/>
      <point x="431" y="475"/>
      <point x="422" y="424" type="qcurve"/>
      <point x="417" y="382"/>
      <point x="446" y="322"/>
      <point x="513" y="291"/>
      <point x="562" y="290" type="qcurve"/>
      <point x="636" y="290"/>
      <point x="797" y="363"/>
      <point x="941" y="493"/>
      <point x="1045" y="671"/>
      <point x="1062" y="776" type="qcurve"/>
      <point x="1378" y="776" type="line"/>
      <point x="1359" y="647"/>
      <point x="1266" y="407"/>
      <point x="1113" y="208"/>
      <point x="1004" y="140" type="qcurve"/>
      <point x="971" y="124"/>
      <point x="908" y="97"/>
      <point x="876" y="82" type="qcurve"/>
      <point x="778" y="25"/>
      <point x="575" y="-23"/>
    </contour>
  </outline>
</glyph>
<glyph name="parenleft" format="2">
  <advance width="794"/>
  <unicode hex="0028"/>
  <outline>
    <contour>
      <point x="136" y="607" type="qcurve" smooth="yes"/>
      <point x="164" y="775"/>
      <point x="289" y="1135"/>
      <point x="460" y="1463"/>
      <point x="555" y="1581" type="qcurve"/>
      <point x="921" y="1581" type="line"/>
      <point x="828" y="1428"/>
      <point x="677" y="1094"/>
      <point x="572" y="761"/>
      <point x="546" y="607" type="qcurve" smooth="yes"/>
      <point x="525" y="477"/>
      <point x="523" y="219"/>
      <point x="567" y="-83"/>
      <point x="613" y="-279" type="qcurve"/>
      <point x="247" y="-279" type="line"/>
      <point x="154" y="-74"/>
      <point x="98" y="378"/>
    </contour>
  </outline>
</glyph>
<glyph name="parenright" format="2">
  <advance width="778"/>
  <unicode hex="0029"/>
  <outline>
    <contour>
      <point x="-99" y="-294" type="line"/>
      <point x="-37" y="-181"/>
      <point x="17" y="-76"/>
      <point x="64" y="22" type="curve" smooth="yes"/>
      <point x="156" y="216"/>
      <point x="219" y="395"/>
      <point x="251" y="592" type="curve" smooth="yes"/>
      <point x="270" y="705"/>
      <point x="279" y="819"/>
      <point x="280" y="934" type="curve" smooth="yes"/>
      <point x="281" y="1164"/>
      <point x="254" y="1383"/>
      <point x="209" y="1566" type="curve"/>
      <point x="591" y="1566" type="line"/>
      <point x="624" y="1492"/>
      <point x="648" y="1402"/>
      <point x="665" y="1296" type="curve" smooth="yes"/>
      <point x="681" y="1189"/>
      <point x="688" y="1075"/>
      <point x="687" y="954" type="curve" smooth="yes"/>
      <point x="686" y="833"/>
      <point x="675" y="712"/>
      <point x="655" y="592" type="curve" smooth="yes"/>
      <point x="602" y="264"/>
      <point x="472" y="-43"/>
      <point x="283" y="-294" type="curve"/>
    </contour>
  </outline>
</glyph>
<glyph name="comma.ss07" format="2">
  <advance width="765"/>
  <unicode hex="002C"/>
  <unicode hex="E2AB"/>
  <outline>
    <contour>
      <point x="27" y="-354" type="line"/>
      <point x="59" y="-163" type="line"/>
      <point x="112" y="-163" type="line" smooth="yes"/>
      <point x="193" y="-163"/>
      <point x="275" y="-92"/>
      <point x="288" y="-10" type="qcurve" smooth="yes"/>
      <point x="300" y="60" type="line"/>
      <point x="336" y="0" type="line"/>
      <point x="86" y="0" type="line"/>
      <point x="150" y="384" type="line"/>
      <point x="558" y="384" type="line"/>
      <point x="495" y="8" type="line" smooth="yes"/>
      <point x="465" y="-174"/>
      <point x="255" y="-354"/>
      <point x="72" y="-354" type="qcurve" smooth="yes"/>
    </contour>
  </outline>
</glyph>
<glyph name="zero" format="2">
  <advance width="1496"/>
  <unicode hex="0030"/>
  <outline>
    <contour>
      <point x="654" y="-20" type="qcurve" smooth="yes"/>
      <point x="446" y="-20"/>
      <point x="182" y="162"/>
      <point x="82" y="503"/>
      <point x="121" y="744" type="qcurve" smooth="yes"/>
      <point x="161" y="985"/>
      <point x="374" y="1328"/>
      <point x="699" y="1510"/>
      <point x="907" y="1510" type="qcurve" smooth="yes"/>
      <point x="1113" y="1510"/>
      <point x="1377" y="1327"/>
      <point x="1477" y="985"/>
      <point x="1437" y="744" type="qcurve" smooth="yes"/>
      <point x="1398" y="503"/>
      <point x="1185" y="162"/>
      <point x="861" y="-20"/>
    </contour>
    <contour>
      <point x="707" y="308" type="qcurve" smooth="yes"/>
      <point x="784" y="308"/>
      <point x="907" y="408"/>
      <point x="994" y="603"/>
      <point x="1017" y="744" type="qcurve" smooth="yes"/>
      <point x="1052" y="957"/>
      <point x="968" y="1184"/>
      <point x="852" y="1184" type="qcurve" smooth="yes"/>
      <point x="776" y="1184"/>
      <point x="652" y="1082"/>
      <point x="565" y="886"/>
      <point x="541" y="744" type="qcurve" smooth="yes"/>
      <point x="506" y="532"/>
      <point x="591" y="308"/>
    </contour>
  </outline>
</glyph>
<glyph name="one" format="2">
  <advance width="926"/>
  <unicode hex="0031"/>
  <outline>
    <contour>
      <point x="984" y="1490" type="line"/>
      <point x="737" y="0" type="line"/>
      <point x="333" y="0" type="line"/>
      <point x="522" y="1142" type="line"/>
      <point x="512" y="1142" type="line"/>
      <point x="150" y="922" type="line"/>
      <point x="207" y="1266" type="line"/>
      <point x="578" y="1490" type="line"/>
    </contour>
  </outline>
</glyph>
<glyph name="two" format="2">
  <advance width="1325"/>
  <unicode hex="0032"/>
  <anchor x="900" y="1490" name="m.uni030F_1"/>
  <outline>
    <contour>
      <point x="6" y="0" type="line"/>
      <point x="54" y="290" type="line"/>
      <point x="686" y="750" type="line" smooth="yes"/>
      <point x="749" y="796"/>
      <point x="846" y="881"/>
      <point x="908" y="971"/>
      <point x="916" y="1024" type="qcurve" smooth="yes"/>
      <point x="930" y="1109"/>
      <point x="839" y="1198"/>
      <point x="756" y="1198" type="qcurve" smooth="yes"/>
      <point x="700" y="1198"/>
      <point x="604" y="1153"/>
      <point x="539" y="1067"/>
      <point x="528" y="1004" type="qcurve"/>
      <point x="144" y="1004" type="line"/>
      <point x="170" y="1161"/>
      <point x="337" y="1387"/>
      <point x="603" y="1510"/>
      <point x="776" y="1510" type="qcurve" smooth="yes"/>
      <point x="955" y="1510"/>
      <point x="1210" y="1396"/>
      <point x="1331" y="1189"/>
      <point x="1308" y="1050" type="qcurve" smooth="yes"/>
      <point x="1297" y="986"/>
      <point x="1243" y="860"/>
      <point x="1132" y="721"/>
      <point x="943" y="554"/>
      <point x="798" y="448" type="qcurve" smooth="yes"/>
      <point x="639" y="332" type="line"/>
      <point x="637" y="322" type="line"/>
      <point x="1203" y="322" type="line"/>
      <point x="1150" y="0" type="line"/>
    </contour>
  </outline>
</glyph>
<glyph name="three.ss01" format="2">
  <advance width="1383"/>
  <unicode hex="0033"/>
  <unicode hex="E06D"/>
  <anchor x="927" y="1490" name="m.uni030F_1"/>
  <outline>
    <contour>
      <point x="613" y="-20" type="curve" smooth="yes"/>
      <point x="490" y="-20"/>
      <point x="385" y="0"/>
      <point x="297" y="41" type="curve" smooth="yes"/>
      <point x="209" y="82"/>
      <point x="144" y="138"/>
      <point x="102" y="209" type="curve" smooth="yes"/>
      <point x="59" y="280"/>
      <point x="45" y="362"/>
      <point x="59" y="454" type="curve"/>
      <point x="465" y="454" type="line"/>
      <point x="462" y="425"/>
      <point x="467" y="400"/>
      <point x="482" y="378" type="curve"/>
      <point x="510" y="333"/>
      <point x="568" y="306"/>
      <point x="643" y="306" type="curve" smooth="yes"/>
      <point x="682" y="306"/>
      <point x="716" y="313"/>
      <point x="747" y="328" type="curve" smooth="yes"/>
      <point x="807" y="356"/>
      <point x="848" y="411"/>
      <point x="860" y="486" type="curve" smooth="yes"/>
      <point x="866" y="519"/>
      <point x="864" y="549"/>
      <point x="853" y="576" type="curve" smooth="yes"/>
      <point x="842" y="603"/>
      <point x="823" y="624"/>
      <point x="796" y="640" type="curve" smooth="yes"/>
      <point x="769" y="656"/>
      <point x="735" y="664"/>
      <point x="694" y="664" type="curve" smooth="yes"/>
      <point x="474" y="664" type="line"/>
      <point x="515" y="912" type="line"/>
      <point x="858" y="1158" type="line"/>
      <point x="859" y="1166" type="line"/>
      <point x="253" y="1166" type="line"/>
      <point x="307" y="1490" type="line"/>
      <point x="1393" y="1490" type="line"/>
      <point x="1344" y="1198" type="line"/>
      <point x="776" y="780" type="line"/>
      <point x="752" y="873" type="line"/>
      <point x="868" y="891"/>
      <point x="969" y="883"/>
      <point x="1054" y="850" type="curve" smooth="yes"/>
      <point x="1139" y="817"/>
      <point x="1203" y="765"/>
      <point x="1244" y="696" type="curve" smooth="yes"/>
      <point x="1285" y="626"/>
      <point x="1298" y="545"/>
      <point x="1283" y="452" type="curve" smooth="yes"/>
      <point x="1267" y="354"/>
      <point x="1228" y="270"/>
      <point x="1166" y="200" type="curve" smooth="yes"/>
      <point x="1041" y="59"/>
      <point x="845" y="-20"/>
    </contour>
  </outline>
</glyph>
<glyph name="four" format="2">
  <advance width="1438"/>
  <unicode hex="0034"/>
  <outline>
    <contour>
      <point x="30" y="232" type="line"/>
      <point x="82" y="546" type="line"/>
      <point x="839" y="1490" type="line"/>
      <point x="1123" y="1490" type="line"/>
      <point x="1053" y="1070" type="line"/>
      <point x="891" y="1070" type="line"/>
      <point x="482" y="558" type="line"/>
      <point x="480" y="546" type="line"/>
      <point x="1366" y="546" type="line"/>
      <point x="1314" y="232" type="line"/>
    </contour>
    <contour>
      <point x="716" y="0" type="line"/>
      <point x="770" y="328" type="line"/>
      <point x="803" y="466" type="line"/>
      <point x="973" y="1490" type="line"/>
      <point x="1351" y="1490" type="line"/>
      <point x="1104" y="0" type="line"/>
    </contour>
  </outline>
</glyph>
<glyph name="five" format="2">
  <advance width="1346"/>
  <unicode hex="0035"/>
  <outline>
    <contour>
      <point x="584" y="-24" type="curve" smooth="yes"/>
      <point x="291" y="-24"/>
      <point x="32" y="127"/>
      <point x="57" y="454" type="curve"/>
      <point x="441" y="454" type="line"/>
      <point x="441" y="347"/>
      <point x="507" y="282"/>
      <point x="614" y="282" type="curve" smooth="yes"/>
      <point x="763" y="282"/>
      <point x="867" y="407"/>
      <point x="867" y="551" type="curve" smooth="yes"/>
      <point x="867" y="654"/>
      <point x="808" y="724"/>
      <point x="703" y="724" type="curve" smooth="yes"/>
      <point x="614" y="724"/>
      <point x="514" y="685"/>
      <point x="473" y="600" type="curve"/>
      <point x="101" y="600" type="line"/>
      <point x="291" y="1490" type="line"/>
      <point x="1325" y="1490" type="line"/>
      <point x="1271" y="1166" type="line"/>
      <point x="601" y="1166" type="line"/>
      <point x="542" y="925" type="line"/>
      <point x="544" y="925" type="line"/>
      <point x="621" y="990"/>
      <point x="707" y="1017"/>
      <point x="807" y="1017" type="curve" smooth="yes"/>
      <point x="1053" y="1017"/>
      <point x="1263" y="873"/>
      <point x="1263" y="610" type="curve" smooth="yes"/>
      <point x="1263" y="229"/>
      <point x="954" y="-24"/>
    </contour>
  </outline>
</glyph>
<glyph name="six" format="2">
  <advance width="1422"/>
  <unicode hex="0036"/>
  <outline>
    <contour>
      <point x="664" y="-20" type="qcurve" smooth="yes"/>
      <point x="534" y="-20"/>
      <point x="307" y="62"/>
      <point x="147" y="240"/>
      <point x="84" y="525"/>
      <point x="118" y="728" type="qcurve" smooth="yes"/>
      <point x="148" y="909"/>
      <point x="280" y="1198"/>
      <point x="476" y="1402"/>
      <point x="725" y="1510"/>
      <point x="871" y="1510" type="qcurve" smooth="yes"/>
      <point x="1036" y="1510"/>
      <point x="1277" y="1383"/>
      <point x="1403" y="1172"/>
      <point x="1394" y="1044" type="qcurve"/>
      <point x="996" y="1044" type="line"/>
      <point x="993" y="1108"/>
      <point x="910" y="1166"/>
      <point x="846" y="1166" type="qcurve" smooth="yes"/>
      <point x="761" y="1166"/>
      <point x="632" y="1066"/>
      <point x="546" y="886"/>
      <point x="526" y="766" type="qcurve"/>
      <point x="534" y="766" type="line"/>
      <point x="574" y="834"/>
      <point x="693" y="932"/>
      <point x="842" y="984"/>
      <point x="926" y="984" type="qcurve" smooth="yes"/>
      <point x="1062" y="984"/>
      <point x="1257" y="862"/>
      <point x="1347" y="649"/>
      <point x="1324" y="512" type="qcurve" smooth="yes"/>
      <point x="1298" y="352"/>
      <point x="1118" y="112"/>
      <point x="840" y="-20"/>
    </contour>
    <contour>
      <point x="678" y="286" type="qcurve" smooth="yes"/>
      <point x="739" y="286"/>
      <point x="846" y="341"/>
      <point x="919" y="437"/>
      <point x="929" y="498" type="qcurve" smooth="yes"/>
      <point x="940" y="559"/>
      <point x="906" y="655"/>
      <point x="826" y="710"/>
      <point x="765" y="710" type="qcurve" smooth="yes"/>
      <point x="718" y="710"/>
      <point x="635" y="679"/>
      <point x="567" y="622"/>
      <point x="523" y="545"/>
      <point x="515" y="498" type="qcurve" smooth="yes"/>
      <point x="505" y="437"/>
      <point x="539" y="341"/>
      <point x="620" y="286"/>
    </contour>
  </outline>
</glyph>
<glyph name="six.ss01" format="2">
  <advance width="1317"/>
  <unicode hex="0036"/>
  <unicode hex="E06F"/>
  <outline>
    <contour>
      <point x="571" y="-20" type="curve" smooth="yes"/>
      <point x="467" y="-20"/>
      <point x="373" y="-1"/>
      <point x="288" y="37" type="curve" smooth="yes"/>
      <point x="203" y="75"/>
      <point x="139" y="132"/>
      <point x="96" y="208" type="curve" smooth="yes"/>
      <point x="53" y="284"/>
      <point x="40" y="379"/>
      <point x="59" y="492" type="curve" smooth="yes"/>
      <point x="68" y="548"/>
      <point x="85" y="603"/>
      <point x="108" y="656" type="curve" smooth="yes"/>
      <point x="154" y="762"/>
      <point x="224" y="864"/>
      <point x="312" y="968" type="curve" smooth="yes"/>
      <point x="751" y="1490" type="line"/>
      <point x="1147" y="1490" type="line"/>
      <point x="597" y="840" type="line"/>
      <point x="460" y="840" type="line"/>
      <point x="478" y="861"/>
      <point x="506" y="882"/>
      <point x="543" y="903" type="curve" smooth="yes"/>
      <point x="617" y="945"/>
      <point x="723" y="976"/>
      <point x="844" y="976" type="curve" smooth="yes"/>
      <point x="937" y="976"/>
      <point x="1015" y="958"/>
      <point x="1080" y="922" type="curve" smooth="yes"/>
      <point x="1145" y="885"/>
      <point x="1191" y="832"/>
      <point x="1220" y="763" type="curve" smooth="yes"/>
      <point x="1249" y="694"/>
      <point x="1255" y="610"/>
      <point x="1239" y="512" type="curve" smooth="yes"/>
      <point x="1221" y="403"/>
      <point x="1180" y="309"/>
      <point x="1117" y="230" type="curve" smooth="yes"/>
      <point x="1054" y="150"/>
      <point x="975" y="88"/>
      <point x="881" y="45" type="curve" smooth="yes"/>
      <point x="786" y="2"/>
      <point x="683" y="-20"/>
    </contour>
    <contour>
      <point x="617" y="286" type="curve" smooth="yes"/>
      <point x="658" y="286"/>
      <point x="695" y="295"/>
      <point x="730" y="314" type="curve" smooth="yes"/>
      <point x="764" y="332"/>
      <point x="793" y="357"/>
      <point x="816" y="389" type="curve" smooth="yes"/>
      <point x="839" y="421"/>
      <point x="853" y="457"/>
      <point x="860" y="498" type="curve" smooth="yes"/>
      <point x="867" y="539"/>
      <point x="865" y="575"/>
      <point x="852" y="607" type="curve" smooth="yes"/>
      <point x="827" y="671"/>
      <point x="769" y="710"/>
      <point x="688" y="710" type="curve" smooth="yes"/>
      <point x="649" y="710"/>
      <point x="613" y="701"/>
      <point x="579" y="683" type="curve" smooth="yes"/>
      <point x="544" y="664"/>
      <point x="515" y="639"/>
      <point x="492" y="607" type="curve" smooth="yes"/>
      <point x="469" y="575"/>
      <point x="453" y="539"/>
      <point x="446" y="498" type="curve" smooth="yes"/>
      <point x="439" y="457"/>
      <point x="442" y="421"/>
      <point x="455" y="389" type="curve" smooth="yes"/>
      <point x="480" y="325"/>
      <point x="540" y="286"/>
    </contour>
  </outline>
</glyph>
<glyph name="eight" format="2">
  <advance width="1430"/>
  <unicode hex="0038"/>
  <outline>
    <contour>
      <point x="642" y="-20" type="qcurve" smooth="yes"/>
      <point x="462" y="-20"/>
      <point x="186" y="92"/>
      <point x="44" y="284"/>
      <point x="64" y="404" type="qcurve" smooth="yes"/>
      <point x="79" y="496"/>
      <point x="196" y="649"/>
      <point x="370" y="751"/>
      <point x="470" y="766" type="qcurve"/>
      <point x="471" y="776" type="line"/>
      <point x="347" y="799"/>
      <point x="214" y="982"/>
      <point x="234" y="1106" type="qcurve" smooth="yes"/>
      <point x="254" y="1223"/>
      <point x="420" y="1405"/>
      <point x="683" y="1510"/>
      <point x="847" y="1510" type="qcurve" smooth="yes"/>
      <point x="1012" y="1510"/>
      <point x="1265" y="1405"/>
      <point x="1396" y="1222"/>
      <point x="1376" y="1106" type="qcurve" smooth="yes"/>
      <point x="1362" y="1022"/>
      <point x="1263" y="884"/>
      <point x="1115" y="791"/>
      <point x="1029" y="776" type="qcurve"/>
      <point x="1028" y="766" type="line"/>
      <point x="1121" y="751"/>
      <point x="1261" y="649"/>
      <point x="1329" y="496"/>
      <point x="1314" y="404" type="qcurve" smooth="yes"/>
      <point x="1294" y="284"/>
      <point x="1112" y="92"/>
      <point x="823" y="-20"/>
    </contour>
    <contour>
      <point x="664" y="258" type="qcurve" smooth="yes"/>
      <point x="722" y="258"/>
      <point x="818" y="305"/>
      <point x="883" y="388"/>
      <point x="892" y="440" type="qcurve" smooth="yes"/>
      <point x="901" y="491"/>
      <point x="863" y="570"/>
      <point x="781" y="616"/>
      <point x="723" y="616" type="qcurve" smooth="yes"/>
      <point x="667" y="616"/>
      <point x="571" y="571"/>
      <point x="507" y="492"/>
      <point x="498" y="440" type="qcurve" smooth="yes"/>
      <point x="490" y="388"/>
      <point x="527" y="306"/>
      <point x="608" y="258"/>
    </contour>
    <contour>
      <point x="769" y="896" type="qcurve" smooth="yes"/>
      <point x="820" y="896"/>
      <point x="907" y="938"/>
      <point x="965" y="1012"/>
      <point x="972" y="1058" type="qcurve" smooth="yes"/>
      <point x="980" y="1105"/>
      <point x="947" y="1177"/>
      <point x="874" y="1218"/>
      <point x="823" y="1218" type="qcurve" smooth="yes"/>
      <point x="773" y="1218"/>
      <point x="688" y="1177"/>
      <point x="630" y="1105"/>
      <point x="622" y="1058" type="qcurve" smooth="yes"/>
      <point x="615" y="1012"/>
      <point x="648" y="939"/>
      <point x="719" y="896"/>
    </contour>
  </outline>
</glyph>
<glyph name="nine.ss01" format="2">
  <advance width="1316"/>
  <unicode hex="0039"/>
  <unicode hex="E070"/>
  <outline>
    <contour>
      <point x="807" y="1510" type="qcurve" smooth="yes"/>
      <point x="964" y="1510"/>
      <point x="1217" y="1396"/>
      <point x="1347" y="1169"/>
      <point x="1319" y="998" type="qcurve" smooth="yes"/>
      <point x="1305" y="914"/>
      <point x="1236" y="755"/>
      <point x="1132" y="601"/>
      <point x="1066" y="522" type="qcurve" smooth="yes"/>
      <point x="627" y="0" type="line"/>
      <point x="231" y="0" type="line"/>
      <point x="781" y="650" type="line"/>
      <point x="918" y="650" type="line"/>
      <point x="892" y="619"/>
      <point x="780" y="556"/>
      <point x="625" y="514"/>
      <point x="534" y="514" type="qcurve" smooth="yes"/>
      <point x="396" y="514"/>
      <point x="201" y="623"/>
      <point x="115" y="831"/>
      <point x="139" y="978" type="qcurve" smooth="yes"/>
      <point x="166" y="1141"/>
      <point x="356" y="1380"/>
      <point x="640" y="1510"/>
    </contour>
    <contour>
      <point x="761" y="1204" type="qcurve" smooth="yes"/>
      <point x="701" y="1204"/>
      <point x="597" y="1149"/>
      <point x="528" y="1054"/>
      <point x="518" y="992" type="qcurve" smooth="yes"/>
      <point x="508" y="931"/>
      <point x="545" y="835"/>
      <point x="630" y="780"/>
      <point x="690" y="780" type="qcurve" smooth="yes"/>
      <point x="749" y="780"/>
      <point x="851" y="835"/>
      <point x="922" y="931"/>
      <point x="932" y="992" type="qcurve" smooth="yes"/>
      <point x="942" y="1054"/>
      <point x="904" y="1149"/>
      <point x="820" y="1204"/>
    </contour>
  </outline>
</glyph>
<glyph name="greater" format="2">
  <advance width="1421"/>
  <unicode hex="003E"/>
  <outline>
    <contour>
      <point x="1240" y="430" type="line"/>
      <point x="86" y="-2" type="line"/>
      <point x="146" y="364" type="line"/>
      <point x="874" y="602" type="line"/>
      <point x="860" y="584" type="line"/>
      <point x="868" y="626" type="line"/>
      <point x="876" y="608" type="line"/>
      <point x="226" y="846" type="line"/>
      <point x="286" y="1214" type="line"/>
      <point x="1298" y="780" type="line"/>
    </contour>
  </outline>
</glyph>
<glyph name="question" format="2">
  <advance width="1229"/>
  <unicode hex="003F"/>
  <unicode hex="E2B0"/>
  <outline>
    <contour>
      <point x="380" y="466" type="line"/>
      <point x="386" y="500" type="line" smooth="yes"/>
      <point x="399" y="580"/>
      <point x="416" y="644"/>
      <point x="437" y="692" type="curve" smooth="yes"/>
      <point x="457" y="739"/>
      <point x="482" y="777"/>
      <point x="511" y="806" type="curve" smooth="yes"/>
      <point x="540" y="835"/>
      <point x="575" y="861"/>
      <point x="615" y="884" type="curve" smooth="yes"/>
      <point x="666" y="915"/>
      <point x="710" y="944"/>
      <point x="746" y="973" type="curve" smooth="yes"/>
      <point x="781" y="1001"/>
      <point x="802" y="1035"/>
      <point x="809" y="1076" type="curve" smooth="yes"/>
      <point x="813" y="1101"/>
      <point x="811" y="1122"/>
      <point x="802" y="1140" type="curve" smooth="yes"/>
      <point x="785" y="1176"/>
      <point x="747" y="1198"/>
      <point x="699" y="1198" type="curve" smooth="yes"/>
      <point x="673" y="1198"/>
      <point x="648" y="1192"/>
      <point x="624" y="1180" type="curve" smooth="yes"/>
      <point x="575" y="1156"/>
      <point x="539" y="1112"/>
      <point x="530" y="1056" type="curve"/>
      <point x="158" y="1056" type="line"/>
      <point x="176" y="1163"/>
      <point x="214" y="1249"/>
      <point x="273" y="1316" type="curve" smooth="yes"/>
      <point x="331" y="1383"/>
      <point x="402" y="1432"/>
      <point x="486" y="1463" type="curve" smooth="yes"/>
      <point x="570" y="1494"/>
      <point x="659" y="1510"/>
      <point x="753" y="1510" type="curve" smooth="yes"/>
      <point x="857" y="1510"/>
      <point x="947" y="1495"/>
      <point x="1024" y="1465" type="curve" smooth="yes"/>
      <point x="1176" y="1404"/>
      <point x="1258" y="1283"/>
      <point x="1227" y="1100" type="curve" smooth="yes"/>
      <point x="1212" y="1011"/>
      <point x="1178" y="939"/>
      <point x="1125" y="883" type="curve" smooth="yes"/>
      <point x="1072" y="826"/>
      <point x="1006" y="777"/>
      <point x="927" y="736" type="curve" smooth="yes"/>
      <point x="889" y="715"/>
      <point x="856" y="694"/>
      <point x="829" y="673" type="curve" smooth="yes"/>
      <point x="802" y="651"/>
      <point x="780" y="626"/>
      <point x="763" y="599" type="curve" smooth="yes"/>
      <point x="746" y="572"/>
      <point x="735" y="539"/>
      <point x="728" y="500" type="curve" smooth="yes"/>
      <point x="722" y="466" type="line"/>
    </contour>
    <contour>
      <point x="270" y="0" type="line"/>
      <point x="334" y="351" type="line"/>
      <point x="742" y="351" type="line"/>
      <point x="678" y="0" type="line"/>
    </contour>
  </outline>
</glyph>
<glyph name="at" format="2">
  <advance width="2208"/>
  <unicode hex="0040"/>
  <outline>
    <contour>
      <point x="955" y="-450" type="qcurve" smooth="yes"/>
      <point x="719" y="-450"/>
      <point x="360" y="-321"/>
      <point x="130" y="-73"/>
      <point x="45" y="285"/>
      <point x="83" y="514" type="qcurve" smooth="yes"/>
      <point x="119" y="732"/>
      <point x="303" y="1099"/>
      <point x="595" y="1370"/>
      <point x="994" y="1520"/>
      <point x="1244" y="1520" type="qcurve" smooth="yes"/>
      <point x="1470" y="1520"/>
      <point x="1828" y="1395"/>
      <point x="2065" y="1158"/>
      <point x="2162" y="822"/>
      <point x="2127" y="611" type="qcurve" smooth="yes"/>
      <point x="2104" y="470"/>
      <point x="2002" y="254"/>
      <point x="1853" y="106"/>
      <point x="1665" y="30"/>
      <point x="1557" y="30" type="qcurve" smooth="yes"/>
      <point x="1481" y="30"/>
      <point x="1376" y="68"/>
      <point x="1323" y="143"/>
      <point x="1322" y="197" type="qcurve"/>
      <point x="1314" y="197" type="line"/>
      <point x="1272" y="113"/>
      <point x="1088" y="22"/>
      <point x="966" y="22" type="qcurve" smooth="yes"/>
      <point x="826" y="22"/>
      <point x="640" y="143"/>
      <point x="564" y="368"/>
      <point x="589" y="524" type="qcurve"/>
      <point x="616" y="683"/>
      <point x="767" y="919"/>
      <point x="992" y="1049"/>
      <point x="1130" y="1049" type="qcurve" smooth="yes"/>
      <point x="1230" y="1049"/>
      <point x="1370" y="978"/>
      <point x="1390" y="909" type="qcurve"/>
      <point x="1401" y="909" type="line"/>
      <point x="1420" y="1027" type="line"/>
      <point x="1668" y="1027" type="line"/>
      <point x="1555" y="339" type="line" smooth="yes"/>
      <point x="1548" y="300"/>
      <point x="1567" y="273"/>
      <point x="1598" y="273" type="qcurve" smooth="yes"/>
      <point x="1653" y="273"/>
      <point x="1734" y="338"/>
      <point x="1790" y="471"/>
      <point x="1806" y="572" type="qcurve" smooth="yes"/>
      <point x="1833" y="737"/>
      <point x="1791" y="981"/>
      <point x="1652" y="1141"/>
      <point x="1419" y="1220"/>
      <point x="1256" y="1220" type="qcurve" smooth="yes"/>
      <point x="1074" y="1220"/>
      <point x="785" y="1126"/>
      <point x="572" y="948"/>
      <point x="438" y="692"/>
      <point x="411" y="530" type="qcurve" smooth="yes"/>
      <point x="384" y="364"/>
      <point x="432" y="111"/>
      <point x="582" y="-61"/>
      <point x="833" y="-148"/>
      <point x="1009" y="-148" type="qcurve" smooth="yes"/>
      <point x="1093" y="-148"/>
      <point x="1248" y="-129"/>
      <point x="1385" y="-94"/>
      <point x="1440" y="-71" type="qcurve"/>
      <point x="1506" y="-336" type="line"/>
      <point x="1448" y="-364"/>
      <point x="1287" y="-417"/>
      <point x="1082" y="-450"/>
    </contour>
    <contour>
      <point x="1041" y="286" type="qcurve" smooth="yes"/>
      <point x="1111" y="286"/>
      <point x="1222" y="343"/>
      <point x="1296" y="450"/>
      <point x="1308" y="525" type="qcurve" smooth="yes"/>
      <point x="1321" y="601"/>
      <point x="1291" y="704"/>
      <point x="1206" y="757"/>
      <point x="1135" y="757" type="qcurve" smooth="yes"/>
      <point x="1065" y="757"/>
      <point x="954" y="704"/>
      <point x="882" y="602"/>
      <point x="869" y="526" type="qcurve" smooth="yes"/>
      <point x="856" y="450"/>
      <point x="885" y="343"/>
      <point x="971" y="286"/>
    </contour>
  </outline>
</glyph>
<glyph name="A" format="2">
  <advance width="1628"/>
  <unicode hex="0041"/>
  <anchor x="828" y="0" name="m.uni0326"/>
  <anchor x="1075" y="1490" name="m.uni030F_1"/>
  <anchor x="1736" y="0" name="m.uni0328_4"/>
  <outline>
    <contour>
      <point x="-47" y="0" type="line"/>
      <point x="683" y="1490" type="line"/>
      <point x="1235" y="1490" type="line"/>
      <point x="1489" y="0" type="line"/>
      <point x="1047" y="0" type="line"/>
      <point x="970" y="578" type="line" smooth="yes"/>
      <point x="945" y="766"/>
      <point x="914" y="1171"/>
      <point x="903" y="1371" type="qcurve"/>
      <point x="995" y="1371" type="line"/>
      <point x="920" y="1171"/>
      <point x="767" y="766"/>
      <point x="682" y="578" type="qcurve" smooth="yes"/>
      <point x="421" y="0" type="line"/>
    </contour>
    <contour>
      <point x="358" y="286" type="line"/>
      <point x="408" y="588" type="line"/>
      <point x="1228" y="588" type="line"/>
      <point x="1178" y="286" type="line"/>
    </contour>
  </outline>
</glyph>
<glyph name="D" format="2">
  <advance width="1479"/>
  <unicode hex="0044"/>
  <anchor x="657" y="0" name="m.uni0326"/>
  <anchor x="750" y="1490" name="m.uni030F_1"/>
  <outline>
    <contour>
      <point x="625" y="0" type="curve" smooth="yes"/>
      <point x="169" y="0" type="line"/>
      <point x="226" y="344" type="line"/>
      <point x="618" y="344" type="line" smooth="yes"/>
      <point x="692" y="344"/>
      <point x="757" y="356"/>
      <point x="813" y="379" type="curve" smooth="yes"/>
      <point x="925" y="426"/>
      <point x="1001" y="537"/>
      <point x="1034" y="744" type="curve" smooth="yes"/>
      <point x="1051" y="848"/>
      <point x="1052" y="929"/>
      <point x="1035" y="988" type="curve" smooth="yes"/>
      <point x="1002" y="1104"/>
      <point x="903" y="1146"/>
      <point x="747" y="1146" type="curve" smooth="yes"/>
      <point x="353" y="1146" type="line"/>
      <point x="410" y="1490" type="line"/>
      <point x="802" y="1490" type="line" smooth="yes"/>
      <point x="955" y="1490"/>
      <point x="1084" y="1460"/>
      <point x="1188" y="1401" type="curve" smooth="yes"/>
      <point x="1396" y="1281"/>
      <point x="1492" y="1055"/>
      <point x="1440" y="744" type="curve" smooth="yes"/>
      <point x="1415" y="589"/>
      <point x="1367" y="456"/>
      <point x="1296" y="345" type="curve" smooth="yes"/>
      <point x="1154" y="122"/>
      <point x="928" y="0"/>
    </contour>
    <contour>
      <point x="654" y="1490" type="line"/>
      <point x="407" y="0" type="line"/>
      <point x="3" y="0" type="line"/>
      <point x="250" y="1490" type="line"/>
    </contour>
  </outline>
</glyph>
<glyph name="E" format="2">
  <advance width="1274"/>
  <unicode hex="0045"/>
  <anchor x="565" y="0" name="m.uni0326"/>
  <anchor x="812" y="1490" name="m.uni030F_1"/>
  <anchor x="554" y="0" name="m.uni0327_3"/>
  <anchor x="1190" y="0" name="m.uni0328_4"/>
  <outline>
    <contour>
      <point x="3" y="0" type="line"/>
      <point x="250" y="1490" type="line"/>
      <point x="1324" y="1490" type="line"/>
      <point x="1270" y="1164" type="line"/>
      <point x="600" y="1164" type="line"/>
      <point x="558" y="912" type="line"/>
      <point x="1172" y="912" type="line"/>
      <point x="1119" y="594" type="line"/>
      <point x="505" y="594" type="line"/>
      <point x="461" y="326" type="line"/>
      <point x="1127" y="326" type="line"/>
      <point x="1073" y="0" type="line"/>
    </contour>
  </outline>
</glyph>
<glyph name="F" format="2">
  <advance width="1196"/>
  <unicode hex="0046"/>
  <anchor x="255" y="0" name="m.uni0326"/>
  <anchor x="796" y="1490" name="m.uni030F_1"/>
  <outline>
    <contour>
      <point x="3" y="0" type="line"/>
      <point x="250" y="1490" type="line"/>
      <point x="1298" y="1490" type="line"/>
      <point x="1244" y="1164" type="line"/>
      <point x="600" y="1164" type="line"/>
      <point x="544" y="828" type="line"/>
      <point x="1124" y="828" type="line"/>
      <point x="1071" y="510" type="line"/>
      <point x="491" y="510" type="line"/>
      <point x="407" y="0" type="line"/>
    </contour>
  </outline>
</glyph>
<glyph name="G.1" format="2">
  <advance width="1545"/>
  <unicode hex="0047"/>
  <unicode hex="E002"/>
  <anchor x="704" y="6" name="m.uni0326"/>
  <anchor x="944" y="1490" name="m.uni030F_1"/>
  <outline>
    <contour>
      <point x="656" y="-20" type="qcurve" smooth="yes"/>
      <point x="468" y="-20"/>
      <point x="189" y="165"/>
      <point x="61" y="507"/>
      <point x="100" y="742" type="qcurve" smooth="yes"/>
      <point x="130" y="926"/>
      <point x="291" y="1212"/>
      <point x="524" y="1408"/>
      <point x="804" y="1510"/>
      <point x="955" y="1510" type="qcurve" smooth="yes"/>
      <point x="1087" y="1510"/>
      <point x="1302" y="1435"/>
      <point x="1455" y="1297"/>
      <point x="1531" y="1110"/>
      <point x="1524" y="998" type="qcurve"/>
      <point x="1116" y="998" type="line"/>
      <point x="1113" y="1036"/>
      <point x="1082" y="1096"/>
      <point x="1028" y="1137"/>
      <point x="953" y="1158"/>
      <point x="905" y="1158" type="qcurve" smooth="yes"/>
      <point x="804" y="1158"/>
      <point x="644" y="1061"/>
      <point x="539" y="877"/>
      <point x="517" y="748" type="qcurve" smooth="yes"/>
      <point x="495" y="617"/>
      <point x="537" y="431"/>
      <point x="666" y="332"/>
      <point x="774" y="332" type="qcurve" smooth="yes"/>
      <point x="859" y="332"/>
      <point x="987" y="386"/>
      <point x="1067" y="485"/>
      <point x="1078" y="552" type="qcurve"/>
      <point x="1172" y="552" type="line"/>
      <point x="1155" y="444" type="line" smooth="yes"/>
      <point x="1139" y="342"/>
      <point x="1059" y="172"/>
      <point x="912" y="48"/>
      <point x="771" y="-20"/>
    </contour>
    <contour>
      <point x="1128" y="0" type="line"/>
      <point x="1129" y="336" type="line"/>
      <point x="1163" y="544" type="line"/>
      <point x="807" y="544" type="line"/>
      <point x="855" y="832" type="line"/>
      <point x="1515" y="832" type="line"/>
      <point x="1377" y="0" type="line"/>
    </contour>
  </outline>
</glyph>
<glyph name="G" format="2">
  <advance width="1583"/>
  <unicode hex="0047"/>
  <anchor x="648" y="0" name="m.uni0326"/>
  <anchor x="903" y="1490" name="m.uni030F_1"/>
  <outline>
    <contour>
      <point x="746" y="-20" type="qcurve" smooth="yes"/>
      <point x="551" y="-20"/>
      <point x="266" y="129"/>
      <point x="111" y="405"/>
      <point x="111" y="597" type="qcurve" smooth="yes"/>
      <point x="111" y="784"/>
      <point x="233" y="1115"/>
      <point x="458" y="1367"/>
      <point x="768" y="1510"/>
      <point x="956" y="1510" type="qcurve" smooth="yes"/>
      <point x="1082" y="1510"/>
      <point x="1303" y="1440"/>
      <point x="1467" y="1306"/>
      <point x="1554" y="1117"/>
      <point x="1546" y="998" type="qcurve"/>
      <point x="1138" y="998" type="line"/>
      <point x="1135" y="1036"/>
      <point x="1107" y="1096"/>
      <point x="1059" y="1137"/>
      <point x="991" y="1158"/>
      <point x="947" y="1158" type="qcurve" smooth="yes"/>
      <point x="841" y="1158"/>
      <point x="682" y="1060"/>
      <point x="576" y="897"/>
      <point x="523" y="700"/>
      <point x="523" y="600" type="qcurve" smooth="yes"/>
      <point x="523" y="471"/>
      <point x="643" y="332"/>
      <point x="767" y="332" type="qcurve" smooth="yes"/>
      <point x="864" y="332"/>
      <point x="1006" y="392"/>
      <point x="1091" y="498"/>
      <point x="1102" y="565" type="qcurve"/>
      <point x="1168" y="544" type="line"/>
      <point x="829" y="544" type="line"/>
      <point x="876" y="832" type="line"/>
      <point x="1536" y="832" type="line"/>
      <point x="1500" y="613" type="line" smooth="yes"/>
      <point x="1475" y="460"/>
      <point x="1340" y="224"/>
      <point x="1140" y="63"/>
      <point x="888" y="-20"/>
    </contour>
  </outline>
</glyph>
<glyph name="H" format="2">
  <advance width="1536"/>
  <unicode hex="0048"/>
  <outline>
    <contour>
      <point x="3" y="0" type="line"/>
      <point x="250" y="1490" type="line"/>
      <point x="654" y="1490" type="line"/>
      <point x="560" y="924" type="line"/>
      <point x="1096" y="924" type="line"/>
      <point x="1190" y="1490" type="line"/>
      <point x="1594" y="1490" type="line"/>
      <point x="1347" y="0" type="line"/>
      <point x="943" y="0" type="line"/>
      <point x="1042" y="598" type="line"/>
      <point x="506" y="598" type="line"/>
      <point x="407" y="0" type="line"/>
    </contour>
  </outline>
</glyph>
<glyph name="I" format="2">
  <advance width="596"/>
  <unicode hex="0049"/>
  <outline>
    <contour>
      <point x="654" y="1490" type="line"/>
      <point x="407" y="0" type="line"/>
      <point x="3" y="0" type="line"/>
      <point x="250" y="1490" type="line"/>
    </contour>
  </outline>
</glyph>
<glyph name="J" format="2">
  <advance width="1221"/>
  <unicode hex="004A"/>
  <anchor x="1125" y="1490" name="m.uni030F_1"/>
  <outline>
    <contour>
      <point x="507" y="-20" type="curve" smooth="yes"/>
      <point x="352" y="-20"/>
      <point x="231" y="13"/>
      <point x="145" y="79" type="curve" smooth="yes"/>
      <point x="59" y="145"/>
      <point x="16" y="240"/>
      <point x="16" y="364" type="curve" smooth="yes"/>
      <point x="16" y="375"/>
      <point x="17" y="387"/>
      <point x="18" y="401" type="curve" smooth="yes"/>
      <point x="20" y="428"/>
      <point x="26" y="474"/>
      <point x="41" y="559" type="curve"/>
      <point x="445" y="559" type="line"/>
      <point x="438" y="520"/>
      <point x="434" y="490"/>
      <point x="431" y="471" type="curve" smooth="yes"/>
      <point x="425" y="432"/>
      <point x="424" y="420"/>
      <point x="424" y="411" type="curve" smooth="yes"/>
      <point x="424" y="332"/>
      <point x="466" y="294"/>
      <point x="543" y="294" type="curve" smooth="yes"/>
      <point x="588" y="294"/>
      <point x="624" y="308"/>
      <point x="653" y="335" type="curve" smooth="yes"/>
      <point x="682" y="362"/>
      <point x="701" y="404"/>
      <point x="710" y="460" type="curve" smooth="yes"/>
      <point x="881" y="1490" type="line"/>
      <point x="1279" y="1490" type="line"/>
      <point x="1109" y="468" type="line" smooth="yes"/>
      <point x="1083" y="311"/>
      <point x="1019" y="191"/>
      <point x="918" y="107" type="curve" smooth="yes"/>
      <point x="817" y="22"/>
      <point x="680" y="-20"/>
    </contour>
  </outline>
</glyph>
<glyph name="K" format="2">
  <advance width="1555"/>
  <unicode hex="004B"/>
  <anchor x="727" y="0" name="m.uni0326"/>
  <anchor x="974" y="1490" name="m.uni030F_1"/>
  <outline>
    <contour>
      <point x="353" y="261" type="line"/>
      <point x="386" y="603" type="line"/>
      <point x="424" y="666"/>
      <point x="460" y="722"/>
      <point x="495" y="773" type="curve" smooth="yes"/>
      <point x="529" y="823"/>
      <point x="568" y="874"/>
      <point x="611" y="926" type="curve" smooth="yes"/>
      <point x="654" y="978"/>
      <point x="708" y="1038"/>
      <point x="772" y="1107" type="curve" smooth="yes"/>
      <point x="1132" y="1490" type="line"/>
      <point x="1635" y="1490" type="line"/>
      <point x="885" y="723" type="line"/>
      <point x="849" y="739" type="line"/>
    </contour>
    <contour>
      <point x="3" y="0" type="line"/>
      <point x="250" y="1490" type="line"/>
      <point x="666" y="1490" type="line"/>
      <point x="613" y="1170" type="line"/>
      <point x="534" y="741" type="line"/>
      <point x="509" y="544" type="line"/>
      <point x="419" y="0" type="line"/>
    </contour>
    <contour>
      <point x="964" y="0" type="line"/>
      <point x="704" y="599" type="line"/>
      <point x="985" y="895" type="line"/>
      <point x="1416" y="0" type="line"/>
    </contour>
  </outline>
</glyph>
<glyph name="L" format="2">
  <advance width="1158"/>
  <unicode hex="004C"/>
  <outline>
    <contour>
      <point x="3" y="0" type="line"/>
      <point x="250" y="1490" type="line"/>
      <point x="654" y="1490" type="line"/>
      <point x="461" y="326" type="line"/>
      <point x="1063" y="326" type="line"/>
      <point x="1009" y="0" type="line"/>
    </contour>
  </outline>
</glyph>
<glyph name="M" format="2">
  <advance width="1958"/>
  <unicode hex="004D"/>
  <anchor x="955" y="0" name="m.uni0326"/>
  <anchor x="1202" y="1490" name="m.uni030F_1"/>
  <outline>
    <contour>
      <point x="3" y="0" type="line"/>
      <point x="250" y="1490" type="line"/>
      <point x="888" y="1490" type="line"/>
      <point x="945" y="1024" type="line" smooth="yes"/>
      <point x="952" y="964"/>
      <point x="962" y="766"/>
      <point x="969" y="539"/>
      <point x="970" y="330"/>
      <point x="968" y="258" type="qcurve"/>
      <point x="893" y="258" type="line"/>
      <point x="914" y="330"/>
      <point x="985" y="539"/>
      <point x="1065" y="766"/>
      <point x="1141" y="964"/>
      <point x="1168" y="1024" type="qcurve" smooth="yes"/>
      <point x="1377" y="1490" type="line"/>
      <point x="2016" y="1490" type="line"/>
      <point x="1769" y="0" type="line"/>
      <point x="1361" y="0" type="line"/>
      <point x="1456" y="576" type="line" smooth="yes"/>
      <point x="1465" y="627"/>
      <point x="1498" y="796"/>
      <point x="1537" y="998"/>
      <point x="1576" y="1202"/>
      <point x="1590" y="1288" type="qcurve"/>
      <point x="1613" y="1288" type="line"/>
      <point x="1579" y="1193"/>
      <point x="1499" y="988"/>
      <point x="1419" y="793"/>
      <point x="1348" y="630"/>
      <point x="1323" y="576" type="qcurve" smooth="yes"/>
      <point x="1055" y="0" type="line"/>
      <point x="719" y="0" type="line"/>
      <point x="638" y="576" type="line" smooth="yes"/>
      <point x="628" y="648"/>
      <point x="604" y="886"/>
      <point x="584" y="1162"/>
      <point x="579" y="1288" type="qcurve"/>
      <point x="608" y="1288" type="line"/>
      <point x="594" y="1202"/>
      <point x="565" y="998"/>
      <point x="538" y="796"/>
      <point x="515" y="627"/>
      <point x="506" y="576" type="qcurve" smooth="yes"/>
      <point x="411" y="0" type="line"/>
    </contour>
  </outline>
</glyph>
<glyph name="N" format="2">
  <advance width="1576"/>
  <unicode hex="004E"/>
  <anchor x="726" y="0" name="m.uni0326"/>
  <anchor x="973" y="1490" name="m.uni030F_1"/>
  <outline>
    <contour>
      <point x="3" y="0" type="line"/>
      <point x="250" y="1490" type="line"/>
      <point x="690" y="1490" type="line"/>
      <point x="948" y="905" type="line" smooth="yes"/>
      <point x="982" y="829"/>
      <point x="1036" y="677"/>
      <point x="1081" y="494"/>
      <point x="1100" y="372" type="qcurve"/>
      <point x="1065" y="372" type="line"/>
      <point x="1073" y="453"/>
      <point x="1093" y="666"/>
      <point x="1116" y="873"/>
      <point x="1127" y="944" type="qcurve"/>
      <point x="1218" y="1490" type="line"/>
      <point x="1634" y="1490" type="line"/>
      <point x="1387" y="0" type="line"/>
      <point x="947" y="0" type="line"/>
      <point x="706" y="544" type="line" smooth="yes"/>
      <point x="665" y="637"/>
      <point x="608" y="798"/>
      <point x="557" y="978"/>
      <point x="526" y="1096" type="qcurve"/>
      <point x="568" y="1096" type="line"/>
      <point x="559" y="991"/>
      <point x="539" y="783"/>
      <point x="519" y="605"/>
      <point x="509" y="544" type="qcurve" smooth="yes"/>
      <point x="419" y="0" type="line"/>
    </contour>
  </outline>
</glyph>
<glyph name="O" format="2">
  <advance width="1630"/>
  <unicode hex="004F"/>
  <anchor x="655" y="0" name="m.uni0326"/>
  <anchor x="902" y="1490" name="m.uni030F_1"/>
  <anchor x="1500" y="917" name="m.uni0328_4"/>
  <outline>
    <contour>
      <point x="740" y="-20" type="qcurve" smooth="yes"/>
      <point x="556" y="-20"/>
      <point x="272" y="123"/>
      <point x="111" y="398"/>
      <point x="111" y="597" type="qcurve" smooth="yes"/>
      <point x="111" y="784"/>
      <point x="229" y="1115"/>
      <point x="450" y="1367"/>
      <point x="760" y="1510"/>
      <point x="952" y="1510" type="qcurve" smooth="yes"/>
      <point x="1135" y="1510"/>
      <point x="1418" y="1368"/>
      <point x="1580" y="1092"/>
      <point x="1580" y="892" type="qcurve" smooth="yes"/>
      <point x="1580" y="705"/>
      <point x="1461" y="375"/>
      <point x="1240" y="123"/>
      <point x="931" y="-20"/>
    </contour>
    <contour>
      <point x="757" y="332" type="qcurve" smooth="yes"/>
      <point x="866" y="332"/>
      <point x="1022" y="435"/>
      <point x="1122" y="604"/>
      <point x="1169" y="802"/>
      <point x="1169" y="896" type="qcurve" smooth="yes"/>
      <point x="1169" y="983"/>
      <point x="1117" y="1099"/>
      <point x="1013" y="1158"/>
      <point x="935" y="1158" type="qcurve" smooth="yes"/>
      <point x="826" y="1158"/>
      <point x="669" y="1054"/>
      <point x="569" y="885"/>
      <point x="522" y="688"/>
      <point x="522" y="594" type="qcurve" smooth="yes"/>
      <point x="522" y="508"/>
      <point x="575" y="391"/>
      <point x="679" y="332"/>
    </contour>
  </outline>
</glyph>
<glyph name="P" format="2">
  <advance width="1343"/>
  <unicode hex="0050"/>
  <outline>
    <contour>
      <point x="3" y="0" type="line"/>
      <point x="250" y="1490" type="line"/>
      <point x="892" y="1490" type="line" smooth="yes"/>
      <point x="1058" y="1490"/>
      <point x="1285" y="1359"/>
      <point x="1385" y="1121"/>
      <point x="1358" y="962" type="qcurve" smooth="yes"/>
      <point x="1332" y="802"/>
      <point x="1151" y="569"/>
      <point x="874" y="442"/>
      <point x="704" y="442" type="qcurve" smooth="yes"/>
      <point x="320" y="442" type="line"/>
      <point x="372" y="756" type="line"/>
      <point x="674" y="756" type="line" smooth="yes"/>
      <point x="746" y="756"/>
      <point x="856" y="807"/>
      <point x="926" y="899"/>
      <point x="936" y="962" type="qcurve" smooth="yes"/>
      <point x="947" y="1027"/>
      <point x="908" y="1118"/>
      <point x="814" y="1166"/>
      <point x="742" y="1166" type="qcurve" smooth="yes"/>
      <point x="600" y="1166" type="line"/>
      <point x="407" y="0" type="line"/>
    </contour>
  </outline>
</glyph>
<glyph name="Q" format="2">
  <advance width="1590"/>
  <unicode hex="0051"/>
  <anchor x="700" y="0" name="m.uni0326"/>
  <anchor x="947" y="1490" name="m.uni030F_1"/>
  <anchor x="1603" y="888" name="m.uni0328_4"/>
  <outline>
    <contour>
      <point x="646" y="552" type="line"/>
      <point x="932" y="552" type="line"/>
      <point x="1023" y="410" type="line"/>
      <point x="1179" y="192" type="line"/>
      <point x="1379" y="-110" type="line"/>
      <point x="1049" y="-110" type="line"/>
      <point x="905" y="96" type="line"/>
      <point x="815" y="268" type="line"/>
    </contour>
    <contour>
      <point x="720" y="-20" type="curve" smooth="yes"/>
      <point x="597" y="-20"/>
      <point x="489" y="4"/>
      <point x="394" y="52" type="curve" smooth="yes"/>
      <point x="205" y="147"/>
      <point x="91" y="332"/>
      <point x="91" y="597" type="curve" smooth="yes"/>
      <point x="91" y="722"/>
      <point x="111" y="839"/>
      <point x="150" y="950" type="curve" smooth="yes"/>
      <point x="189" y="1060"/>
      <point x="246" y="1157"/>
      <point x="320" y="1241" type="curve" smooth="yes"/>
      <point x="393" y="1325"/>
      <point x="482" y="1391"/>
      <point x="585" y="1439" type="curve" smooth="yes"/>
      <point x="688" y="1486"/>
      <point x="804" y="1510"/>
      <point x="932" y="1510" type="curve" smooth="yes"/>
      <point x="1054" y="1510"/>
      <point x="1162" y="1486"/>
      <point x="1257" y="1439" type="curve" smooth="yes"/>
      <point x="1445" y="1344"/>
      <point x="1560" y="1159"/>
      <point x="1560" y="892" type="curve" smooth="yes"/>
      <point x="1560" y="767"/>
      <point x="1540" y="650"/>
      <point x="1501" y="540" type="curve" smooth="yes"/>
      <point x="1461" y="430"/>
      <point x="1404" y="333"/>
      <point x="1331" y="249" type="curve" smooth="yes"/>
      <point x="1257" y="165"/>
      <point x="1169" y="99"/>
      <point x="1066" y="52" type="curve" smooth="yes"/>
      <point x="963" y="4"/>
      <point x="847" y="-20"/>
    </contour>
    <contour>
      <point x="737" y="332" type="curve" smooth="yes"/>
      <point x="810" y="332"/>
      <point x="872" y="349"/>
      <point x="924" y="384" type="curve" smooth="yes"/>
      <point x="976" y="418"/>
      <point x="1019" y="463"/>
      <point x="1052" y="520" type="curve" smooth="yes"/>
      <point x="1085" y="576"/>
      <point x="1110" y="637"/>
      <point x="1126" y="703" type="curve" smooth="yes"/>
      <point x="1141" y="769"/>
      <point x="1149" y="833"/>
      <point x="1149" y="896" type="curve" smooth="yes"/>
      <point x="1149" y="954"/>
      <point x="1140" y="1002"/>
      <point x="1123" y="1041" type="curve" smooth="yes"/>
      <point x="1088" y="1118"/>
      <point x="1019" y="1158"/>
      <point x="915" y="1158" type="curve" smooth="yes"/>
      <point x="842" y="1158"/>
      <point x="780" y="1141"/>
      <point x="728" y="1106" type="curve" smooth="yes"/>
      <point x="675" y="1071"/>
      <point x="632" y="1026"/>
      <point x="599" y="970" type="curve" smooth="yes"/>
      <point x="566" y="913"/>
      <point x="541" y="852"/>
      <point x="526" y="787" type="curve" smooth="yes"/>
      <point x="510" y="721"/>
      <point x="502" y="657"/>
      <point x="502" y="594" type="curve" smooth="yes"/>
      <point x="502" y="537"/>
      <point x="511" y="489"/>
      <point x="529" y="450" type="curve" smooth="yes"/>
      <point x="564" y="372"/>
      <point x="633" y="332"/>
    </contour>
  </outline>
</glyph>
<glyph name="R" format="2">
  <advance width="1368"/>
  <unicode hex="0052"/>
  <anchor x="642" y="0" name="m.uni0326"/>
  <anchor x="866" y="1490" name="m.uni030F_1"/>
  <outline>
    <contour>
      <point x="3" y="0" type="line"/>
      <point x="250" y="1490" type="line"/>
      <point x="892" y="1490" type="line" smooth="yes"/>
      <point x="1003" y="1490"/>
      <point x="1096" y="1470"/>
      <point x="1173" y="1430" type="curve" smooth="yes"/>
      <point x="1325" y="1349"/>
      <point x="1397" y="1195"/>
      <point x="1362" y="984" type="curve" smooth="yes"/>
      <point x="1345" y="877"/>
      <point x="1306" y="787"/>
      <point x="1247" y="714" type="curve" smooth="yes"/>
      <point x="1127" y="567"/>
      <point x="939" y="492"/>
      <point x="712" y="492" type="curve" smooth="yes"/>
      <point x="328" y="492" type="line"/>
      <point x="380" y="806" type="line"/>
      <point x="682" y="806" type="line" smooth="yes"/>
      <point x="730" y="806"/>
      <point x="772" y="812"/>
      <point x="808" y="824" type="curve" smooth="yes"/>
      <point x="880" y="848"/>
      <point x="927" y="899"/>
      <point x="940" y="984" type="curve" smooth="yes"/>
      <point x="951" y="1047"/>
      <point x="938" y="1094"/>
      <point x="903" y="1123" type="curve" smooth="yes"/>
      <point x="867" y="1152"/>
      <point x="813" y="1166"/>
      <point x="742" y="1166" type="curve" smooth="yes"/>
      <point x="600" y="1166" type="line"/>
      <point x="407" y="0" type="line"/>
    </contour>
    <contour>
      <point x="809" y="0" type="line"/>
      <point x="558" y="684" type="line"/>
      <point x="988" y="684" type="line"/>
      <point x="1249" y="0" type="line"/>
    </contour>
  </outline>
</glyph>
<glyph name="U" format="2">
  <advance width="1478"/>
  <unicode hex="0055"/>
  <anchor x="647" y="0" name="m.uni0326"/>
  <anchor x="894" y="1490" name="m.uni030F_1"/>
  <anchor x="1443" y="540" name="m.uni0328_4"/>
  <outline>
    <contour>
      <point x="663" y="-18" type="curve" smooth="yes"/>
      <point x="532" y="-18"/>
      <point x="420" y="6"/>
      <point x="328" y="53" type="curve" smooth="yes"/>
      <point x="236" y="100"/>
      <point x="169" y="166"/>
      <point x="128" y="251" type="curve" smooth="yes"/>
      <point x="87" y="336"/>
      <point x="75" y="436"/>
      <point x="94" y="549" type="curve" smooth="yes"/>
      <point x="250" y="1490" type="line"/>
      <point x="654" y="1490" type="line"/>
      <point x="500" y="557" type="line" smooth="yes"/>
      <point x="493" y="511"/>
      <point x="495" y="471"/>
      <point x="508" y="438" type="curve" smooth="yes"/>
      <point x="533" y="370"/>
      <point x="595" y="332"/>
      <point x="680" y="332" type="curve" smooth="yes"/>
      <point x="730" y="332"/>
      <point x="777" y="343"/>
      <point x="820" y="366" type="curve" smooth="yes"/>
      <point x="863" y="389"/>
      <point x="899" y="419"/>
      <point x="928" y="457" type="curve" smooth="yes"/>
      <point x="957" y="495"/>
      <point x="975" y="537"/>
      <point x="982" y="583" type="curve" smooth="yes"/>
      <point x="1132" y="1490" type="line"/>
      <point x="1536" y="1490" type="line"/>
      <point x="1376" y="523" type="line" smooth="yes"/>
      <point x="1357" y="410"/>
      <point x="1315" y="313"/>
      <point x="1250" y="232" type="curve" smooth="yes"/>
      <point x="1185" y="151"/>
      <point x="1102" y="89"/>
      <point x="1001" y="46" type="curve" smooth="yes"/>
      <point x="900" y="3"/>
      <point x="788" y="-18"/>
    </contour>
  </outline>
</glyph>
<glyph name="V" format="2">
  <advance width="1628"/>
  <unicode hex="0056"/>
  <anchor x="820" y="0" name="m.uni0326"/>
  <anchor x="1067" y="1490" name="m.uni030F_1"/>
  <outline>
    <contour>
      <point x="453" y="0" type="line"/>
      <point x="200" y="1490" type="line"/>
      <point x="658" y="1490" type="line"/>
      <point x="735" y="912" type="line" smooth="yes"/>
      <point x="752" y="787"/>
      <point x="766" y="659"/>
      <point x="776" y="530" type="curve" smooth="yes"/>
      <point x="785" y="400"/>
      <point x="793" y="268"/>
      <point x="800" y="135" type="curve"/>
      <point x="710" y="135" type="line"/>
      <point x="811" y="402"/>
      <point x="910" y="661"/>
      <point x="1023" y="912" type="curve" smooth="yes"/>
      <point x="1284" y="1490" type="line"/>
      <point x="1736" y="1490" type="line"/>
      <point x="1005" y="0" type="line"/>
    </contour>
  </outline>
</glyph>
<glyph name="X" format="2">
  <advance width="1610"/>
  <unicode hex="0058"/>
  <anchor x="807" y="-6" name="m.uni0326"/>
  <anchor x="1055" y="1490" name="m.uni030F_1"/>
  <outline>
    <contour>
      <point x="-47" y="0" type="line"/>
      <point x="746" y="911" type="line"/>
      <point x="695" y="602" type="line"/>
      <point x="260" y="1490" type="line"/>
      <point x="715" y="1490" type="line"/>
      <point x="802" y="1296" type="line" smooth="yes"/>
      <point x="823" y="1249"/>
      <point x="840" y="1204"/>
      <point x="852" y="1161" type="curve" smooth="yes"/>
      <point x="876" y="1075"/>
      <point x="890" y="998"/>
      <point x="917" y="931" type="curve"/>
      <point x="795" y="931" type="line"/>
      <point x="820" y="964"/>
      <point x="844" y="1000"/>
      <point x="867" y="1039" type="curve" smooth="yes"/>
      <point x="889" y="1077"/>
      <point x="913" y="1118"/>
      <point x="940" y="1161" type="curve" smooth="yes"/>
      <point x="967" y="1204"/>
      <point x="999" y="1249"/>
      <point x="1036" y="1296" type="curve" smooth="yes"/>
      <point x="1189" y="1490" type="line"/>
      <point x="1660" y="1490" type="line"/>
      <point x="953" y="626" type="line"/>
      <point x="1000" y="915" type="line"/>
      <point x="1471" y="0" type="line"/>
      <point x="996" y="0" type="line"/>
      <point x="876" y="256" type="line" smooth="yes"/>
      <point x="857" y="299"/>
      <point x="842" y="335"/>
      <point x="832" y="364" type="curve" smooth="yes"/>
      <point x="811" y="422"/>
      <point x="801" y="464"/>
      <point x="777" y="515" type="curve"/>
      <point x="831" y="515" type="line"/>
      <point x="812" y="490"/>
      <point x="795" y="465"/>
      <point x="780" y="442" type="curve" smooth="yes"/>
      <point x="750" y="394"/>
      <point x="715" y="340"/>
      <point x="644" y="256" type="curve" smooth="yes"/>
      <point x="431" y="0" type="line"/>
    </contour>
  </outline>
</glyph>
<glyph name="Y" format="2">
  <advance width="1588"/>
  <unicode hex="0059"/>
  <anchor x="744" y="0" name="m.uni0326"/>
  <anchor x="990" y="1490" name="m.uni030F_1"/>
  <anchor x="1004" y="0" name="m.uni0328_4"/>
  <outline>
    <contour>
      <point x="508" y="0" type="line"/>
      <point x="594" y="518" type="line"/>
      <point x="200" y="1490" type="line"/>
      <point x="675" y="1490" type="line"/>
      <point x="815" y="1040" type="line"/>
      <point x="835" y="979"/>
      <point x="859" y="850"/>
      <point x="869" y="768" type="qcurve"/>
      <point x="810" y="768" type="line"/>
      <point x="845" y="850"/>
      <point x="910" y="979"/>
      <point x="947" y="1040" type="qcurve" smooth="yes"/>
      <point x="1223" y="1490" type="line"/>
      <point x="1696" y="1490" type="line"/>
      <point x="996" y="518" type="line"/>
      <point x="910" y="0" type="line"/>
    </contour>
  </outline>
</glyph>
<glyph name="Z" format="2">
  <advance width="1423"/>
  <unicode hex="005A"/>
  <anchor x="656" y="0" name="m.uni0326"/>
  <anchor x="911" y="1490" name="m.uni030F_1"/>
  <outline>
    <contour>
      <point x="10" y="0" type="line"/>
      <point x="47" y="224" type="line"/>
      <point x="907" y="1164" type="line"/>
      <point x="205" y="1164" type="line"/>
      <point x="259" y="1490" type="line"/>
      <point x="1475" y="1490" type="line"/>
      <point x="1438" y="1266" type="line"/>
      <point x="578" y="326" type="line"/>
      <point x="1280" y="326" type="line"/>
      <point x="1226" y="0" type="line"/>
    </contour>
  </outline>
</glyph>
<glyph name="a" format="2">
  <advance width="1210"/>
  <unicode hex="0061"/>
  <anchor x="509" y="0" name="m.uniF6C3"/>
  <anchor x="739" y="1303" name="m.uni030F_1"/>
  <outline>
    <contour>
      <point x="317" y="-17" type="curve" smooth="yes"/>
      <point x="153" y="-17"/>
      <point x="2" y="49"/>
      <point x="2" y="235" type="curve" smooth="yes"/>
      <point x="2" y="542"/>
      <point x="246" y="654"/>
      <point x="516" y="669" type="curve" smooth="yes"/>
      <point x="741" y="681" type="line"/>
      <point x="746" y="714"/>
      <point x="755" y="747"/>
      <point x="755" y="780" type="curve" smooth="yes"/>
      <point x="755" y="838"/>
      <point x="696" y="855"/>
      <point x="649" y="855" type="curve" smooth="yes"/>
      <point x="578" y="855"/>
      <point x="516" y="826"/>
      <point x="495" y="753" type="curve"/>
      <point x="135" y="788" type="line"/>
      <point x="213" y="1033"/>
      <point x="463" y="1132"/>
      <point x="701" y="1132" type="curve" smooth="yes"/>
      <point x="896" y="1132"/>
      <point x="1159" y="1056"/>
      <point x="1159" y="818" type="curve" smooth="yes"/>
      <point x="1159" y="800"/>
      <point x="1158" y="783"/>
      <point x="1155" y="765" type="curve" smooth="yes"/>
      <point x="1027" y="0" type="line"/>
      <point x="963" y="0"/>
      <point x="729" y="0"/>
      <point x="652" y="0" type="curve"/>
      <point x="657" y="31"/>
      <point x="673" y="129"/>
      <point x="678" y="157" type="curve"/>
      <point x="677" y="157"/>
      <point x="671" y="157"/>
      <point x="669" y="157" type="curve"/>
      <point x="581" y="31"/>
      <point x="468" y="-17"/>
    </contour>
    <contour>
      <point x="492" y="236" type="curve" smooth="yes"/>
      <point x="588" y="236"/>
      <point x="678" y="299"/>
      <point x="695" y="396" type="curve" smooth="yes"/>
      <point x="708" y="474" type="line"/>
      <point x="557" y="453" type="line" smooth="yes"/>
      <point x="470" y="441"/>
      <point x="388" y="400"/>
      <point x="388" y="315" type="curve" smooth="yes"/>
      <point x="388" y="256"/>
      <point x="441" y="236"/>
    </contour>
  </outline>
</glyph>
<glyph name="d" format="2">
  <advance width="1322"/>
  <unicode hex="0064"/>
  <outline>
    <contour>
      <point x="428" y="-14" type="qcurve" smooth="yes"/>
      <point x="268" y="-14"/>
      <point x="52" y="206"/>
      <point x="52" y="426" type="qcurve" smooth="yes"/>
      <point x="52" y="553"/>
      <point x="119" y="803"/>
      <point x="251" y="1009"/>
      <point x="445" y="1132"/>
      <point x="572" y="1132" type="qcurve" smooth="yes"/>
      <point x="638" y="1132"/>
      <point x="740" y="1095"/>
      <point x="813" y="1032"/>
      <point x="857" y="953"/>
      <point x="866" y="910" type="qcurve"/>
      <point x="876" y="910" type="line"/>
      <point x="972" y="1490" type="line"/>
      <point x="1374" y="1490" type="line"/>
      <point x="1127" y="0" type="line"/>
      <point x="729" y="0" type="line"/>
      <point x="763" y="184" type="line"/>
      <point x="750" y="184" type="line"/>
      <point x="718" y="120"/>
      <point x="623" y="32"/>
      <point x="501" y="-14"/>
    </contour>
    <contour>
      <point x="586" y="294" type="qcurve" smooth="yes"/>
      <point x="648" y="294"/>
      <point x="742" y="363"/>
      <point x="806" y="475"/>
      <point x="839" y="603"/>
      <point x="839" y="663" type="qcurve" smooth="yes"/>
      <point x="839" y="740"/>
      <point x="775" y="824"/>
      <point x="714" y="824" type="qcurve" smooth="yes"/>
      <point x="651" y="824"/>
      <point x="557" y="753"/>
      <point x="495" y="639"/>
      <point x="464" y="509"/>
      <point x="464" y="450" type="qcurve" smooth="yes"/>
      <point x="464" y="375"/>
      <point x="525" y="294"/>
    </contour>
  </outline>
</glyph>
<glyph name="e" format="2">
  <advance width="1245"/>
  <unicode hex="0065"/>
  <anchor x="529" y="0" name="m.uniF6C3"/>
  <anchor x="745" y="1303" name="m.uni030F_1"/>
  <outline>
    <contour>
      <point x="541" y="-20" type="curve" smooth="yes"/>
      <point x="257" y="-20"/>
      <point x="49" y="120"/>
      <point x="49" y="423" type="curve" smooth="yes"/>
      <point x="49" y="817"/>
      <point x="321" y="1132"/>
      <point x="724" y="1132" type="curve" smooth="yes"/>
      <point x="1006" y="1132"/>
      <point x="1195" y="977"/>
      <point x="1195" y="686" type="curve" smooth="yes"/>
      <point x="1195" y="612"/>
      <point x="1181" y="539"/>
      <point x="1169" y="465" type="curve"/>
      <point x="172" y="465" type="line"/>
      <point x="207" y="687" type="line"/>
      <point x="835" y="687" type="line"/>
      <point x="836" y="696"/>
      <point x="837" y="705"/>
      <point x="837" y="715" type="curve" smooth="yes"/>
      <point x="837" y="801"/>
      <point x="771" y="849"/>
      <point x="689" y="849" type="curve" smooth="yes"/>
      <point x="590" y="849"/>
      <point x="502" y="780"/>
      <point x="483" y="681" type="curve" smooth="yes"/>
      <point x="469" y="609"/>
      <point x="436" y="479"/>
      <point x="436" y="410" type="curve" smooth="yes"/>
      <point x="436" y="311"/>
      <point x="503" y="262"/>
      <point x="596" y="262" type="curve" smooth="yes"/>
      <point x="676" y="262"/>
      <point x="746" y="289"/>
      <point x="785" y="361" type="curve"/>
      <point x="1143" y="334" type="line"/>
      <point x="1038" y="84"/>
      <point x="801" y="-20"/>
    </contour>
  </outline>
</glyph>
<glyph name="f" format="2">
  <advance width="902"/>
  <unicode hex="0066"/>
  <anchor x="428" y="0" name="m.uni0326"/>
  <anchor x="829" y="1538" name="m.uni030F_1"/>
  <outline>
    <contour>
      <point x="936" y="1118" type="line"/>
      <point x="887" y="826" type="line"/>
      <point x="64" y="826" type="line"/>
      <point x="113" y="1118" type="line"/>
    </contour>
    <contour>
      <point x="121" y="0" type="line"/>
      <point x="301" y="1090" type="line" smooth="yes"/>
      <point x="326" y="1242"/>
      <point x="467" y="1450"/>
      <point x="691" y="1558"/>
      <point x="840" y="1558" type="qcurve" smooth="yes"/>
      <point x="897" y="1558"/>
      <point x="990" y="1549"/>
      <point x="1039" y="1536" type="qcurve"/>
      <point x="941" y="1248" type="line"/>
      <point x="917" y="1252"/>
      <point x="875" y="1256"/>
      <point x="836" y="1256" type="qcurve" smooth="yes"/>
      <point x="781" y="1256"/>
      <point x="722" y="1204"/>
      <point x="713" y="1150" type="qcurve" smooth="yes"/>
      <point x="523" y="0" type="line"/>
    </contour>
  </outline>
</glyph>
<glyph name="g" format="2">
  <advance width="1327"/>
  <unicode hex="0067"/>
  <outline>
    <contour>
      <point x="492" y="-442" type="qcurve" smooth="yes"/>
      <point x="334" y="-442"/>
      <point x="109" y="-358"/>
      <point x="-11" y="-211"/>
      <point x="-11" y="-115" type="qcurve"/>
      <point x="343" y="-89" type="line"/>
      <point x="344" y="-119"/>
      <point x="381" y="-155"/>
      <point x="447" y="-172"/>
      <point x="493" y="-172" type="qcurve" smooth="yes"/>
      <point x="599" y="-172"/>
      <point x="723" y="-73"/>
      <point x="739" y="15" type="qcurve" smooth="yes"/>
      <point x="772" y="192" type="line"/>
      <point x="734" y="192" type="line"/>
      <point x="703" y="136"/>
      <point x="616" y="56"/>
      <point x="504" y="14"/>
      <point x="433" y="14" type="qcurve" smooth="yes"/>
      <point x="327" y="14"/>
      <point x="154" y="102"/>
      <point x="53" y="286"/>
      <point x="53" y="430" type="qcurve" smooth="yes"/>
      <point x="53" y="557"/>
      <point x="121" y="806"/>
      <point x="254" y="1010"/>
      <point x="449" y="1132"/>
      <point x="575" y="1132" type="qcurve" smooth="yes"/>
      <point x="641" y="1132"/>
      <point x="745" y="1095"/>
      <point x="820" y="1032"/>
      <point x="867" y="953"/>
      <point x="876" y="910" type="qcurve"/>
      <point x="885" y="910" type="line"/>
      <point x="920" y="1118" type="line"/>
      <point x="1318" y="1118" type="line"/>
      <point x="1137" y="29" type="line" smooth="yes"/>
      <point x="1111" y="-128"/>
      <point x="936" y="-338"/>
      <point x="664" y="-442"/>
    </contour>
    <contour>
      <point x="588" y="300" type="qcurve" smooth="yes"/>
      <point x="651" y="300"/>
      <point x="746" y="368"/>
      <point x="809" y="477"/>
      <point x="840" y="604"/>
      <point x="840" y="663" type="qcurve" smooth="yes"/>
      <point x="840" y="741"/>
      <point x="777" y="824"/>
      <point x="715" y="824" type="qcurve" smooth="yes"/>
      <point x="653" y="824"/>
      <point x="559" y="753"/>
      <point x="496" y="641"/>
      <point x="465" y="512"/>
      <point x="465" y="453" type="qcurve" smooth="yes"/>
      <point x="465" y="377"/>
      <point x="527" y="300"/>
    </contour>
  </outline>
</glyph>
<glyph name="h" format="2">
  <advance width="1330"/>
  <unicode hex="0068"/>
  <anchor x="644" y="0" name="m.uni0326"/>
  <anchor x="524" y="1490" name="m.uni030F_1"/>
  <anchor x="290" y="0" name="m.uni0327_3"/>
  <outline>
    <contour>
      <point x="515" y="628" type="curve" smooth="yes"/>
      <point x="411" y="0" type="line"/>
      <point x="9" y="0" type="line"/>
      <point x="256" y="1490" type="line"/>
      <point x="648" y="1490" type="line"/>
      <point x="539" y="832" type="line"/>
      <point x="520" y="832" type="line"/>
      <point x="547" y="889"/>
      <point x="578" y="940"/>
      <point x="613" y="985" type="curve" smooth="yes"/>
      <point x="684" y="1075"/>
      <point x="780" y="1132"/>
      <point x="916" y="1132" type="curve" smooth="yes"/>
      <point x="995" y="1132"/>
      <point x="1063" y="1114"/>
      <point x="1118" y="1078" type="curve" smooth="yes"/>
      <point x="1228" y="1006"/>
      <point x="1280" y="875"/>
      <point x="1253" y="712" type="curve" smooth="yes"/>
      <point x="1135" y="0" type="line"/>
      <point x="733" y="0" type="line"/>
      <point x="837" y="628" type="line" smooth="yes"/>
      <point x="846" y="683"/>
      <point x="840" y="727"/>
      <point x="817" y="759" type="curve" smooth="yes"/>
      <point x="794" y="790"/>
      <point x="757" y="806"/>
      <point x="706" y="806" type="curve" smooth="yes"/>
      <point x="673" y="806"/>
      <point x="644" y="799"/>
      <point x="617" y="785" type="curve" smooth="yes"/>
      <point x="564" y="756"/>
      <point x="527" y="703"/>
    </contour>
  </outline>
</glyph>
<glyph name="l.ss02" format="2">
  <advance width="691"/>
  <unicode hex="006C"/>
  <unicode hex="E050"/>
  <anchor x="331" y="0" name="m.uni0326"/>
  <anchor x="532" y="1490" name="m.uni030F_1"/>
  <outline>
    <contour>
      <point x="410" y="-6" type="curve" smooth="yes"/>
      <point x="270" y="-6"/>
      <point x="173" y="21"/>
      <point x="118" y="74" type="curve" smooth="yes"/>
      <point x="63" y="127"/>
      <point x="44" y="211"/>
      <point x="63" y="326" type="curve" smooth="yes"/>
      <point x="256" y="1490" type="line"/>
      <point x="658" y="1490" type="line"/>
      <point x="471" y="364" type="line" smooth="yes"/>
      <point x="464" y="319"/>
      <point x="486" y="294"/>
      <point x="534" y="294" type="curve" smooth="yes"/>
      <point x="561" y="294"/>
      <point x="576" y="296"/>
      <point x="585" y="300" type="curve"/>
      <point x="597" y="24" type="line"/>
      <point x="564" y="12"/>
      <point x="497" y="-6"/>
    </contour>
  </outline>
</glyph>
<glyph name="m" format="2">
  <advance width="1932"/>
  <unicode hex="006D"/>
  <anchor x="922" y="0" name="m.uni0326"/>
  <anchor x="1106" y="1118" name="m.uni030F_1"/>
  <outline>
    <contour>
      <point x="9" y="0" type="line"/>
      <point x="195" y="1118" type="line"/>
      <point x="561" y="1118" type="line"/>
      <point x="538" y="816" type="line"/>
      <point x="509" y="829" type="line"/>
      <point x="555" y="943"/>
      <point x="677" y="1075"/>
      <point x="817" y="1132"/>
      <point x="888" y="1132" type="qcurve" smooth="yes"/>
      <point x="973" y="1132"/>
      <point x="1086" y="1058"/>
      <point x="1149" y="899"/>
      <point x="1158" y="771" type="qcurve"/>
      <point x="1118" y="797" type="line"/>
      <point x="1168" y="925"/>
      <point x="1308" y="1071"/>
      <point x="1466" y="1132"/>
      <point x="1544" y="1132" type="qcurve" smooth="yes"/>
      <point x="1656" y="1132"/>
      <point x="1811" y="1032"/>
      <point x="1879" y="856"/>
      <point x="1860" y="741" type="qcurve" smooth="yes"/>
      <point x="1737" y="0" type="line"/>
      <point x="1335" y="0" type="line"/>
      <point x="1446" y="665" type="line" smooth="yes"/>
      <point x="1458" y="738"/>
      <point x="1409" y="808"/>
      <point x="1354" y="808" type="qcurve" smooth="yes"/>
      <point x="1308" y="808"/>
      <point x="1230" y="764"/>
      <point x="1179" y="688"/>
      <point x="1171" y="639" type="qcurve" smooth="yes"/>
      <point x="1065" y="0" type="line"/>
      <point x="681" y="0" type="line"/>
      <point x="792" y="665" type="line" smooth="yes"/>
      <point x="804" y="738"/>
      <point x="754" y="808"/>
      <point x="700" y="808" type="qcurve" smooth="yes"/>
      <point x="653" y="808"/>
      <point x="576" y="764"/>
      <point x="525" y="688"/>
      <point x="517" y="639" type="qcurve" smooth="yes"/>
      <point x="411" y="0" type="line"/>
    </contour>
  </outline>
</glyph>
<glyph name="o" format="2">
  <advance width="1280"/>
  <unicode hex="006F"/>
  <anchor x="607" y="0" name="m.uni0326"/>
  <anchor x="793" y="1118" name="m.uni030F_1"/>
  <anchor x="1364" y="558" name="m.uni0328_4"/>
  <outline>
    <contour>
      <point x="566" y="-20" type="curve" smooth="yes"/>
      <point x="456" y="-20"/>
      <point x="363" y="0"/>
      <point x="287" y="39" type="curve" smooth="yes"/>
      <point x="135" y="118"/>
      <point x="55" y="264"/>
      <point x="55" y="455" type="curve" smooth="yes"/>
      <point x="55" y="636"/>
      <point x="115" y="804"/>
      <point x="228" y="930" type="curve" smooth="yes"/>
      <point x="340" y="1056"/>
      <point x="504" y="1132"/>
      <point x="715" y="1132" type="curve" smooth="yes"/>
      <point x="824" y="1132"/>
      <point x="917" y="1112"/>
      <point x="993" y="1073" type="curve" smooth="yes"/>
      <point x="1144" y="994"/>
      <point x="1224" y="848"/>
      <point x="1224" y="657" type="curve" smooth="yes"/>
      <point x="1224" y="477"/>
      <point x="1166" y="310"/>
      <point x="1054" y="184" type="curve" smooth="yes"/>
      <point x="942" y="58"/>
      <point x="778" y="-20"/>
    </contour>
    <contour>
      <point x="582" y="280" type="curve" smooth="yes"/>
      <point x="671" y="280"/>
      <point x="732" y="343"/>
      <point x="769" y="428" type="curve" smooth="yes"/>
      <point x="805" y="512"/>
      <point x="820" y="609"/>
      <point x="820" y="676" type="curve" smooth="yes"/>
      <point x="820" y="711"/>
      <point x="815" y="740"/>
      <point x="805" y="763" type="curve" smooth="yes"/>
      <point x="785" y="809"/>
      <point x="748" y="832"/>
      <point x="699" y="832" type="curve" smooth="yes"/>
      <point x="608" y="832"/>
      <point x="547" y="771"/>
      <point x="511" y="688" type="curve" smooth="yes"/>
      <point x="474" y="604"/>
      <point x="459" y="509"/>
      <point x="459" y="441" type="curve" smooth="yes"/>
      <point x="459" y="389"/>
      <point x="470" y="349"/>
      <point x="493" y="322" type="curve"/>
      <point x="515" y="294"/>
      <point x="545" y="280"/>
    </contour>
  </outline>
</glyph>
<glyph name="r" format="2">
  <advance width="889"/>
  <unicode hex="0072"/>
  <anchor x="238" y="0" name="m.uni0326"/>
  <anchor x="671" y="1118" name="m.uni030F_1"/>
  <outline>
    <contour>
      <point x="10" y="0" type="line"/>
      <point x="195" y="1118" type="line"/>
      <point x="585" y="1118" type="line"/>
      <point x="550" y="904" type="line"/>
      <point x="562" y="904" type="line"/>
      <point x="612" y="1023"/>
      <point x="762" y="1132"/>
      <point x="851" y="1132" type="qcurve" smooth="yes"/>
      <point x="877" y="1132"/>
      <point x="928" y="1124"/>
      <point x="951" y="1116" type="qcurve"/>
      <point x="894" y="774" type="line"/>
      <point x="866" y="785"/>
      <point x="780" y="794"/>
      <point x="749" y="794" type="qcurve" smooth="yes"/>
      <point x="690" y="794"/>
      <point x="588" y="741"/>
      <point x="519" y="646"/>
      <point x="508" y="582" type="qcurve" smooth="yes"/>
      <point x="412" y="0" type="line"/>
    </contour>
  </outline>
</glyph>
<glyph name="t" format="2">
  <advance width="820"/>
  <unicode hex="0074"/>
  <anchor x="463" y="0" name="m.uni0326"/>
  <anchor x="612" y="1384" name="m.uni030F_1"/>
  <anchor x="544" y="0" name="m.uni0327_3"/>
  <outline>
    <contour>
      <point x="849" y="1118" type="line"/>
      <point x="801" y="826" type="line"/>
      <point x="65" y="826" type="line"/>
      <point x="113" y="1118" type="line"/>
    </contour>
    <contour>
      <point x="300" y="1384" type="line"/>
      <point x="702" y="1384" type="line"/>
      <point x="532" y="359" type="line" smooth="yes"/>
      <point x="525" y="312"/>
      <point x="544" y="289"/>
      <point x="597" y="289" type="curve" smooth="yes"/>
      <point x="609" y="289"/>
      <point x="627" y="291"/>
      <point x="650" y="294" type="curve" smooth="yes"/>
      <point x="673" y="297"/>
      <point x="689" y="299"/>
      <point x="697" y="302" type="curve"/>
      <point x="697" y="15" type="line"/>
      <point x="601" y="-10"/>
      <point x="519" y="-17"/>
      <point x="447" y="-17" type="curve" smooth="yes"/>
      <point x="322" y="-17"/>
      <point x="232" y="12"/>
      <point x="178" y="69" type="curve" smooth="yes"/>
      <point x="123" y="126"/>
      <point x="105" y="211"/>
      <point x="124" y="322" type="curve" smooth="yes"/>
    </contour>
  </outline>
</glyph>
<glyph name="u" format="2">
  <advance width="1331"/>
  <unicode hex="0075"/>
  <anchor x="643" y="0" name="m.uni0326"/>
  <anchor x="805" y="1118" name="m.uni030F_1"/>
  <anchor x="1261" y="0" name="m.uni0328_4"/>
  <outline>
    <contour>
      <point x="398" y="-14" type="qcurve" smooth="yes"/>
      <point x="280" y="-14"/>
      <point x="122" y="94"/>
      <point x="57" y="284"/>
      <point x="77" y="406" type="qcurve" smooth="yes"/>
      <point x="195" y="1118" type="line"/>
      <point x="597" y="1118" type="line"/>
      <point x="493" y="490" type="line"/>
      <point x="480" y="407"/>
      <point x="548" y="312"/>
      <point x="624" y="312" type="qcurve" smooth="yes"/>
      <point x="674" y="312"/>
      <point x="753" y="355"/>
      <point x="806" y="435"/>
      <point x="815" y="490" type="qcurve" smooth="yes"/>
      <point x="919" y="1118" type="line"/>
      <point x="1321" y="1118" type="line"/>
      <point x="1136" y="0" type="line"/>
      <point x="759" y="0" type="line"/>
      <point x="798" y="286" type="line"/>
      <point x="810" y="286" type="line"/>
      <point x="751" y="159"/>
      <point x="552" y="-14"/>
    </contour>
  </outline>
</glyph>
<glyph name="v" format="2">
  <advance width="1294"/>
  <unicode hex="0076"/>
  <anchor x="635" y="0" name="m.uni0326"/>
  <anchor x="809" y="1118" name="m.uni030F_1"/>
  <outline>
    <contour>
      <point x="318" y="0" type="line"/>
      <point x="105" y="1118" type="line"/>
      <point x="511" y="1118" type="line"/>
      <point x="572" y="608" type="line" smooth="yes"/>
      <point x="591" y="457"/>
      <point x="594" y="304"/>
      <point x="597" y="120" type="curve"/>
      <point x="534" y="120" type="line"/>
      <point x="597" y="304"/>
      <point x="650" y="456"/>
      <point x="718" y="608" type="curve" smooth="yes"/>
      <point x="943" y="1118" type="line"/>
      <point x="1375" y="1118" type="line"/>
      <point x="790" y="0" type="line"/>
    </contour>
  </outline>
</glyph>
<glyph name="w" format="2">
  <advance width="1796"/>
  <unicode hex="0077"/>
  <anchor x="922" y="0" name="m.uni0326"/>
  <anchor x="1115" y="1118" name="m.uni030F_1"/>
  <outline>
    <contour>
      <point x="228" y="0" type="line"/>
      <point x="91" y="1118" type="line"/>
      <point x="511" y="1118" type="line"/>
      <point x="517" y="768" type="line" smooth="yes"/>
      <point x="520" y="608"/>
      <point x="530" y="432"/>
      <point x="521" y="224" type="curve"/>
      <point x="484" y="224" type="line"/>
      <point x="551" y="432"/>
      <point x="624" y="609"/>
      <point x="684" y="768" type="curve" smooth="yes"/>
      <point x="817" y="1118" type="line"/>
      <point x="1165" y="1118" type="line"/>
      <point x="1178" y="768" type="line" smooth="yes"/>
      <point x="1185" y="608"/>
      <point x="1202" y="432"/>
      <point x="1198" y="224" type="curve"/>
      <point x="1163" y="224" type="line"/>
      <point x="1222" y="432"/>
      <point x="1285" y="608"/>
      <point x="1341" y="768" type="curve" smooth="yes"/>
      <point x="1463" y="1118" type="line"/>
      <point x="1891" y="1118" type="line"/>
      <point x="1380" y="0" type="line"/>
      <point x="968" y="0" type="line"/>
      <point x="923" y="368" type="line" smooth="yes"/>
      <point x="919" y="403"/>
      <point x="916" y="447"/>
      <point x="915" y="499" type="curve" smooth="yes"/>
      <point x="913" y="550"/>
      <point x="911" y="603"/>
      <point x="910" y="656" type="curve" smooth="yes"/>
      <point x="909" y="709"/>
      <point x="906" y="754"/>
      <point x="903" y="792" type="curve"/>
      <point x="967" y="792" type="line"/>
      <point x="951" y="754"/>
      <point x="934" y="709"/>
      <point x="915" y="656" type="curve" smooth="yes"/>
      <point x="896" y="603"/>
      <point x="878" y="550"/>
      <point x="859" y="499" type="curve" smooth="yes"/>
      <point x="840" y="447"/>
      <point x="823" y="403"/>
      <point x="807" y="368" type="curve" smooth="yes"/>
      <point x="640" y="0" type="line"/>
    </contour>
  </outline>
</glyph>
<glyph name="y" format="2">
  <advance width="1302"/>
  <unicode hex="0079"/>
  <anchor x="1127" y="0" name="m.uni0326"/>
  <anchor x="804" y="1118" name="m.uni030F_1"/>
  <anchor x="981" y="0" name="m.uni0328_4"/>
  <outline>
    <contour>
      <point x="-53" y="-388" type="curve"/>
      <point x="82" y="-102" type="line"/>
      <point x="132" y="-116" type="line" smooth="yes"/>
      <point x="174" y="-127"/>
      <point x="212" y="-131"/>
      <point x="245" y="-126" type="curve" smooth="yes"/>
      <point x="311" y="-116"/>
      <point x="349" y="-80"/>
      <point x="340" y="-33" type="curve" smooth="yes"/>
      <point x="334" y="-1" type="line"/>
      <point x="105" y="1118" type="line"/>
      <point x="519" y="1118" type="line"/>
      <point x="580" y="608" type="line" smooth="yes"/>
      <point x="589" y="531"/>
      <point x="592" y="454"/>
      <point x="591" y="377" type="curve" smooth="yes"/>
      <point x="590" y="299"/>
      <point x="590" y="213"/>
      <point x="592" y="120" type="curve"/>
      <point x="519" y="120" type="line"/>
      <point x="584" y="307"/>
      <point x="643" y="457"/>
      <point x="715" y="608" type="curve" smooth="yes"/>
      <point x="959" y="1118" type="line"/>
      <point x="1383" y="1118" type="line"/>
      <point x="720" y="-102" type="line" smooth="yes"/>
      <point x="687" y="-163"/>
      <point x="648" y="-218"/>
      <point x="601" y="-267" type="curve" smooth="yes"/>
      <point x="508" y="-365"/>
      <point x="378" y="-426"/>
      <point x="190" y="-426" type="curve" smooth="yes"/>
      <point x="98" y="-426"/>
      <point x="6" y="-412"/>
    </contour>
  </outline>
</glyph>
<glyph name="z" format="2">
  <advance width="1208"/>
  <unicode hex="007A"/>
  <outline>
    <contour>
      <point x="21" y="0" type="line"/>
      <point x="58" y="222" type="line"/>
      <point x="634" y="806" type="line"/>
      <point x="635" y="812" type="line"/>
      <point x="171" y="812" type="line"/>
      <point x="222" y="1118" type="line"/>
      <point x="1168" y="1118" type="line"/>
      <point x="1127" y="872" type="line"/>
      <point x="599" y="312" type="line"/>
      <point x="598" y="306" type="line"/>
      <point x="1052" y="306" type="line"/>
      <point x="1001" y="0" type="line"/>
    </contour>
  </outline>
</glyph>
<glyph name="braceleft" format="2">
  <advance width="1035"/>
  <unicode hex="007B"/>
  <outline>
    <contour>
      <point x="148" y="627" type="curve"/>
      <point x="181" y="825" type="line"/>
      <point x="266" y="825"/>
      <point x="327" y="842"/>
      <point x="366" y="876" type="curve" smooth="yes"/>
      <point x="405" y="909"/>
      <point x="430" y="962"/>
      <point x="441" y="1033" type="curve" smooth="yes"/>
      <point x="463" y="1161" type="line" smooth="yes"/>
      <point x="480" y="1266"/>
      <point x="510" y="1347"/>
      <point x="552" y="1405" type="curve" smooth="yes"/>
      <point x="594" y="1462"/>
      <point x="645" y="1503"/>
      <point x="705" y="1528" type="curve" smooth="yes"/>
      <point x="765" y="1553"/>
      <point x="831" y="1568"/>
      <point x="902" y="1573" type="curve" smooth="yes"/>
      <point x="973" y="1578"/>
      <point x="1045" y="1581"/>
      <point x="1120" y="1581" type="curve"/>
      <point x="1072" y="1289" type="line"/>
      <point x="985" y="1289"/>
      <point x="925" y="1274"/>
      <point x="892" y="1245" type="curve" smooth="yes"/>
      <point x="859" y="1216"/>
      <point x="838" y="1170"/>
      <point x="828" y="1109" type="curve" smooth="yes"/>
      <point x="802" y="949" type="line" smooth="yes"/>
      <point x="790" y="877"/>
      <point x="754" y="797"/>
      <point x="660" y="734" type="curve" smooth="yes"/>
      <point x="566" y="670"/>
      <point x="407" y="627"/>
    </contour>
    <contour>
      <point x="812" y="-279" type="line"/>
      <point x="737" y="-279"/>
      <point x="665" y="-276"/>
      <point x="596" y="-271" type="curve" smooth="yes"/>
      <point x="527" y="-266"/>
      <point x="466" y="-251"/>
      <point x="415" y="-226" type="curve" smooth="yes"/>
      <point x="363" y="-201"/>
      <point x="326" y="-160"/>
      <point x="303" y="-103" type="curve" smooth="yes"/>
      <point x="280" y="-45"/>
      <point x="277" y="36"/>
      <point x="294" y="141" type="curve" smooth="yes"/>
      <point x="315" y="269" type="line" smooth="yes"/>
      <point x="327" y="340"/>
      <point x="319" y="393"/>
      <point x="292" y="427" type="curve"/>
      <point x="264" y="460"/>
      <point x="208" y="477"/>
      <point x="123" y="477" type="curve"/>
      <point x="156" y="675" type="line"/>
      <point x="285" y="675"/>
      <point x="388" y="665"/>
      <point x="464" y="646" type="curve" smooth="yes"/>
      <point x="540" y="626"/>
      <point x="596" y="600"/>
      <point x="632" y="569" type="curve" smooth="yes"/>
      <point x="668" y="537"/>
      <point x="690" y="502"/>
      <point x="699" y="464" type="curve" smooth="yes"/>
      <point x="708" y="426"/>
      <point x="709" y="389"/>
      <point x="703" y="353" type="curve" smooth="yes"/>
      <point x="676" y="193" type="line" smooth="yes"/>
      <point x="666" y="132"/>
      <point x="673" y="87"/>
      <point x="696" y="58" type="curve" smooth="yes"/>
      <point x="719" y="28"/>
      <point x="774" y="13"/>
      <point x="861" y="13" type="curve"/>
    </contour>
    <contour>
      <point x="123" y="477" type="line"/>
      <point x="181" y="825" type="line"/>
      <point x="521" y="825" type="line"/>
      <point x="463" y="477" type="line"/>
    </contour>
  </outline>
</glyph>
<glyph name="braceright" format="2">
  <advance width="1035"/>
  <unicode hex="007D"/>
  <outline>
    <contour>
      <point x="908" y="627" type="line"/>
      <point x="651" y="627"/>
      <point x="505" y="670"/>
      <point x="433" y="734" type="curve" smooth="yes"/>
      <point x="397" y="765"/>
      <point x="375" y="800"/>
      <point x="367" y="838" type="curve" smooth="yes"/>
      <point x="358" y="876"/>
      <point x="357" y="913"/>
      <point x="363" y="949" type="curve" smooth="yes"/>
      <point x="389" y="1109" type="line" smooth="yes"/>
      <point x="399" y="1170"/>
      <point x="393" y="1216"/>
      <point x="370" y="1245" type="curve" smooth="yes"/>
      <point x="347" y="1274"/>
      <point x="292" y="1289"/>
      <point x="205" y="1289" type="curve"/>
      <point x="253" y="1581" type="line"/>
      <point x="328" y="1581"/>
      <point x="401" y="1578"/>
      <point x="470" y="1573" type="curve" smooth="yes"/>
      <point x="539" y="1568"/>
      <point x="600" y="1553"/>
      <point x="652" y="1528" type="curve" smooth="yes"/>
      <point x="704" y="1503"/>
      <point x="742" y="1462"/>
      <point x="765" y="1405" type="curve" smooth="yes"/>
      <point x="788" y="1347"/>
      <point x="790" y="1266"/>
      <point x="772" y="1161" type="curve" smooth="yes"/>
      <point x="750" y="1033" type="line" smooth="yes"/>
      <point x="737" y="962"/>
      <point x="745" y="909"/>
      <point x="773" y="876" type="curve" smooth="yes"/>
      <point x="801" y="842"/>
      <point x="857" y="825"/>
      <point x="942" y="825" type="curve"/>
    </contour>
    <contour>
      <point x="-55" y="-279" type="curve"/>
      <point x="-6" y="13" type="line"/>
      <point x="81" y="13"/>
      <point x="141" y="28"/>
      <point x="173" y="58" type="curve" smooth="yes"/>
      <point x="205" y="87"/>
      <point x="226" y="132"/>
      <point x="237" y="193" type="curve" smooth="yes"/>
      <point x="264" y="353" type="line" smooth="yes"/>
      <point x="276" y="425"/>
      <point x="313" y="505"/>
      <point x="406" y="569" type="curve" smooth="yes"/>
      <point x="498" y="632"/>
      <point x="659" y="675"/>
      <point x="916" y="675" type="curve"/>
      <point x="884" y="477" type="line"/>
      <point x="799" y="477"/>
      <point x="738" y="460"/>
      <point x="699" y="427" type="curve" smooth="yes"/>
      <point x="660" y="393"/>
      <point x="635" y="340"/>
      <point x="624" y="269" type="curve" smooth="yes"/>
      <point x="603" y="141" type="line" smooth="yes"/>
      <point x="586" y="36"/>
      <point x="556" y="-45"/>
      <point x="514" y="-103" type="curve" smooth="yes"/>
      <point x="471" y="-160"/>
      <point x="420" y="-201"/>
      <point x="361" y="-226" type="curve" smooth="yes"/>
      <point x="301" y="-251"/>
      <point x="236" y="-266"/>
      <point x="165" y="-271" type="curve" smooth="yes"/>
      <point x="94" y="-276"/>
      <point x="20" y="-279"/>
    </contour>
    <contour>
      <point x="884" y="477" type="line"/>
      <point x="544" y="477" type="line"/>
      <point x="602" y="825" type="line"/>
      <point x="942" y="825" type="line"/>
    </contour>
  </outline>
</glyph>
<glyph name="asciitilde" format="2">
  <advance width="1420"/>
  <unicode hex="007E"/>
  <outline>
    <contour>
      <point x="120" y="376" type="line"/>
      <point x="137" y="526"/>
      <point x="243" y="745"/>
      <point x="415" y="864"/>
      <point x="530" y="864" type="qcurve" smooth="yes"/>
      <point x="595" y="864"/>
      <point x="710" y="812"/>
      <point x="780" y="742" type="qcurve" smooth="yes"/>
      <point x="810" y="711"/>
      <point x="857" y="672"/>
      <point x="894" y="672" type="qcurve" smooth="yes"/>
      <point x="939" y="672"/>
      <point x="1013" y="748"/>
      <point x="1026" y="834" type="qcurve"/>
      <point x="1318" y="834" type="line"/>
      <point x="1299" y="686"/>
      <point x="1188" y="467"/>
      <point x="1015" y="346"/>
      <point x="904" y="346" type="qcurve" smooth="yes"/>
      <point x="833" y="346"/>
      <point x="716" y="404"/>
      <point x="652" y="468" type="qcurve" smooth="yes"/>
      <point x="617" y="503"/>
      <point x="579" y="538"/>
      <point x="542" y="538" type="qcurve" smooth="yes"/>
      <point x="496" y="538"/>
      <point x="421" y="463"/>
      <point x="410" y="376" type="qcurve"/>
    </contour>
  </outline>
</glyph>
<glyph name="exclamdown" format="2">
  <advance width="776"/>
  <unicode hex="00A1"/>
  <outline>
    <contour>
      <point x="586" y="652" type="line"/>
      <point x="446" y="-372" type="line"/>
      <point x="22" y="-372" type="line"/>
      <point x="222" y="652" type="line"/>
    </contour>
    <contour>
      <point x="685" y="1118" type="line"/>
      <point x="621" y="767" type="line"/>
      <point x="213" y="767" type="line"/>
      <point x="277" y="1118" type="line"/>
    </contour>
  </outline>
</glyph>
<glyph name="cent" format="2">
  <advance width="1233"/>
  <unicode hex="00A2"/>
  <anchor x="627" y="191" name="m.uni0326"/>
  <anchor x="821" y="1309" name="m.uni030F_1"/>
  <anchor x="629" y="191" name="m.uni0327_3"/>
  <outline>
    <contour>
      <point x="491" y="0" type="line"/>
      <point x="738" y="1490" type="line"/>
      <point x="858" y="1490" type="line"/>
      <point x="611" y="0" type="line"/>
    </contour>
    <contour>
      <point x="596" y="170" type="curve" smooth="yes"/>
      <point x="489" y="170"/>
      <point x="398" y="190"/>
      <point x="322" y="230" type="curve" smooth="yes"/>
      <point x="170" y="310"/>
      <point x="87" y="458"/>
      <point x="87" y="651" type="curve" smooth="yes"/>
      <point x="87" y="819"/>
      <point x="140" y="985"/>
      <point x="249" y="1113" type="curve" smooth="yes"/>
      <point x="357" y="1241"/>
      <point x="522" y="1322"/>
      <point x="745" y="1322" type="curve" smooth="yes"/>
      <point x="900" y="1322"/>
      <point x="1024" y="1281"/>
      <point x="1110" y="1207" type="curve" smooth="yes"/>
      <point x="1196" y="1133"/>
      <point x="1239" y="1026"/>
      <point x="1231" y="897" type="curve"/>
      <point x="852" y="842" type="line"/>
      <point x="852" y="901"/>
      <point x="847" y="945"/>
      <point x="831" y="976" type="curve" smooth="yes"/>
      <point x="815" y="1007"/>
      <point x="787" y="1022"/>
      <point x="743" y="1022" type="curve" smooth="yes"/>
      <point x="650" y="1022"/>
      <point x="586" y="965"/>
      <point x="547" y="884" type="curve" smooth="yes"/>
      <point x="508" y="803"/>
      <point x="492" y="708"/>
      <point x="492" y="632" type="curve" smooth="yes"/>
      <point x="492" y="597"/>
      <point x="496" y="567"/>
      <point x="505" y="543" type="curve"/>
      <point x="521" y="494"/>
      <point x="557" y="470"/>
      <point x="610" y="470" type="curve" smooth="yes"/>
      <point x="654" y="470"/>
      <point x="698" y="486"/>
      <point x="735" y="518" type="curve" smooth="yes"/>
      <point x="772" y="549"/>
      <point x="803" y="596"/>
      <point x="822" y="656" type="curve"/>
      <point x="1182" y="602" type="line"/>
      <point x="1146" y="469"/>
      <point x="1078" y="362"/>
      <point x="979" y="287" type="curve" smooth="yes"/>
      <point x="879" y="211"/>
      <point x="751" y="170"/>
    </contour>
  </outline>
</glyph>
<glyph name="sterling" format="2">
  <advance width="1380"/>
  <unicode hex="00A3"/>
  <outline>
    <contour>
      <point x="36" y="282" type="qcurve"/>
      <point x="43" y="328" type="line"/>
      <point x="121" y="328"/>
      <point x="229" y="388"/>
      <point x="235" y="448" type="qcurve" smooth="yes"/>
      <point x="284" y="964" type="line" smooth="yes"/>
      <point x="301" y="1145"/>
      <point x="471" y="1389"/>
      <point x="733" y="1514"/>
      <point x="887" y="1514" type="qcurve" smooth="yes"/>
      <point x="1025" y="1514"/>
      <point x="1239" y="1412"/>
      <point x="1361" y="1222"/>
      <point x="1362" y="1089" type="qcurve"/>
      <point x="979" y="1032" type="line"/>
      <point x="982" y="1112"/>
      <point x="923" y="1186"/>
      <point x="856" y="1186" type="qcurve" smooth="yes"/>
      <point x="800" y="1186"/>
      <point x="724" y="1145"/>
      <point x="679" y="1057"/>
      <point x="670" y="988" type="qcurve" smooth="yes"/>
      <point x="610" y="524" type="line" smooth="yes"/>
      <point x="599" y="439"/>
      <point x="490" y="340"/>
      <point x="338" y="293"/>
      <point x="181" y="279"/>
      <point x="59" y="282"/>
    </contour>
    <contour>
      <point x="-12" y="0" type="line"/>
      <point x="42" y="328" type="line"/>
      <point x="850" y="328" type="line" smooth="yes"/>
      <point x="864" y="328"/>
      <point x="883" y="344"/>
      <point x="885" y="358" type="qcurve"/>
      <point x="894" y="409" type="line"/>
      <point x="1267" y="409" type="line"/>
      <point x="1256" y="346" type="line" smooth="yes"/>
      <point x="1227" y="180"/>
      <point x="1002" y="0"/>
      <point x="819" y="0" type="qcurve" smooth="yes"/>
    </contour>
    <contour>
      <point x="92" y="630" type="line"/>
      <point x="130" y="860" type="line"/>
      <point x="968" y="860" type="line"/>
      <point x="930" y="630" type="line"/>
    </contour>
  </outline>
</glyph>
<glyph name="currency" format="2">
  <advance width="1624"/>
  <unicode hex="00A4"/>
  <outline>
    <contour>
      <point x="718" y="-20" type="curve" smooth="yes"/>
      <point x="546" y="-20"/>
      <point x="402" y="47"/>
      <point x="307" y="161" type="curve" smooth="yes"/>
      <point x="211" y="275"/>
      <point x="169" y="431"/>
      <point x="198" y="608" type="curve" smooth="yes"/>
      <point x="226" y="785"/>
      <point x="321" y="941"/>
      <point x="454" y="1054" type="curve" smooth="yes"/>
      <point x="587" y="1167"/>
      <point x="753" y="1234"/>
      <point x="926" y="1234" type="curve" smooth="yes"/>
      <point x="1095" y="1234"/>
      <point x="1238" y="1167"/>
      <point x="1334" y="1054" type="curve" smooth="yes"/>
      <point x="1430" y="941"/>
      <point x="1474" y="785"/>
      <point x="1446" y="608" type="curve" smooth="yes"/>
      <point x="1417" y="431"/>
      <point x="1321" y="275"/>
      <point x="1187" y="161" type="curve" smooth="yes"/>
      <point x="1053" y="47"/>
      <point x="887" y="-20"/>
    </contour>
    <contour>
      <point x="754" y="190" type="curve" smooth="yes"/>
      <point x="870" y="190"/>
      <point x="981" y="233"/>
      <point x="1071" y="309" type="curve" smooth="yes"/>
      <point x="1161" y="385"/>
      <point x="1225" y="488"/>
      <point x="1246" y="608" type="curve" smooth="yes"/>
      <point x="1259" y="689"/>
      <point x="1251" y="761"/>
      <point x="1224" y="824" type="curve" smooth="yes"/>
      <point x="1196" y="887"/>
      <point x="1153" y="936"/>
      <point x="1096" y="973" type="curve" smooth="yes"/>
      <point x="1038" y="1009"/>
      <point x="971" y="1027"/>
      <point x="894" y="1026" type="curve"/>
      <point x="814" y="1027"/>
      <point x="739" y="1009"/>
      <point x="669" y="973" type="curve" smooth="yes"/>
      <point x="599" y="936"/>
      <point x="540" y="887"/>
      <point x="493" y="824" type="curve" smooth="yes"/>
      <point x="446" y="761"/>
      <point x="415" y="689"/>
      <point x="402" y="608" type="curve" smooth="yes"/>
      <point x="388" y="529"/>
      <point x="394" y="457"/>
      <point x="421" y="394" type="curve" smooth="yes"/>
      <point x="447" y="331"/>
      <point x="489" y="281"/>
      <point x="547" y="245" type="curve" smooth="yes"/>
      <point x="605" y="208"/>
      <point x="674" y="190"/>
    </contour>
    <contour>
      <point x="1330" y="908" type="line"/>
      <point x="1202" y="1064" type="line"/>
      <point x="1446" y="1272" type="line"/>
      <point x="1576" y="1114" type="line"/>
    </contour>
    <contour>
      <point x="1228" y="-32" type="line"/>
      <point x="1054" y="174" type="line"/>
      <point x="1234" y="328" type="line"/>
      <point x="1410" y="126" type="line"/>
    </contour>
    <contour>
      <point x="204" y="-32" type="line"/>
      <point x="76" y="126" type="line"/>
      <point x="320" y="328" type="line"/>
      <point x="450" y="174" type="line"/>
    </contour>
    <contour>
      <point x="416" y="908" type="line"/>
      <point x="242" y="1114" type="line"/>
      <point x="422" y="1272" type="line"/>
      <point x="600" y="1064" type="line"/>
    </contour>
  </outline>
</glyph>
<glyph name="section" format="2">
  <advance width="1272"/>
  <unicode hex="00A7"/>
  <outline>
    <contour>
      <point x="1176" y="1108" type="curve"/>
      <point x="832" y="1108" type="line"/>
      <point x="836" y="1129"/>
      <point x="828" y="1146"/>
      <point x="809" y="1160" type="curve" smooth="yes"/>
      <point x="790" y="1174"/>
      <point x="761" y="1181"/>
      <point x="722" y="1182" type="curve"/>
      <point x="708" y="1182"/>
      <point x="692" y="1181"/>
      <point x="674" y="1179" type="curve" smooth="yes"/>
      <point x="637" y="1175"/>
      <point x="605" y="1159"/>
      <point x="600" y="1114" type="curve"/>
      <point x="596" y="1095"/>
      <point x="600" y="1078"/>
      <point x="611" y="1063" type="curve" smooth="yes"/>
      <point x="633" y="1034"/>
      <point x="673" y="1014"/>
      <point x="704" y="1006" type="curve"/>
      <point x="966" y="902" type="line" smooth="yes"/>
      <point x="1002" y="887"/>
      <point x="1063" y="858"/>
      <point x="1111" y="805" type="curve" smooth="yes"/>
      <point x="1158" y="752"/>
      <point x="1185" y="672"/>
      <point x="1150" y="556" type="curve"/>
      <point x="1136" y="513"/>
      <point x="1116" y="480"/>
      <point x="1089" y="457" type="curve" smooth="yes"/>
      <point x="1062" y="434"/>
      <point x="1036" y="419"/>
      <point x="1010" y="410" type="curve" smooth="yes"/>
      <point x="984" y="401"/>
      <point x="965" y="395"/>
      <point x="954" y="392" type="curve" smooth="yes"/>
      <point x="946" y="390" type="line"/>
      <point x="1023" y="311"/>
      <point x="1058" y="219"/>
      <point x="1038" y="96" type="curve" smooth="yes"/>
      <point x="1024" y="17"/>
      <point x="992" y="-53"/>
      <point x="943" y="-113" type="curve" smooth="yes"/>
      <point x="843" y="-232"/>
      <point x="687" y="-300"/>
      <point x="500" y="-300" type="curve" smooth="yes"/>
      <point x="402" y="-300"/>
      <point x="319" y="-283"/>
      <point x="251" y="-248" type="curve" smooth="yes"/>
      <point x="115" y="-179"/>
      <point x="50" y="-51"/>
      <point x="78" y="116" type="curve"/>
      <point x="422" y="116" type="line"/>
      <point x="417" y="87"/>
      <point x="427" y="65"/>
      <point x="450" y="49" type="curve" smooth="yes"/>
      <point x="473" y="33"/>
      <point x="511" y="27"/>
      <point x="562" y="32" type="curve"/>
      <point x="587" y="33"/>
      <point x="614" y="39"/>
      <point x="642" y="48" type="curve" smooth="yes"/>
      <point x="669" y="57"/>
      <point x="685" y="73"/>
      <point x="690" y="96" type="curve" smooth="yes"/>
      <point x="693" y="113"/>
      <point x="688" y="129"/>
      <point x="677" y="143" type="curve" smooth="yes"/>
      <point x="653" y="171"/>
      <point x="615" y="192"/>
      <point x="588" y="204" type="curve"/>
      <point x="328" y="306" type="line" smooth="yes"/>
      <point x="288" y="321"/>
      <point x="227" y="350"/>
      <point x="179" y="403" type="curve" smooth="yes"/>
      <point x="131" y="456"/>
      <point x="107" y="537"/>
      <point x="140" y="654" type="curve" smooth="yes"/>
      <point x="153" y="699"/>
      <point x="173" y="732"/>
      <point x="199" y="754" type="curve" smooth="yes"/>
      <point x="224" y="776"/>
      <point x="250" y="791"/>
      <point x="277" y="800" type="curve" smooth="yes"/>
      <point x="304" y="808"/>
      <point x="325" y="814"/>
      <point x="340" y="818" type="curve"/>
      <point x="340" y="818" type="line"/>
      <point x="271" y="897"/>
      <point x="233" y="989"/>
      <point x="254" y="1114" type="curve" smooth="yes"/>
      <point x="266" y="1190"/>
      <point x="296" y="1258"/>
      <point x="345" y="1318" type="curve" smooth="yes"/>
      <point x="441" y="1437"/>
      <point x="596" y="1510"/>
      <point x="776" y="1510" type="curve" smooth="yes"/>
      <point x="868" y="1510"/>
      <point x="946" y="1493"/>
      <point x="1010" y="1458" type="curve" smooth="yes"/>
      <point x="1138" y="1388"/>
      <point x="1200" y="1261"/>
    </contour>
    <contour>
      <point x="826" y="530" type="curve" smooth="yes"/>
      <point x="832" y="539"/>
      <point x="833" y="548"/>
      <point x="830" y="559" type="curve"/>
      <point x="823" y="579"/>
      <point x="797" y="602"/>
      <point x="738" y="622" type="curve"/>
      <point x="536" y="696" type="line" smooth="yes"/>
      <point x="522" y="701"/>
      <point x="510" y="703"/>
      <point x="501" y="703" type="curve" smooth="yes"/>
      <point x="481" y="703"/>
      <point x="469" y="695"/>
      <point x="460" y="680" type="curve"/>
      <point x="452" y="669"/>
      <point x="454" y="654"/>
      <point x="467" y="637" type="curve" smooth="yes"/>
      <point x="480" y="619"/>
      <point x="507" y="603"/>
      <point x="550" y="588" type="curve" smooth="yes"/>
      <point x="760" y="512" type="line" smooth="yes"/>
      <point x="771" y="508"/>
      <point x="781" y="506"/>
      <point x="789" y="506" type="curve" smooth="yes"/>
      <point x="797" y="506"/>
      <point x="804" y="508"/>
      <point x="810" y="512" type="curve" smooth="yes"/>
      <point x="816" y="516"/>
      <point x="821" y="522"/>
    </contour>
  </outline>
</glyph>
<glyph name="copyright" format="2">
  <advance width="1874"/>
  <unicode hex="00A9"/>
  <outline>
    <contour>
      <point x="576" y="744" type="curve" smooth="yes"/>
      <point x="588" y="817"/>
      <point x="617" y="884"/>
      <point x="663" y="944" type="curve" smooth="yes"/>
      <point x="708" y="1003"/>
      <point x="764" y="1051"/>
      <point x="830" y="1087" type="curve" smooth="yes"/>
      <point x="896" y="1122"/>
      <point x="965" y="1140"/>
      <point x="1038" y="1140" type="curve" smooth="yes"/>
      <point x="1103" y="1140"/>
      <point x="1160" y="1126"/>
      <point x="1209" y="1097" type="curve" smooth="yes"/>
      <point x="1308" y="1040"/>
      <point x="1366" y="938"/>
      <point x="1358" y="814" type="curve"/>
      <point x="1116" y="814" type="line"/>
      <point x="1115" y="843"/>
      <point x="1104" y="866"/>
      <point x="1084" y="883" type="curve" smooth="yes"/>
      <point x="1063" y="900"/>
      <point x="1035" y="908"/>
      <point x="1000" y="908" type="curve" smooth="yes"/>
      <point x="969" y="908"/>
      <point x="940" y="901"/>
      <point x="913" y="888" type="curve" smooth="yes"/>
      <point x="886" y="875"/>
      <point x="863" y="856"/>
      <point x="845" y="832" type="curve" smooth="yes"/>
      <point x="826" y="808"/>
      <point x="814" y="779"/>
      <point x="808" y="746" type="curve" smooth="yes"/>
      <point x="803" y="715"/>
      <point x="805" y="688"/>
      <point x="813" y="663" type="curve" smooth="yes"/>
      <point x="829" y="613"/>
      <point x="872" y="582"/>
      <point x="936" y="582" type="curve" smooth="yes"/>
      <point x="971" y="582"/>
      <point x="1004" y="590"/>
      <point x="1033" y="607" type="curve" smooth="yes"/>
      <point x="1062" y="624"/>
      <point x="1081" y="646"/>
      <point x="1092" y="674" type="curve"/>
      <point x="1336" y="674" type="line"/>
      <point x="1319" y="613"/>
      <point x="1289" y="558"/>
      <point x="1246" y="509" type="curve" smooth="yes"/>
      <point x="1159" y="411"/>
      <point x="1035" y="350"/>
      <point x="906" y="350" type="curve" smooth="yes"/>
      <point x="833" y="350"/>
      <point x="770" y="368"/>
      <point x="716" y="403" type="curve" smooth="yes"/>
      <point x="662" y="438"/>
      <point x="622" y="486"/>
      <point x="597" y="546" type="curve" smooth="yes"/>
      <point x="571" y="606"/>
      <point x="564" y="672"/>
    </contour>
    <contour>
      <point x="845" y="-24" type="curve" smooth="yes"/>
      <point x="634" y="-24"/>
      <point x="458" y="61"/>
      <point x="340" y="202" type="curve" smooth="yes"/>
      <point x="222" y="342"/>
      <point x="169" y="532"/>
      <point x="204" y="744" type="curve" smooth="yes"/>
      <point x="240" y="956"/>
      <point x="357" y="1147"/>
      <point x="521" y="1288" type="curve" smooth="yes"/>
      <point x="685" y="1428"/>
      <point x="888" y="1512"/>
      <point x="1099" y="1512" type="curve" smooth="yes"/>
      <point x="1312" y="1512"/>
      <point x="1489" y="1428"/>
      <point x="1606" y="1288" type="curve" smooth="yes"/>
      <point x="1722" y="1147"/>
      <point x="1775" y="956"/>
      <point x="1740" y="744" type="curve" smooth="yes"/>
      <point x="1707" y="532"/>
      <point x="1591" y="342"/>
      <point x="1427" y="202" type="curve" smooth="yes"/>
      <point x="1263" y="61"/>
      <point x="1058" y="-24"/>
    </contour>
    <contour>
      <point x="893" y="268" type="curve" smooth="yes"/>
      <point x="1026" y="268"/>
      <point x="1154" y="320"/>
      <point x="1256" y="408" type="curve" smooth="yes"/>
      <point x="1358" y="495"/>
      <point x="1429" y="612"/>
      <point x="1450" y="744" type="curve" smooth="yes"/>
      <point x="1471" y="876"/>
      <point x="1439" y="995"/>
      <point x="1367" y="1083" type="curve" smooth="yes"/>
      <point x="1294" y="1170"/>
      <point x="1184" y="1222"/>
      <point x="1051" y="1222" type="curve" smooth="yes"/>
      <point x="920" y="1222"/>
      <point x="795" y="1169"/>
      <point x="693" y="1082" type="curve" smooth="yes"/>
      <point x="591" y="994"/>
      <point x="517" y="876"/>
      <point x="496" y="744" type="curve" smooth="yes"/>
      <point x="475" y="613"/>
      <point x="507" y="495"/>
      <point x="580" y="408" type="curve" smooth="yes"/>
      <point x="652" y="320"/>
      <point x="762" y="268"/>
    </contour>
  </outline>
</glyph>
<glyph name="ordfeminine" format="2">
  <advance width="1050"/>
  <unicode hex="00AA"/>
  <outline>
    <contour>
      <point x="900" y="604" type="line"/>
      <point x="864" y="402" type="line"/>
      <point x="130" y="402" type="line"/>
      <point x="166" y="604" type="line"/>
    </contour>
    <contour>
      <point x="423" y="690" type="curve" smooth="yes"/>
      <point x="373" y="690"/>
      <point x="330" y="699"/>
      <point x="294" y="716" type="curve" smooth="yes"/>
      <point x="221" y="750"/>
      <point x="185" y="817"/>
      <point x="201" y="918" type="curve" smooth="yes"/>
      <point x="212" y="983"/>
      <point x="237" y="1031"/>
      <point x="274" y="1064" type="curve" smooth="yes"/>
      <point x="311" y="1097"/>
      <point x="352" y="1119"/>
      <point x="398" y="1131" type="curve" smooth="yes"/>
      <point x="443" y="1142"/>
      <point x="484" y="1147"/>
      <point x="521" y="1152" type="curve" smooth="yes"/>
      <point x="702" y="1176" type="line"/>
      <point x="703" y="1196" type="line" smooth="yes"/>
      <point x="706" y="1243"/>
      <point x="691" y="1263"/>
      <point x="639" y="1264" type="curve"/>
      <point x="571" y="1263"/>
      <point x="534" y="1229"/>
      <point x="519" y="1194" type="curve"/>
      <point x="277" y="1216" type="line"/>
      <point x="306" y="1293"/>
      <point x="356" y="1353"/>
      <point x="425" y="1395" type="curve" smooth="yes"/>
      <point x="494" y="1437"/>
      <point x="576" y="1458"/>
      <point x="671" y="1458" type="curve" smooth="yes"/>
      <point x="727" y="1458"/>
      <point x="780" y="1450"/>
      <point x="830" y="1434" type="curve" smooth="yes"/>
      <point x="879" y="1417"/>
      <point x="918" y="1389"/>
      <point x="945" y="1350" type="curve" smooth="yes"/>
      <point x="972" y="1311"/>
      <point x="979" y="1257"/>
      <point x="967" y="1188" type="curve" smooth="yes"/>
      <point x="908" y="839" type="line"/>
      <point x="898" y="787"/>
      <point x="897" y="745"/>
      <point x="895" y="704" type="curve"/>
      <point x="645" y="704" type="line"/>
      <point x="644" y="729"/>
      <point x="643" y="758"/>
      <point x="647" y="786" type="curve"/>
      <point x="641" y="786" type="line"/>
      <point x="622" y="760"/>
      <point x="595" y="738"/>
      <point x="560" y="719" type="curve" smooth="yes"/>
      <point x="524" y="700"/>
      <point x="478" y="690"/>
    </contour>
    <contour>
      <point x="527" y="874" type="curve"/>
      <point x="554" y="874"/>
      <point x="578" y="878"/>
      <point x="597" y="886" type="curve"/>
      <point x="636" y="901"/>
      <point x="658" y="926"/>
      <point x="661" y="950" type="curve"/>
      <point x="673" y="1013" type="line"/>
      <point x="537" y="990" type="line" smooth="yes"/>
      <point x="524" y="988"/>
      <point x="508" y="982"/>
      <point x="490" y="973" type="curve" smooth="yes"/>
      <point x="471" y="964"/>
      <point x="460" y="946"/>
      <point x="455" y="920" type="curve" smooth="yes"/>
      <point x="452" y="904"/>
      <point x="458" y="892"/>
      <point x="473" y="885" type="curve"/>
      <point x="488" y="877"/>
      <point x="506" y="873"/>
    </contour>
  </outline>
</glyph>
<glyph name="logicalnot" format="2">
  <advance width="1242"/>
  <unicode hex="00AC"/>
  <outline>
    <contour>
      <point x="1102" y="806" type="line"/>
      <point x="1074" y="634" type="line"/>
      <point x="198" y="634" type="line"/>
      <point x="226" y="806" type="line"/>
    </contour>
    <contour>
      <point x="1090" y="728" type="line"/>
      <point x="1032" y="376" type="line"/>
      <point x="824" y="376" type="line"/>
      <point x="882" y="728" type="line"/>
    </contour>
  </outline>
</glyph>
<glyph name="registered" format="2">
  <advance width="1350"/>
  <unicode hex="00AE"/>
  <outline>
    <contour>
      <point x="480" y="666" type="line"/>
      <point x="568" y="1202" type="line"/>
      <point x="824" y="1202" type="line"/>
      <point x="888" y="1203"/>
      <point x="971" y="1158"/>
      <point x="1006" y="1077"/>
      <point x="996" y="1022" type="qcurve" smooth="yes"/>
      <point x="987" y="966"/>
      <point x="924" y="886"/>
      <point x="826" y="846"/>
      <point x="762" y="846" type="qcurve" smooth="yes"/>
      <point x="594" y="846" type="line"/>
      <point x="610" y="956" type="line"/>
      <point x="754" y="956" type="line" smooth="yes"/>
      <point x="789" y="956"/>
      <point x="833" y="990"/>
      <point x="838" y="1022" type="qcurve" smooth="yes"/>
      <point x="843" y="1055"/>
      <point x="811" y="1089"/>
      <point x="776" y="1090" type="qcurve"/>
      <point x="704" y="1090" type="line"/>
      <point x="634" y="666" type="line"/>
    </contour>
    <contour>
      <point x="876" y="910" type="line"/>
      <point x="950" y="666" type="line"/>
      <point x="782" y="666" type="line"/>
      <point x="718" y="910" type="line"/>
    </contour>
    <contour>
      <point x="736" y="346" type="qcurve" smooth="yes"/>
      <point x="616" y="346"/>
      <point x="405" y="437"/>
      <point x="245" y="597"/>
      <point x="154" y="808"/>
      <point x="154" y="928" type="qcurve" smooth="yes"/>
      <point x="154" y="1048"/>
      <point x="245" y="1259"/>
      <point x="405" y="1419"/>
      <point x="616" y="1510"/>
      <point x="736" y="1510" type="qcurve" smooth="yes"/>
      <point x="856" y="1510"/>
      <point x="1067" y="1419"/>
      <point x="1227" y="1259"/>
      <point x="1318" y="1048"/>
      <point x="1318" y="928" type="qcurve" smooth="yes"/>
      <point x="1318" y="808"/>
      <point x="1228" y="597"/>
      <point x="1068" y="437"/>
      <point x="857" y="346"/>
    </contour>
    <contour>
      <point x="736" y="510" type="qcurve" smooth="yes"/>
      <point x="823" y="510"/>
      <point x="975" y="574"/>
      <point x="1090" y="690"/>
      <point x="1154" y="841"/>
      <point x="1154" y="928" type="qcurve"/>
      <point x="1155" y="1044"/>
      <point x="1042" y="1234"/>
      <point x="852" y="1347"/>
      <point x="736" y="1346" type="qcurve"/>
      <point x="649" y="1346"/>
      <point x="498" y="1282"/>
      <point x="382" y="1166"/>
      <point x="318" y="1015"/>
      <point x="318" y="928" type="qcurve" smooth="yes"/>
      <point x="318" y="813"/>
      <point x="430" y="622"/>
      <point x="621" y="510"/>
    </contour>
  </outline>
</glyph>
<glyph name="degree" format="2">
  <advance width="948"/>
  <unicode hex="00B0"/>
  <outline>
    <contour>
      <point x="568" y="754" type="qcurve" smooth="yes"/>
      <point x="465" y="754"/>
      <point x="295" y="854"/>
      <point x="195" y="1023"/>
      <point x="194" y="1126" type="qcurve"/>
      <point x="195" y="1229"/>
      <point x="295" y="1398"/>
      <point x="465" y="1498"/>
      <point x="568" y="1498" type="qcurve" smooth="yes"/>
      <point x="671" y="1498"/>
      <point x="839" y="1398"/>
      <point x="940" y="1229"/>
      <point x="940" y="1126" type="qcurve" smooth="yes"/>
      <point x="940" y="1023"/>
      <point x="839" y="854"/>
      <point x="671" y="754"/>
    </contour>
    <contour>
      <point x="568" y="1000" type="qcurve"/>
      <point x="602" y="1001"/>
      <point x="658" y="1035"/>
      <point x="692" y="1092"/>
      <point x="692" y="1126" type="qcurve" smooth="yes"/>
      <point x="692" y="1161"/>
      <point x="658" y="1217"/>
      <point x="602" y="1251"/>
      <point x="568" y="1250" type="qcurve"/>
      <point x="533" y="1251"/>
      <point x="476" y="1217"/>
      <point x="442" y="1161"/>
      <point x="442" y="1126" type="qcurve" smooth="yes"/>
      <point x="442" y="1092"/>
      <point x="476" y="1035"/>
      <point x="533" y="1001"/>
    </contour>
  </outline>
</glyph>
<glyph name="two.sups" format="2">
  <advance width="870"/>
  <unicode hex="00B2"/>
  <outline>
    <contour>
      <point x="110" y="744" type="line"/>
      <point x="140" y="936" type="line"/>
      <point x="552" y="1208" type="line" smooth="yes"/>
      <point x="589" y="1233"/>
      <point x="652" y="1274"/>
      <point x="696" y="1321"/>
      <point x="702" y="1352" type="qcurve"/>
      <point x="708" y="1396"/>
      <point x="642" y="1440"/>
      <point x="588" y="1440" type="qcurve" smooth="yes"/>
      <point x="536" y="1440"/>
      <point x="453" y="1392"/>
      <point x="442" y="1336" type="qcurve"/>
      <point x="186" y="1336" type="line"/>
      <point x="201" y="1435"/>
      <point x="320" y="1575"/>
      <point x="504" y="1650"/>
      <point x="614" y="1650" type="qcurve"/>
      <point x="793" y="1649"/>
      <point x="960" y="1472"/>
      <point x="942" y="1350" type="qcurve" smooth="yes"/>
      <point x="934" y="1291"/>
      <point x="872" y="1181"/>
      <point x="742" y="1076"/>
      <point x="632" y="1022" type="qcurve" smooth="yes"/>
      <point x="530" y="972" type="line"/>
      <point x="526" y="962" type="line"/>
      <point x="882" y="962" type="line"/>
      <point x="846" y="744" type="line"/>
    </contour>
  </outline>
</glyph>
<glyph name="twosuperior" format="2">
  <advance width="973"/>
  <unicode hex="00B2"/>
  <anchor x="643" y="1714" name="m.uni030F_1"/>
  <outline>
    <contour>
      <point x="164" y="886" type="line"/>
      <point x="197" y="1088" type="line"/>
      <point x="609" y="1332" type="line" smooth="yes"/>
      <point x="636" y="1348"/>
      <point x="658" y="1362"/>
      <point x="675" y="1374" type="curve" smooth="yes"/>
      <point x="709" y="1397"/>
      <point x="727" y="1417"/>
      <point x="731" y="1442" type="curve" smooth="yes"/>
      <point x="736" y="1469"/>
      <point x="728" y="1490"/>
      <point x="708" y="1505" type="curve"/>
      <point x="687" y="1519"/>
      <point x="660" y="1526"/>
      <point x="625" y="1526" type="curve" smooth="yes"/>
      <point x="591" y="1526"/>
      <point x="563" y="1521"/>
      <point x="541" y="1510" type="curve" smooth="yes"/>
      <point x="519" y="1499"/>
      <point x="506" y="1481"/>
      <point x="502" y="1456" type="curve"/>
      <point x="232" y="1456" type="line"/>
      <point x="247" y="1545"/>
      <point x="294" y="1615"/>
      <point x="372" y="1664" type="curve" smooth="yes"/>
      <point x="449" y="1713"/>
      <point x="545" y="1738"/>
      <point x="659" y="1738" type="curve" smooth="yes"/>
      <point x="786" y="1738"/>
      <point x="880" y="1714"/>
      <point x="943" y="1666" type="curve" smooth="yes"/>
      <point x="1005" y="1617"/>
      <point x="1029" y="1553"/>
      <point x="1016" y="1472" type="curve" smooth="yes"/>
      <point x="1008" y="1424"/>
      <point x="992" y="1371"/>
      <point x="940" y="1314" type="curve" smooth="yes"/>
      <point x="887" y="1257"/>
      <point x="790" y="1194"/>
      <point x="618" y="1126" type="curve" smooth="yes"/>
      <point x="596" y="1117" type="line"/>
      <point x="594" y="1108" type="line"/>
      <point x="969" y="1108" type="line"/>
      <point x="933" y="886" type="line"/>
    </contour>
  </outline>
</glyph>
<glyph name="three.sups.ss01" format="2">
  <advance width="1018"/>
  <unicode hex="00B3"/>
  <anchor x="699" y="1728" name="t.uni030F_1"/>
  <outline>
    <contour>
      <point x="565" y="876" type="qcurve" smooth="yes"/>
      <point x="449" y="876"/>
      <point x="268" y="939"/>
      <point x="173" y="1056"/>
      <point x="184" y="1137" type="qcurve"/>
      <point x="475" y="1137" type="line"/>
      <point x="477" y="1125"/>
      <point x="543" y="1107"/>
      <point x="592" y="1107" type="qcurve" smooth="yes"/>
      <point x="642" y="1107"/>
      <point x="702" y="1140"/>
      <point x="709" y="1171" type="qcurve" smooth="yes"/>
      <point x="714" y="1195"/>
      <point x="667" y="1241"/>
      <point x="614" y="1241" type="qcurve" smooth="yes"/>
      <point x="465" y="1241" type="line"/>
      <point x="494" y="1419" type="line"/>
      <point x="703" y="1497" type="line"/>
      <point x="704" y="1504" type="line"/>
      <point x="297" y="1504" type="line"/>
      <point x="335" y="1728" type="line"/>
      <point x="1076" y="1728" type="line"/>
      <point x="1043" y="1529" type="line"/>
      <point x="660" y="1323" type="line"/>
      <point x="640" y="1391" type="line"/>
      <point x="754" y="1412"/>
      <point x="934" y="1355"/>
      <point x="1030" y="1228"/>
      <point x="1017" y="1144" type="qcurve" smooth="yes"/>
      <point x="1003" y="1054"/>
      <point x="873" y="935"/>
      <point x="677" y="876"/>
    </contour>
  </outline>
</glyph>
<glyph name="threesuperior" format="2">
  <advance width="1018"/>
  <unicode hex="00B3"/>
  <anchor x="675" y="1714" name="m.uni030F_1"/>
  <outline>
    <contour>
      <point x="554" y="876" type="curve" smooth="yes"/>
      <point x="477" y="876"/>
      <point x="409" y="889"/>
      <point x="351" y="914" type="curve" smooth="yes"/>
      <point x="235" y="964"/>
      <point x="173" y="1053"/>
      <point x="190" y="1161" type="curve"/>
      <point x="481" y="1161" type="line"/>
      <point x="483" y="1141"/>
      <point x="494" y="1126"/>
      <point x="513" y="1115" type="curve" smooth="yes"/>
      <point x="532" y="1104"/>
      <point x="557" y="1099"/>
      <point x="590" y="1099" type="curve" smooth="yes"/>
      <point x="625" y="1099"/>
      <point x="653" y="1106"/>
      <point x="674" y="1119" type="curve" smooth="yes"/>
      <point x="695" y="1132"/>
      <point x="707" y="1150"/>
      <point x="712" y="1175" type="curve"/>
      <point x="716" y="1200"/>
      <point x="709" y="1220"/>
      <point x="692" y="1235" type="curve"/>
      <point x="674" y="1250"/>
      <point x="646" y="1257"/>
      <point x="608" y="1257" type="curve" smooth="yes"/>
      <point x="474" y="1257" type="line"/>
      <point x="501" y="1419" type="line"/>
      <point x="710" y="1497" type="line"/>
      <point x="711" y="1504" type="line"/>
      <point x="299" y="1504" type="line"/>
      <point x="336" y="1728" type="line"/>
      <point x="1078" y="1728" type="line"/>
      <point x="1045" y="1529" type="line"/>
      <point x="648" y="1347" type="line"/>
      <point x="653" y="1375" type="line"/>
      <point x="728" y="1389"/>
      <point x="794" y="1388"/>
      <point x="853" y="1372" type="curve" smooth="yes"/>
      <point x="970" y="1339"/>
      <point x="1039" y="1257"/>
      <point x="1019" y="1141" type="curve" smooth="yes"/>
      <point x="1010" y="1082"/>
      <point x="982" y="1033"/>
      <point x="936" y="994" type="curve" smooth="yes"/>
      <point x="844" y="915"/>
      <point x="703" y="876"/>
    </contour>
  </outline>
</glyph>
<glyph name="micro" format="2">
  <advance width="1361"/>
  <unicode hex="00B5"/>
  <outline>
    <contour>
      <point x="-59" y="-418" type="line"/>
      <point x="195" y="1118" type="line"/>
      <point x="595" y="1118" type="line"/>
      <point x="488" y="472" type="line" smooth="yes"/>
      <point x="479" y="418"/>
      <point x="507" y="340"/>
      <point x="574" y="298"/>
      <point x="622" y="298" type="qcurve" smooth="yes"/>
      <point x="671" y="298"/>
      <point x="751" y="340"/>
      <point x="805" y="418"/>
      <point x="814" y="472" type="qcurve" smooth="yes"/>
      <point x="921" y="1118" type="line"/>
      <point x="1321" y="1118" type="line"/>
      <point x="1197" y="370" type="line" smooth="yes"/>
      <point x="1192" y="339"/>
      <point x="1219" y="304"/>
      <point x="1250" y="304" type="qcurve" smooth="yes"/>
      <point x="1308" y="304" type="line"/>
      <point x="1258" y="0" type="line"/>
      <point x="1054" y="0" type="line" smooth="yes"/>
      <point x="903" y="0"/>
      <point x="783" y="164"/>
      <point x="808" y="316" type="qcurve" smooth="yes"/>
      <point x="825" y="417" type="line"/>
      <point x="881" y="417" type="line"/>
      <point x="863" y="305"/>
      <point x="799" y="156"/>
      <point x="720" y="69"/>
      <point x="634" y="32"/>
      <point x="594" y="32" type="qcurve" smooth="yes"/>
      <point x="551" y="32"/>
      <point x="474" y="69"/>
      <point x="421" y="156"/>
      <point x="405" y="305"/>
      <point x="423" y="417" type="qcurve"/>
      <point x="479" y="417" type="line"/>
      <point x="341" y="-418" type="line"/>
    </contour>
  </outline>
</glyph>
<glyph name="paragraph" format="2">
  <advance width="1224"/>
  <unicode hex="00B6"/>
  <outline>
    <contour>
      <point x="1197" y="1198" type="line"/>
      <point x="761" y="1198" type="line"/>
      <point x="657" y="552" type="line"/>
      <point x="569" y="552" type="line" smooth="yes"/>
      <point x="458" y="552"/>
      <point x="367" y="572"/>
      <point x="297" y="613" type="curve" smooth="yes"/>
      <point x="156" y="694"/>
      <point x="101" y="842"/>
      <point x="129" y="1022" type="curve"/>
      <point x="145" y="1111"/>
      <point x="179" y="1191"/>
      <point x="230" y="1262" type="curve" smooth="yes"/>
      <point x="332" y="1402"/>
      <point x="500" y="1490"/>
      <point x="723" y="1490" type="curve" smooth="yes"/>
      <point x="1247" y="1490" type="line"/>
    </contour>
    <contour>
      <point x="743" y="0" type="line"/>
      <point x="991" y="1490" type="line"/>
      <point x="1281" y="1490" type="line"/>
      <point x="1035" y="0" type="line"/>
    </contour>
  </outline>
</glyph>
<glyph name="one.sups.ss01" format="2">
  <advance width="643"/>
  <unicode hex="00B9"/>
  <outline>
    <contour>
      <point x="329" y="854" type="line"/>
      <point x="414" y="1366" type="line"/>
      <point x="423" y="1350" type="line"/>
      <point x="391" y="1354"/>
      <point x="326" y="1357"/>
      <point x="263" y="1359"/>
      <point x="213" y="1359" type="qcurve"/>
      <point x="245" y="1554" type="line"/>
      <point x="321" y="1554" type="line" smooth="yes"/>
      <point x="385" y="1554"/>
      <point x="482" y="1618"/>
      <point x="498" y="1694" type="qcurve"/>
      <point x="735" y="1694" type="line"/>
      <point x="596" y="854" type="line"/>
    </contour>
  </outline>
</glyph>
<glyph name="onesuperior" format="2">
  <advance width="710"/>
  <unicode hex="00B9"/>
  <outline>
    <contour>
      <point x="373" y="886" type="line"/>
      <point x="470" y="1471" type="line"/>
      <point x="486" y="1370" type="line"/>
      <point x="440" y="1370"/>
      <point x="343" y="1370"/>
      <point x="246" y="1370" type="curve"/>
      <point x="278" y="1568" type="line"/>
      <point x="462" y="1568"/>
      <point x="585" y="1636"/>
      <point x="648" y="1729" type="curve"/>
      <point x="798" y="1729" type="line"/>
      <point x="658" y="886" type="line"/>
    </contour>
  </outline>
</glyph>
<glyph name="ordmasculine" format="2">
  <advance width="1042"/>
  <unicode hex="00BA"/>
  <outline>
    <contour>
      <point x="543" y="690" type="curve" smooth="yes"/>
      <point x="462" y="690"/>
      <point x="395" y="706"/>
      <point x="343" y="738" type="curve" smooth="yes"/>
      <point x="239" y="801"/>
      <point x="196" y="921"/>
      <point x="221" y="1078" type="curve" smooth="yes"/>
      <point x="235" y="1159"/>
      <point x="262" y="1228"/>
      <point x="302" y="1285" type="curve" smooth="yes"/>
      <point x="382" y="1397"/>
      <point x="508" y="1458"/>
      <point x="663" y="1458" type="curve" smooth="yes"/>
      <point x="748" y="1458"/>
      <point x="817" y="1442"/>
      <point x="870" y="1409" type="curve" smooth="yes"/>
      <point x="975" y="1343"/>
      <point x="1014" y="1221"/>
      <point x="989" y="1068" type="curve" smooth="yes"/>
      <point x="976" y="991"/>
      <point x="950" y="924"/>
      <point x="911" y="867" type="curve" smooth="yes"/>
      <point x="831" y="754"/>
      <point x="704" y="690"/>
    </contour>
    <contour>
      <point x="569" y="894" type="curve" smooth="yes"/>
      <point x="600" y="894"/>
      <point x="627" y="902"/>
      <point x="648" y="919" type="curve"/>
      <point x="690" y="951"/>
      <point x="713" y="1011"/>
      <point x="725" y="1080" type="curve" smooth="yes"/>
      <point x="730" y="1113"/>
      <point x="731" y="1143"/>
      <point x="729" y="1170" type="curve" smooth="yes"/>
      <point x="725" y="1222"/>
      <point x="700" y="1255"/>
      <point x="639" y="1254" type="curve"/>
      <point x="608" y="1255"/>
      <point x="583" y="1247"/>
      <point x="562" y="1231" type="curve"/>
      <point x="521" y="1198"/>
      <point x="497" y="1140"/>
      <point x="485" y="1068" type="curve" smooth="yes"/>
      <point x="480" y="1036"/>
      <point x="479" y="1007"/>
      <point x="482" y="981" type="curve"/>
      <point x="486" y="928"/>
      <point x="512" y="894"/>
    </contour>
    <contour>
      <point x="897" y="604" type="line"/>
      <point x="861" y="402" type="line"/>
      <point x="126" y="402" type="line"/>
      <point x="162" y="604" type="line"/>
    </contour>
  </outline>
</glyph>
<glyph name="questiondown" format="2">
  <advance width="1228"/>
  <unicode hex="00BF"/>
  <outline>
    <contour>
      <point x="843" y="628" type="line"/>
      <point x="838" y="594" type="line" smooth="yes"/>
      <point x="818" y="474"/>
      <point x="757" y="331"/>
      <point x="669" y="245"/>
      <point x="608" y="210" type="qcurve"/>
      <point x="532" y="164"/>
      <point x="425" y="79"/>
      <point x="414" y="18" type="qcurve" smooth="yes"/>
      <point x="408" y="-18"/>
      <point x="434" y="-73"/>
      <point x="488" y="-104"/>
      <point x="524" y="-104" type="qcurve" smooth="yes"/>
      <point x="564" y="-104"/>
      <point x="636" y="-68"/>
      <point x="687" y="-4"/>
      <point x="694" y="38" type="qcurve"/>
      <point x="1066" y="38" type="line"/>
      <point x="1040" y="-122"/>
      <point x="864" y="-322"/>
      <point x="613" y="-416"/>
      <point x="471" y="-416" type="qcurve" smooth="yes"/>
      <point x="316" y="-416"/>
      <point x="85" y="-325"/>
      <point x="-26" y="-142"/>
      <point x="-4" y="-6" type="qcurve"/>
      <point x="19" y="127"/>
      <point x="179" y="296"/>
      <point x="297" y="358" type="qcurve" smooth="yes"/>
      <point x="355" y="389"/>
      <point x="437" y="453"/>
      <point x="487" y="536"/>
      <point x="496" y="594" type="qcurve" smooth="yes"/>
      <point x="501" y="628" type="line"/>
    </contour>
    <contour>
      <point x="754" y="1118" type="qcurve" smooth="yes"/>
      <point x="852" y="1118"/>
      <point x="950" y="1011"/>
      <point x="935" y="919" type="qcurve" smooth="yes"/>
      <point x="919" y="827"/>
      <point x="786" y="720"/>
      <point x="688" y="720" type="qcurve" smooth="yes"/>
      <point x="591" y="720"/>
      <point x="491" y="827"/>
      <point x="507" y="919" type="qcurve" smooth="yes"/>
      <point x="522" y="1011"/>
      <point x="657" y="1118"/>
    </contour>
  </outline>
</glyph>
<glyph name="Thorn" format="2">
  <advance width="1428"/>
  <unicode hex="00DE"/>
  <outline>
    <contour>
      <point x="254" y="1490" type="line"/>
      <point x="658" y="1490" type="line"/>
      <point x="410" y="0" type="line"/>
      <point x="6" y="0" type="line"/>
    </contour>
    <contour>
      <point x="398" y="1240" type="line"/>
      <point x="788" y="1240" type="line" smooth="yes"/>
      <point x="917" y="1240"/>
      <point x="1023" y="1220"/>
      <point x="1106" y="1179" type="curve" smooth="yes"/>
      <point x="1270" y="1098"/>
      <point x="1341" y="951"/>
      <point x="1310" y="766" type="curve" smooth="yes"/>
      <point x="1295" y="673"/>
      <point x="1258" y="591"/>
      <point x="1200" y="520" type="curve" smooth="yes"/>
      <point x="1083" y="378"/>
      <point x="889" y="294"/>
      <point x="632" y="294" type="curve" smooth="yes"/>
      <point x="242" y="294" type="line"/>
      <point x="290" y="590" type="line"/>
      <point x="680" y="590" type="line"/>
      <point x="734" y="591"/>
      <point x="778" y="600"/>
      <point x="812" y="618" type="curve" smooth="yes"/>
      <point x="879" y="653"/>
      <point x="913" y="710"/>
      <point x="922" y="762" type="curve" smooth="yes"/>
      <point x="926" y="789"/>
      <point x="924" y="817"/>
      <point x="915" y="844" type="curve" smooth="yes"/>
      <point x="898" y="899"/>
      <point x="846" y="940"/>
      <point x="738" y="940" type="curve" smooth="yes"/>
      <point x="350" y="940" type="line"/>
    </contour>
  </outline>
</glyph>
<glyph name="germandbls" format="2">
  <advance width="1418"/>
  <unicode hex="00DF"/>
  <outline>
    <contour>
      <point x="3" y="0" type="line"/>
      <point x="184" y="1088" type="line" smooth="yes"/>
      <point x="199" y="1176"/>
      <point x="234" y="1252"/>
      <point x="291" y="1315" type="curve" smooth="yes"/>
      <point x="403" y="1441"/>
      <point x="589" y="1510"/>
      <point x="821" y="1510" type="curve" smooth="yes"/>
      <point x="927" y="1510"/>
      <point x="1023" y="1495"/>
      <point x="1108" y="1465" type="curve" smooth="yes"/>
      <point x="1193" y="1435"/>
      <point x="1259" y="1389"/>
      <point x="1304" y="1328" type="curve" smooth="yes"/>
      <point x="1349" y="1267"/>
      <point x="1364" y="1189"/>
      <point x="1349" y="1094" type="curve" smooth="yes"/>
      <point x="1337" y="1023"/>
      <point x="1309" y="961"/>
      <point x="1266" y="908" type="curve" smooth="yes"/>
      <point x="1222" y="855"/>
      <point x="1166" y="821"/>
      <point x="1099" y="806" type="curve"/>
      <point x="1096" y="788" type="line"/>
      <point x="1193" y="783"/>
      <point x="1264" y="746"/>
      <point x="1307" y="675" type="curve" smooth="yes"/>
      <point x="1350" y="604"/>
      <point x="1362" y="515"/>
      <point x="1345" y="410" type="curve" smooth="yes"/>
      <point x="1330" y="317"/>
      <point x="1295" y="241"/>
      <point x="1242" y="180" type="curve" smooth="yes"/>
      <point x="1134" y="59"/>
      <point x="966" y="0"/>
      <point x="769" y="0" type="curve" smooth="yes"/>
      <point x="549" y="0" type="line"/>
      <point x="601" y="314" type="line"/>
      <point x="735" y="314" type="line" smooth="yes"/>
      <point x="773" y="314"/>
      <point x="807" y="320"/>
      <point x="837" y="332" type="curve" smooth="yes"/>
      <point x="897" y="355"/>
      <point x="937" y="400"/>
      <point x="946" y="460" type="curve" smooth="yes"/>
      <point x="953" y="506"/>
      <point x="941" y="542"/>
      <point x="908" y="568" type="curve" smooth="yes"/>
      <point x="875" y="593"/>
      <point x="826" y="606"/>
      <point x="762" y="606" type="curve" smooth="yes"/>
      <point x="656" y="606" type="line"/>
      <point x="704" y="898" type="line"/>
      <point x="772" y="898" type="line" smooth="yes"/>
      <point x="798" y="898"/>
      <point x="822" y="904"/>
      <point x="843" y="916" type="curve" smooth="yes"/>
      <point x="886" y="940"/>
      <point x="917" y="983"/>
      <point x="925" y="1036" type="curve" smooth="yes"/>
      <point x="932" y="1080"/>
      <point x="924" y="1116"/>
      <point x="899" y="1143" type="curve" smooth="yes"/>
      <point x="874" y="1170"/>
      <point x="834" y="1184"/>
      <point x="781" y="1184" type="curve" smooth="yes"/>
      <point x="725" y="1184"/>
      <point x="679" y="1169"/>
      <point x="642" y="1138" type="curve" smooth="yes"/>
      <point x="605" y="1107"/>
      <point x="582" y="1065"/>
      <point x="573" y="1012" type="curve" smooth="yes"/>
      <point x="405" y="0" type="line"/>
    </contour>
  </outline>
</glyph>
<glyph name="ae" format="2">
  <advance width="1852"/>
  <unicode hex="00E6"/>
  <anchor x="1079" y="1118" name="m.uni030F_1"/>
  <outline>
    <contour>
      <point x="401" y="-18" type="curve" smooth="yes"/>
      <point x="229" y="-18"/>
      <point x="14" y="42"/>
      <point x="14" y="252" type="curve" smooth="yes"/>
      <point x="14" y="609"/>
      <point x="354" y="668"/>
      <point x="627" y="668" type="curve" smooth="yes"/>
      <point x="1443" y="669" type="line"/>
      <point x="1444" y="681"/>
      <point x="1445" y="693"/>
      <point x="1445" y="706" type="curve" smooth="yes"/>
      <point x="1445" y="798"/>
      <point x="1387" y="849"/>
      <point x="1297" y="849" type="curve" smooth="yes"/>
      <point x="1197" y="849"/>
      <point x="1110" y="780"/>
      <point x="1091" y="681" type="curve" smooth="yes"/>
      <point x="1075" y="599"/>
      <point x="1044" y="494"/>
      <point x="1044" y="412" type="curve" smooth="yes"/>
      <point x="1044" y="313"/>
      <point x="1109" y="262"/>
      <point x="1204" y="262" type="curve" smooth="yes"/>
      <point x="1280" y="262"/>
      <point x="1356" y="291"/>
      <point x="1393" y="361" type="curve"/>
      <point x="1751" y="334" type="line"/>
      <point x="1645" y="83"/>
      <point x="1409" y="-20"/>
      <point x="1149" y="-20" type="curve" smooth="yes"/>
      <point x="706" y="-20"/>
      <point x="701" y="216"/>
      <point x="759" y="556" type="curve" smooth="yes"/>
      <point x="820" y="922"/>
      <point x="935" y="1132"/>
      <point x="1332" y="1132" type="curve" smooth="yes"/>
      <point x="1619" y="1132"/>
      <point x="1801" y="976"/>
      <point x="1801" y="682" type="curve" smooth="yes"/>
      <point x="1801" y="606"/>
      <point x="1788" y="530"/>
      <point x="1777" y="455" type="curve"/>
      <point x="658" y="454" type="line" smooth="yes"/>
      <point x="559" y="454"/>
      <point x="400" y="458"/>
      <point x="400" y="314" type="curve" smooth="yes"/>
      <point x="400" y="256"/>
      <point x="451" y="236"/>
      <point x="501" y="236" type="curve" smooth="yes"/>
      <point x="596" y="236"/>
      <point x="690" y="298"/>
      <point x="706" y="396" type="curve" smooth="yes"/>
      <point x="720" y="478"/>
      <point x="767" y="703"/>
      <point x="767" y="773" type="curve" smooth="yes"/>
      <point x="767" y="836"/>
      <point x="705" y="856"/>
      <point x="652" y="856" type="curve" smooth="yes"/>
      <point x="584" y="856"/>
      <point x="511" y="824"/>
      <point x="487" y="756" type="curve"/>
      <point x="131" y="792" type="line"/>
      <point x="212" y="1036"/>
      <point x="474" y="1132"/>
      <point x="711" y="1132" type="curve" smooth="yes"/>
      <point x="899" y="1132"/>
      <point x="1076" y="1064"/>
      <point x="1076" y="846" type="curve" smooth="yes"/>
      <point x="1076" y="819"/>
      <point x="1073" y="793"/>
      <point x="1069" y="766" type="curve" smooth="yes"/>
      <point x="1012" y="421" type="line"/>
      <point x="996" y="396" type="line"/>
      <point x="950" y="102"/>
      <point x="670" y="-18"/>
    </contour>
  </outline>
</glyph>
<glyph name="eth" format="2">
  <advance width="1255"/>
  <unicode hex="00F0"/>
  <outline>
    <contour>
      <point x="1079" y="1394" type="line"/>
      <point x="277" y="1006" type="line"/>
      <point x="305" y="1170" type="line"/>
      <point x="1107" y="1556" type="line"/>
    </contour>
    <contour>
      <point x="523" y="-24" type="curve" smooth="yes"/>
      <point x="412" y="-23"/>
      <point x="319" y="-1"/>
      <point x="242" y="44" type="curve" smooth="yes"/>
      <point x="165" y="88"/>
      <point x="110" y="150"/>
      <point x="77" y="231" type="curve" smooth="yes"/>
      <point x="43" y="311"/>
      <point x="35" y="405"/>
      <point x="53" y="512" type="curve" smooth="yes"/>
      <point x="68" y="606"/>
      <point x="101" y="692"/>
      <point x="151" y="770" type="curve" smooth="yes"/>
      <point x="201" y="847"/>
      <point x="264" y="909"/>
      <point x="341" y="956" type="curve" smooth="yes"/>
      <point x="417" y="1003"/>
      <point x="502" y="1026"/>
      <point x="597" y="1026" type="curve" smooth="yes"/>
      <point x="635" y="1026"/>
      <point x="670" y="1022"/>
      <point x="701" y="1014" type="curve" smooth="yes"/>
      <point x="764" y="998"/>
      <point x="814" y="970"/>
      <point x="849" y="930" type="curve"/>
      <point x="865" y="930" type="line"/>
      <point x="839" y="1005"/>
      <point x="797" y="1072"/>
      <point x="738" y="1131" type="curve" smooth="yes"/>
      <point x="679" y="1190"/>
      <point x="613" y="1239"/>
      <point x="542" y="1280" type="curve" smooth="yes"/>
      <point x="470" y="1321"/>
      <point x="402" y="1351"/>
      <point x="337" y="1370" type="curve"/>
      <point x="369" y="1564" type="line"/>
      <point x="496" y="1547"/>
      <point x="615" y="1513"/>
      <point x="726" y="1461" type="curve" smooth="yes"/>
      <point x="836" y="1408"/>
      <point x="930" y="1340"/>
      <point x="1009" y="1257" type="curve" smooth="yes"/>
      <point x="1088" y="1173"/>
      <point x="1145" y="1075"/>
      <point x="1180" y="963" type="curve" smooth="yes"/>
      <point x="1215" y="851"/>
      <point x="1222" y="727"/>
      <point x="1199" y="590" type="curve" smooth="yes"/>
      <point x="1179" y="469"/>
      <point x="1138" y="362"/>
      <point x="1077" y="270" type="curve" smooth="yes"/>
      <point x="954" y="85"/>
      <point x="763" y="-23"/>
    </contour>
    <contour>
      <point x="583" y="270" type="curve" smooth="yes"/>
      <point x="622" y="270"/>
      <point x="658" y="281"/>
      <point x="691" y="302" type="curve" smooth="yes"/>
      <point x="723" y="323"/>
      <point x="751" y="354"/>
      <point x="774" y="395" type="curve" smooth="yes"/>
      <point x="797" y="436"/>
      <point x="813" y="485"/>
      <point x="823" y="542" type="curve" smooth="yes"/>
      <point x="832" y="596"/>
      <point x="833" y="642"/>
      <point x="824" y="680" type="curve" smooth="yes"/>
      <point x="815" y="718"/>
      <point x="798" y="747"/>
      <point x="773" y="768" type="curve" smooth="yes"/>
      <point x="748" y="788"/>
      <point x="714" y="798"/>
      <point x="671" y="798" type="curve" smooth="yes"/>
      <point x="628" y="798"/>
      <point x="591" y="788"/>
      <point x="559" y="768" type="curve" smooth="yes"/>
      <point x="527" y="747"/>
      <point x="501" y="718"/>
      <point x="480" y="680" type="curve" smooth="yes"/>
      <point x="459" y="642"/>
      <point x="444" y="596"/>
      <point x="435" y="542" type="curve" smooth="yes"/>
      <point x="426" y="485"/>
      <point x="427" y="437"/>
      <point x="436" y="396" type="curve" smooth="yes"/>
      <point x="454" y="314"/>
      <point x="506" y="270"/>
    </contour>
  </outline>
</glyph>
<glyph name="divide" format="2">
  <advance width="1420"/>
  <unicode hex="00F7"/>
  <outline>
    <contour>
      <point x="1280" y="756" type="line"/>
      <point x="1230" y="454" type="line"/>
      <point x="154" y="454" type="line"/>
      <point x="204" y="756" type="line"/>
    </contour>
    <contour>
      <point x="634" y="-24" type="curve"/>
      <point x="571" y="-23"/>
      <point x="522" y="-1"/>
      <point x="485" y="45" type="curve" smooth="yes"/>
      <point x="448" y="90"/>
      <point x="435" y="143"/>
      <point x="446" y="206" type="curve" smooth="yes"/>
      <point x="452" y="240"/>
      <point x="466" y="271"/>
      <point x="487" y="298" type="curve" smooth="yes"/>
      <point x="529" y="353"/>
      <point x="593" y="387"/>
      <point x="660" y="386" type="curve"/>
      <point x="723" y="387"/>
      <point x="772" y="365"/>
      <point x="809" y="321" type="curve" smooth="yes"/>
      <point x="845" y="276"/>
      <point x="857" y="223"/>
      <point x="846" y="160" type="curve" smooth="yes"/>
      <point x="837" y="109"/>
      <point x="813" y="66"/>
      <point x="772" y="31" type="curve" smooth="yes"/>
      <point x="731" y="-5"/>
      <point x="685" y="-23"/>
    </contour>
    <contour>
      <point x="776" y="824" type="curve"/>
      <point x="735" y="824"/>
      <point x="698" y="834"/>
      <point x="667" y="855" type="curve" smooth="yes"/>
      <point x="604" y="896"/>
      <point x="571" y="970"/>
      <point x="584" y="1054" type="curve"/>
      <point x="593" y="1105"/>
      <point x="619" y="1147"/>
      <point x="661" y="1182" type="curve" smooth="yes"/>
      <point x="703" y="1216"/>
      <point x="749" y="1233"/>
      <point x="800" y="1234" type="curve"/>
      <point x="863" y="1233"/>
      <point x="912" y="1211"/>
      <point x="947" y="1167" type="curve" smooth="yes"/>
      <point x="982" y="1123"/>
      <point x="995" y="1069"/>
      <point x="986" y="1006" type="curve" smooth="yes"/>
      <point x="979" y="955"/>
      <point x="956" y="912"/>
      <point x="915" y="877" type="curve" smooth="yes"/>
      <point x="874" y="841"/>
      <point x="827" y="823"/>
    </contour>
  </outline>
</glyph>
<glyph name="thorn" format="2">
  <advance width="1321"/>
  <unicode hex="00FE"/>
  <outline>
    <contour>
      <point x="725" y="-14" type="curve" smooth="yes"/>
      <point x="673" y="-14"/>
      <point x="628" y="-5"/>
      <point x="590" y="12" type="curve" smooth="yes"/>
      <point x="551" y="29"/>
      <point x="520" y="53"/>
      <point x="497" y="83" type="curve" smooth="yes"/>
      <point x="474" y="112"/>
      <point x="457" y="146"/>
      <point x="448" y="184" type="curve"/>
      <point x="442" y="184" type="line"/>
      <point x="342" y="-418" type="line"/>
      <point x="-60" y="-418" type="line"/>
      <point x="256" y="1490" type="line"/>
      <point x="658" y="1490" type="line"/>
      <point x="564" y="922" type="line"/>
      <point x="570" y="922" type="line"/>
      <point x="591" y="960"/>
      <point x="618" y="995"/>
      <point x="651" y="1027" type="curve" smooth="yes"/>
      <point x="684" y="1059"/>
      <point x="724" y="1085"/>
      <point x="769" y="1104" type="curve" smooth="yes"/>
      <point x="814" y="1123"/>
      <point x="864" y="1132"/>
      <point x="919" y="1132" type="curve" smooth="yes"/>
      <point x="993" y="1132"/>
      <point x="1060" y="1112"/>
      <point x="1120" y="1073" type="curve" smooth="yes"/>
      <point x="1180" y="1034"/>
      <point x="1224" y="972"/>
      <point x="1252" y="888" type="curve" smooth="yes"/>
      <point x="1280" y="803"/>
      <point x="1283" y="693"/>
      <point x="1260" y="558" type="curve" smooth="yes"/>
      <point x="1239" y="429"/>
      <point x="1201" y="323"/>
      <point x="1147" y="238" type="curve" smooth="yes"/>
      <point x="1092" y="153"/>
      <point x="1028" y="90"/>
      <point x="955" y="49" type="curve" smooth="yes"/>
      <point x="882" y="7"/>
      <point x="805" y="-14"/>
    </contour>
    <contour>
      <point x="628" y="294" type="curve" smooth="yes"/>
      <point x="665" y="294"/>
      <point x="699" y="305"/>
      <point x="728" y="326" type="curve" smooth="yes"/>
      <point x="757" y="347"/>
      <point x="782" y="377"/>
      <point x="803" y="417" type="curve" smooth="yes"/>
      <point x="823" y="456"/>
      <point x="837" y="503"/>
      <point x="846" y="558" type="curve" smooth="yes"/>
      <point x="855" y="613"/>
      <point x="856" y="661"/>
      <point x="849" y="701" type="curve" smooth="yes"/>
      <point x="834" y="780"/>
      <point x="791" y="824"/>
      <point x="716" y="824" type="curve" smooth="yes"/>
      <point x="679" y="824"/>
      <point x="646" y="813"/>
      <point x="616" y="792" type="curve" smooth="yes"/>
      <point x="555" y="749"/>
      <point x="513" y="669"/>
      <point x="494" y="558" type="curve" smooth="yes"/>
      <point x="485" y="504"/>
      <point x="485" y="457"/>
      <point x="493" y="418" type="curve" smooth="yes"/>
      <point x="508" y="339"/>
      <point x="555" y="294"/>
    </contour>
  </outline>
</glyph>
<glyph name="dotlessi" format="2">
  <advance width="607"/>
  <unicode hex="0131"/>
  <outline>
    <contour>
      <point x="10" y="0" type="line"/>
      <point x="195" y="1118" type="line"/>
      <point x="597" y="1118" type="line"/>
      <point x="412" y="0" type="line"/>
    </contour>
  </outline>
</glyph>
<glyph name="kgreenlandic" format="2">
  <advance width="1308"/>
  <unicode hex="0138"/>
  <outline>
    <contour>
      <point x="597" y="1118" type="line"/>
      <point x="412" y="0" type="line"/>
      <point x="10" y="0" type="line"/>
      <point x="195" y="1118" type="line"/>
    </contour>
    <contour>
      <point x="1409" y="1118" type="line"/>
      <point x="785" y="368" type="line"/>
      <point x="429" y="368" type="line"/>
      <point x="451" y="740" type="line"/>
      <point x="645" y="740" type="line"/>
      <point x="923" y="1118" type="line"/>
    </contour>
    <contour>
      <point x="724" y="0" type="line"/>
      <point x="578" y="424" type="line"/>
      <point x="945" y="588" type="line"/>
      <point x="1206" y="0" type="line"/>
    </contour>
  </outline>
</glyph>
<glyph name="Eng" format="2">
  <advance width="1576"/>
  <unicode hex="014A"/>
  <anchor x="726" y="0" name="m.uni0326"/>
  <anchor x="973" y="1490" name="m.uni030F_1"/>
  <outline>
    <contour>
      <point x="696" y="-417" type="curve"/>
      <point x="745" y="-120" type="line"/>
      <point x="784" y="-125"/>
      <point x="820" y="-129"/>
      <point x="859" y="-129" type="curve" smooth="yes"/>
      <point x="898" y="-129"/>
      <point x="926" y="-123"/>
      <point x="943" y="-112" type="curve"/>
      <point x="960" y="-100"/>
      <point x="970" y="-79"/>
      <point x="975" y="-49" type="curve" smooth="yes"/>
      <point x="1004" y="128" type="line"/>
      <point x="1408" y="128" type="line"/>
      <point x="1375" y="-73" type="line" smooth="yes"/>
      <point x="1334" y="-318"/>
      <point x="1171" y="-441"/>
      <point x="890" y="-441" type="curve" smooth="yes"/>
      <point x="817" y="-441"/>
      <point x="752" y="-433"/>
    </contour>
    <contour>
      <point x="3" y="0" type="line"/>
      <point x="250" y="1490" type="line"/>
      <point x="690" y="1490" type="line"/>
      <point x="948" y="905" type="line" smooth="yes"/>
      <point x="971" y="854"/>
      <point x="991" y="804"/>
      <point x="1009" y="753" type="curve" smooth="yes"/>
      <point x="1045" y="652"/>
      <point x="1075" y="535"/>
      <point x="1100" y="372" type="curve"/>
      <point x="1065" y="372" type="line"/>
      <point x="1070" y="426"/>
      <point x="1076" y="489"/>
      <point x="1083" y="560" type="curve" smooth="yes"/>
      <point x="1090" y="631"/>
      <point x="1097" y="701"/>
      <point x="1105" y="770" type="curve" smooth="yes"/>
      <point x="1112" y="839"/>
      <point x="1120" y="897"/>
      <point x="1127" y="944" type="curve" smooth="yes"/>
      <point x="1218" y="1490" type="line"/>
      <point x="1634" y="1490" type="line"/>
      <point x="1387" y="0" type="line"/>
      <point x="947" y="0" type="line"/>
      <point x="706" y="544" type="line" smooth="yes"/>
      <point x="679" y="606"/>
      <point x="656" y="664"/>
      <point x="637" y="718" type="curve" smooth="yes"/>
      <point x="599" y="825"/>
      <point x="567" y="939"/>
      <point x="526" y="1096" type="curve"/>
      <point x="568" y="1096" type="line"/>
      <point x="562" y="1026"/>
      <point x="556" y="956"/>
      <point x="549" y="887" type="curve" smooth="yes"/>
      <point x="536" y="748"/>
      <point x="522" y="625"/>
      <point x="509" y="544" type="curve" smooth="yes"/>
      <point x="419" y="0" type="line"/>
    </contour>
  </outline>
</glyph>
<glyph name="eng" format="2">
  <advance width="1330"/>
  <unicode hex="014B"/>
  <anchor x="617" y="0" name="m.uni0326"/>
  <anchor x="805" y="1118" name="m.uni030F_1"/>
  <outline>
    <contour>
      <point x="444" y="-417" type="qcurve"/>
      <point x="493" y="-120" type="line"/>
      <point x="522" y="-124"/>
      <point x="578" y="-129"/>
      <point x="607" y="-129" type="qcurve" smooth="yes"/>
      <point x="666" y="-129"/>
      <point x="718" y="-94"/>
      <point x="725" y="-49" type="qcurve" smooth="yes"/>
      <point x="733" y="0" type="line"/>
      <point x="1135" y="0" type="line"/>
      <point x="1123" y="-73" type="line" smooth="yes"/>
      <point x="1092" y="-257"/>
      <point x="849" y="-441"/>
      <point x="638" y="-441" type="qcurve" smooth="yes"/>
      <point x="583" y="-441"/>
      <point x="486" y="-429"/>
    </contour>
    <contour>
      <point x="513" y="615" type="qcurve" smooth="yes"/>
      <point x="411" y="0" type="line"/>
      <point x="9" y="0" type="line"/>
      <point x="195" y="1118" type="line"/>
      <point x="571" y="1118" type="line"/>
      <point x="535" y="832" type="line"/>
      <point x="519" y="845" type="line"/>
      <point x="578" y="972"/>
      <point x="767" y="1132"/>
      <point x="912" y="1132" type="qcurve" smooth="yes"/>
      <point x="1036" y="1132"/>
      <point x="1202" y="1017"/>
      <point x="1272" y="821"/>
      <point x="1251" y="699" type="qcurve"/>
      <point x="1135" y="0" type="line"/>
      <point x="733" y="0" type="line"/>
      <point x="840" y="641" type="line" smooth="yes"/>
      <point x="854" y="724"/>
      <point x="779" y="806"/>
      <point x="711" y="806" type="qcurve" smooth="yes"/>
      <point x="657" y="806"/>
      <point x="574" y="757"/>
      <point x="522" y="671"/>
    </contour>
  </outline>
</glyph>
<glyph name="OE" format="2">
  <advance width="2174"/>
  <unicode hex="0152"/>
  <anchor x="1351" y="0" name="m.uni0326"/>
  <anchor x="1598" y="1490" name="m.uni030F_1"/>
  <anchor x="1326" y="0" name="m.uni0327_3"/>
  <anchor x="1942" y="0" name="m.uni0328_4"/>
  <outline>
    <contour>
      <point x="688" y="0" type="line" smooth="yes"/>
      <point x="495" y="0"/>
      <point x="208" y="160"/>
      <point x="79" y="489"/>
      <point x="120" y="742" type="qcurve" smooth="yes"/>
      <point x="161" y="997"/>
      <point x="401" y="1328"/>
      <point x="742" y="1490"/>
      <point x="934" y="1490" type="qcurve" smooth="yes"/>
      <point x="1302" y="1490" type="line"/>
      <point x="1246" y="1164" type="line"/>
      <point x="880" y="1164" type="line" smooth="yes"/>
      <point x="799" y="1164"/>
      <point x="659" y="1089"/>
      <point x="557" y="905"/>
      <point x="530" y="742" type="qcurve" smooth="yes"/>
      <point x="503" y="578"/>
      <point x="546" y="397"/>
      <point x="662" y="326"/>
      <point x="742" y="326" type="qcurve" smooth="yes"/>
      <point x="1110" y="326" type="line"/>
      <point x="1054" y="0" type="line"/>
    </contour>
    <contour>
      <point x="903" y="0" type="line"/>
      <point x="1150" y="1490" type="line"/>
      <point x="2224" y="1490" type="line"/>
      <point x="2170" y="1164" type="line"/>
      <point x="1500" y="1164" type="line"/>
      <point x="1458" y="912" type="line"/>
      <point x="2072" y="912" type="line"/>
      <point x="2019" y="594" type="line"/>
      <point x="1405" y="594" type="line"/>
      <point x="1361" y="326" type="line"/>
      <point x="2027" y="326" type="line"/>
      <point x="1973" y="0" type="line"/>
    </contour>
  </outline>
</glyph>
<glyph name="tbar" format="2">
  <advance width="821"/>
  <unicode hex="0167"/>
  <anchor x="464" y="0" name="m.uni0326"/>
  <anchor x="613" y="1384" name="m.uni030F_1"/>
  <anchor x="545" y="0" name="m.uni0327_3"/>
  <outline>
    <contour>
      <point x="780" y="703" type="line"/>
      <point x="744" y="483" type="line"/>
      <point x="8" y="483" type="line"/>
      <point x="44" y="703" type="line"/>
    </contour>
    <contour>
      <point x="301" y="1384" type="line"/>
      <point x="703" y="1384" type="line"/>
      <point x="533" y="359" type="line" smooth="yes"/>
      <point x="526" y="312"/>
      <point x="545" y="289"/>
      <point x="598" y="289" type="curve" smooth="yes"/>
      <point x="610" y="289"/>
      <point x="628" y="291"/>
      <point x="651" y="294" type="curve" smooth="yes"/>
      <point x="674" y="297"/>
      <point x="690" y="299"/>
      <point x="698" y="302" type="curve"/>
      <point x="698" y="15" type="line"/>
      <point x="602" y="-10"/>
      <point x="520" y="-17"/>
      <point x="448" y="-17" type="curve" smooth="yes"/>
      <point x="323" y="-17"/>
      <point x="233" y="12"/>
      <point x="179" y="69" type="curve" smooth="yes"/>
      <point x="124" y="126"/>
      <point x="106" y="211"/>
      <point x="125" y="322" type="curve" smooth="yes"/>
    </contour>
    <contour>
      <point x="850" y="1118" type="line"/>
      <point x="802" y="826" type="line"/>
      <point x="66" y="826" type="line"/>
      <point x="114" y="1118" type="line"/>
    </contour>
  </outline>
</glyph>
<glyph name="longs" format="2">
  <advance width="841"/>
  <unicode hex="017F"/>
  <anchor x="745" y="1538" name="m.uni030F_1"/>
  <outline>
    <contour>
      <point x="-29" y="-456" type="qcurve" smooth="yes"/>
      <point x="-62" y="-456"/>
      <point x="-133" y="-454"/>
      <point x="-198" y="-447"/>
      <point x="-225" y="-442" type="qcurve"/>
      <point x="-146" y="-146" type="line"/>
      <point x="-125" y="-150"/>
      <point x="-83" y="-156"/>
      <point x="-63" y="-156" type="qcurve" smooth="yes"/>
      <point x="2" y="-156"/>
      <point x="76" y="-86"/>
      <point x="88" y="-12" type="qcurve" smooth="yes"/>
      <point x="270" y="1090" type="line" smooth="yes"/>
      <point x="295" y="1242"/>
      <point x="436" y="1450"/>
      <point x="660" y="1558"/>
      <point x="809" y="1558" type="qcurve" smooth="yes"/>
      <point x="866" y="1558"/>
      <point x="959" y="1549"/>
      <point x="1008" y="1536" type="qcurve"/>
      <point x="910" y="1248" type="line"/>
      <point x="886" y="1252"/>
      <point x="844" y="1256"/>
      <point x="805" y="1256" type="qcurve" smooth="yes"/>
      <point x="750" y="1256"/>
      <point x="691" y="1204"/>
      <point x="682" y="1150" type="qcurve" smooth="yes"/>
      <point x="495" y="18" type="line" smooth="yes"/>
      <point x="470" y="-135"/>
      <point x="332" y="-346"/>
      <point x="115" y="-456"/>
    </contour>
  </outline>
</glyph>
<glyph name="Bhook" format="2">
  <advance width="1848"/>
  <unicode hex="0181"/>
  <anchor x="1263" y="0" name="m.uni0326"/>
  <anchor x="1522" y="1490" name="m.uni030F_1"/>
  <outline>
    <contour>
      <point x="119" y="1024" type="line"/>
      <point x="130" y="1096" type="line" smooth="yes"/>
      <point x="153" y="1233"/>
      <point x="211" y="1333"/>
      <point x="303" y="1396" type="curve" smooth="yes"/>
      <point x="395" y="1459"/>
      <point x="530" y="1490"/>
      <point x="708" y="1490" type="curve" smooth="yes"/>
      <point x="730" y="1490" type="line"/>
      <point x="676" y="1164" type="line"/>
      <point x="638" y="1164" type="line" smooth="yes"/>
      <point x="543" y="1164"/>
      <point x="490" y="1127"/>
      <point x="477" y="1052" type="curve"/>
      <point x="473" y="1024" type="line"/>
    </contour>
    <contour>
      <point x="483" y="0" type="line"/>
      <point x="730" y="1490" type="line"/>
      <point x="1366" y="1490" type="line" smooth="yes"/>
      <point x="1479" y="1490"/>
      <point x="1573" y="1474"/>
      <point x="1646" y="1441" type="curve" smooth="yes"/>
      <point x="1793" y="1375"/>
      <point x="1857" y="1252"/>
      <point x="1830" y="1092" type="curve" smooth="yes"/>
      <point x="1822" y="1041"/>
      <point x="1802" y="995"/>
      <point x="1769" y="954" type="curve" smooth="yes"/>
      <point x="1704" y="870"/>
      <point x="1602" y="812"/>
      <point x="1485" y="789" type="curve"/>
      <point x="1485" y="776" type="line"/>
      <point x="1548" y="774"/>
      <point x="1604" y="757"/>
      <point x="1652" y="725" type="curve" smooth="yes"/>
      <point x="1700" y="692"/>
      <point x="1735" y="648"/>
      <point x="1758" y="592" type="curve" smooth="yes"/>
      <point x="1781" y="536"/>
      <point x="1786" y="471"/>
      <point x="1773" y="396" type="curve" smooth="yes"/>
      <point x="1760" y="319"/>
      <point x="1729" y="250"/>
      <point x="1679" y="191" type="curve" smooth="yes"/>
      <point x="1578" y="71"/>
      <point x="1412" y="0"/>
      <point x="1196" y="0" type="curve" smooth="yes"/>
    </contour>
    <contour>
      <point x="941" y="322" type="line"/>
      <point x="1120" y="322" type="line" smooth="yes"/>
      <point x="1187" y="322"/>
      <point x="1243" y="338"/>
      <point x="1286" y="369" type="curve" smooth="yes"/>
      <point x="1329" y="400"/>
      <point x="1355" y="444"/>
      <point x="1364" y="500" type="curve" smooth="yes"/>
      <point x="1369" y="531"/>
      <point x="1367" y="556"/>
      <point x="1356" y="577" type="curve" smooth="yes"/>
      <point x="1334" y="617"/>
      <point x="1280" y="638"/>
      <point x="1199" y="638" type="curve" smooth="yes"/>
      <point x="993" y="638" type="line"/>
    </contour>
    <contour>
      <point x="1034" y="888" type="line"/>
      <point x="1190" y="888" type="line" smooth="yes"/>
      <point x="1225" y="888"/>
      <point x="1259" y="895"/>
      <point x="1290" y="908" type="curve" smooth="yes"/>
      <point x="1352" y="935"/>
      <point x="1397" y="987"/>
      <point x="1408" y="1056" type="curve" smooth="yes"/>
      <point x="1415" y="1095"/>
      <point x="1405" y="1125"/>
      <point x="1379" y="1144" type="curve" smooth="yes"/>
      <point x="1352" y="1163"/>
      <point x="1314" y="1172"/>
      <point x="1264" y="1172" type="curve" smooth="yes"/>
      <point x="1081" y="1172" type="line"/>
    </contour>
  </outline>
</glyph>
<glyph name="uni0181" format="2">
  <advance width="1848"/>
  <unicode hex="0181"/>
  <outline>
    <contour>
      <point x="119" y="1024" type="line"/>
      <point x="130" y="1096" type="line"/>
      <point x="165" y="1302"/>
      <point x="441" y="1490"/>
      <point x="708" y="1490" type="qcurve" smooth="yes"/>
      <point x="730" y="1490" type="line"/>
      <point x="676" y="1164" type="line"/>
      <point x="638" y="1164" type="line" smooth="yes"/>
      <point x="567" y="1164"/>
      <point x="487" y="1108"/>
      <point x="477" y="1052" type="qcurve"/>
      <point x="473" y="1024" type="line"/>
    </contour>
    <contour>
      <point x="483" y="0" type="line"/>
      <point x="730" y="1490" type="line"/>
      <point x="1366" y="1490" type="line" smooth="yes"/>
      <point x="1536" y="1490"/>
      <point x="1756" y="1391"/>
      <point x="1850" y="1212"/>
      <point x="1830" y="1092" type="qcurve" smooth="yes"/>
      <point x="1818" y="1016"/>
      <point x="1720" y="891"/>
      <point x="1573" y="806"/>
      <point x="1485" y="789" type="qcurve"/>
      <point x="1485" y="776" type="line"/>
      <point x="1580" y="773"/>
      <point x="1724" y="676"/>
      <point x="1792" y="508"/>
      <point x="1773" y="396" type="qcurve" smooth="yes"/>
      <point x="1754" y="280"/>
      <point x="1603" y="101"/>
      <point x="1358" y="0"/>
      <point x="1196" y="0" type="qcurve" smooth="yes"/>
    </contour>
    <contour>
      <point x="941" y="322" type="line"/>
      <point x="1120" y="322" type="line" smooth="yes"/>
      <point x="1221" y="322"/>
      <point x="1351" y="416"/>
      <point x="1364" y="500" type="qcurve" smooth="yes"/>
      <point x="1372" y="546"/>
      <point x="1339" y="607"/>
      <point x="1260" y="638"/>
      <point x="1199" y="638" type="qcurve" smooth="yes"/>
      <point x="993" y="638" type="line"/>
    </contour>
    <contour>
      <point x="1034" y="888" type="line"/>
      <point x="1190" y="888" type="line" smooth="yes"/>
      <point x="1243" y="888"/>
      <point x="1336" y="928"/>
      <point x="1400" y="1004"/>
      <point x="1408" y="1056" type="qcurve" smooth="yes"/>
      <point x="1418" y="1115"/>
      <point x="1339" y="1172"/>
      <point x="1264" y="1172" type="qcurve" smooth="yes"/>
      <point x="1081" y="1172" type="line"/>
    </contour>
  </outline>
</glyph>
<glyph name="Btopbar" format="2">
  <advance width="1340"/>
  <unicode hex="0182"/>
  <outline>
    <contour>
      <point x="3" y="0" type="line"/>
      <point x="251" y="1490" type="line"/>
      <point x="1299" y="1490" type="line"/>
      <point x="1243" y="1164" type="line"/>
      <point x="601" y="1164" type="line"/>
      <point x="575" y="990" type="line"/>
      <point x="725" y="990" type="line" smooth="yes"/>
      <point x="850" y="990"/>
      <point x="956" y="970"/>
      <point x="1043" y="929" type="curve" smooth="yes"/>
      <point x="1217" y="848"/>
      <point x="1301" y="699"/>
      <point x="1269" y="500" type="curve" smooth="yes"/>
      <point x="1252" y="401"/>
      <point x="1212" y="315"/>
      <point x="1147" y="240" type="curve" smooth="yes"/>
      <point x="1018" y="90"/>
      <point x="811" y="0"/>
      <point x="559" y="0" type="curve" smooth="yes"/>
    </contour>
    <contour>
      <point x="461" y="318" type="line"/>
      <point x="611" y="318" type="line" smooth="yes"/>
      <point x="660" y="318"/>
      <point x="703" y="326"/>
      <point x="739" y="342" type="curve" smooth="yes"/>
      <point x="811" y="374"/>
      <point x="856" y="432"/>
      <point x="867" y="504" type="curve"/>
      <point x="876" y="555"/>
      <point x="865" y="597"/>
      <point x="832" y="631" type="curve" smooth="yes"/>
      <point x="799" y="664"/>
      <point x="746" y="681"/>
      <point x="673" y="680" type="curve"/>
      <point x="521" y="680" type="line"/>
    </contour>
  </outline>
</glyph>
<glyph name="btopbar" format="2">
  <advance width="1321"/>
  <unicode hex="0183"/>
  <anchor x="709" y="0" name="m.uni0326"/>
  <anchor x="1109" y="1346" name="m.uni030F_1"/>
  <outline>
    <contour>
      <point x="408" y="1198" type="line"/>
      <point x="256" y="1490" type="line"/>
      <point x="1148" y="1490" type="line"/>
      <point x="1100" y="1198" type="line"/>
    </contour>
    <contour>
      <point x="746" y="-14" type="curve" smooth="yes"/>
      <point x="690" y="-14"/>
      <point x="642" y="-4"/>
      <point x="602" y="15" type="curve" smooth="yes"/>
      <point x="561" y="34"/>
      <point x="529" y="60"/>
      <point x="505" y="92" type="curve"/>
      <point x="480" y="123"/>
      <point x="463" y="158"/>
      <point x="454" y="196" type="curve"/>
      <point x="440" y="196" type="line"/>
      <point x="407" y="0" type="line"/>
      <point x="9" y="0" type="line"/>
      <point x="256" y="1490" type="line"/>
      <point x="658" y="1490" type="line"/>
      <point x="562" y="922" type="line"/>
      <point x="570" y="922" type="line"/>
      <point x="591" y="963"/>
      <point x="617" y="999"/>
      <point x="648" y="1031" type="curve" smooth="yes"/>
      <point x="679" y="1062"/>
      <point x="715" y="1087"/>
      <point x="757" y="1105" type="curve" smooth="yes"/>
      <point x="798" y="1123"/>
      <point x="845" y="1132"/>
      <point x="898" y="1132" type="curve" smooth="yes"/>
      <point x="965" y="1132"/>
      <point x="1026" y="1117"/>
      <point x="1082" y="1086" type="curve" smooth="yes"/>
      <point x="1194" y="1025"/>
      <point x="1269" y="897"/>
      <point x="1269" y="694" type="curve" smooth="yes"/>
      <point x="1269" y="620"/>
      <point x="1259" y="542"/>
      <point x="1240" y="460" type="curve" smooth="yes"/>
      <point x="1221" y="378"/>
      <point x="1190" y="301"/>
      <point x="1149" y="230" type="curve" smooth="yes"/>
      <point x="1107" y="158"/>
      <point x="1053" y="99"/>
      <point x="987" y="54" type="curve" smooth="yes"/>
      <point x="920" y="9"/>
      <point x="840" y="-14"/>
    </contour>
    <contour>
      <point x="608" y="294" type="curve" smooth="yes"/>
      <point x="655" y="294"/>
      <point x="694" y="307"/>
      <point x="726" y="334" type="curve" smooth="yes"/>
      <point x="757" y="360"/>
      <point x="783" y="393"/>
      <point x="802" y="433" type="curve" smooth="yes"/>
      <point x="821" y="473"/>
      <point x="835" y="514"/>
      <point x="844" y="556" type="curve" smooth="yes"/>
      <point x="853" y="598"/>
      <point x="857" y="635"/>
      <point x="857" y="667" type="curve" smooth="yes"/>
      <point x="857" y="718"/>
      <point x="847" y="757"/>
      <point x="827" y="784" type="curve" smooth="yes"/>
      <point x="807" y="811"/>
      <point x="777" y="824"/>
      <point x="736" y="824" type="curve" smooth="yes"/>
      <point x="653" y="824"/>
      <point x="590" y="774"/>
      <point x="547" y="700" type="curve" smooth="yes"/>
      <point x="526" y="663"/>
      <point x="510" y="623"/>
      <point x="499" y="580" type="curve" smooth="yes"/>
      <point x="488" y="537"/>
      <point x="482" y="496"/>
      <point x="482" y="457" type="curve" smooth="yes"/>
      <point x="482" y="406"/>
      <point x="493" y="366"/>
      <point x="515" y="337" type="curve" smooth="yes"/>
      <point x="536" y="308"/>
      <point x="567" y="294"/>
    </contour>
  </outline>
</glyph>
<glyph name="uni0183" format="2">
  <advance width="1321"/>
  <unicode hex="0183"/>
  <outline>
    <contour>
      <point x="408" y="1198" type="line"/>
      <point x="256" y="1490" type="line"/>
      <point x="1148" y="1490" type="line"/>
      <point x="1100" y="1198" type="line"/>
    </contour>
    <contour>
      <point x="746" y="-14" type="qcurve" smooth="yes"/>
      <point x="662" y="-14"/>
      <point x="541" y="44"/>
      <point x="468" y="139"/>
      <point x="454" y="196" type="qcurve"/>
      <point x="440" y="196" type="line"/>
      <point x="407" y="0" type="line"/>
      <point x="9" y="0" type="line"/>
      <point x="256" y="1490" type="line"/>
      <point x="658" y="1490" type="line"/>
      <point x="562" y="922" type="line"/>
      <point x="570" y="922" type="line"/>
      <point x="601" y="983"/>
      <point x="694" y="1078"/>
      <point x="819" y="1132"/>
      <point x="898" y="1132" type="qcurve" smooth="yes"/>
      <point x="998" y="1132"/>
      <point x="1166" y="1040"/>
      <point x="1269" y="846"/>
      <point x="1269" y="694" type="qcurve" smooth="yes"/>
      <point x="1269" y="583"/>
      <point x="1211" y="337"/>
      <point x="1086" y="122"/>
      <point x="887" y="-14"/>
    </contour>
    <contour>
      <point x="608" y="294" type="qcurve" smooth="yes"/>
      <point x="678" y="294"/>
      <point x="773" y="373"/>
      <point x="831" y="493"/>
      <point x="857" y="619"/>
      <point x="857" y="667" type="qcurve" smooth="yes"/>
      <point x="857" y="743"/>
      <point x="797" y="824"/>
      <point x="736" y="824" type="qcurve" smooth="yes"/>
      <point x="674" y="824"/>
      <point x="579" y="755"/>
      <point x="515" y="644"/>
      <point x="482" y="516"/>
      <point x="482" y="457" type="qcurve" smooth="yes"/>
      <point x="482" y="380"/>
      <point x="547" y="294"/>
    </contour>
  </outline>
</glyph>
<glyph name="Tonesix" format="2">
  <advance width="1702"/>
  <unicode hex="0184"/>
  <outline>
    <contour>
      <point x="866" y="1490" type="line"/>
      <point x="812" y="1164" type="line"/>
      <point x="128" y="1164" type="line"/>
      <point x="184" y="1490" type="line"/>
    </contour>
    <contour>
      <point x="716" y="990" type="line"/>
      <point x="1024" y="990" type="line" smooth="yes"/>
      <point x="1149" y="990"/>
      <point x="1256" y="970"/>
      <point x="1343" y="929" type="curve" smooth="yes"/>
      <point x="1517" y="848"/>
      <point x="1601" y="699"/>
      <point x="1568" y="500" type="curve" smooth="yes"/>
      <point x="1551" y="401"/>
      <point x="1511" y="315"/>
      <point x="1446" y="240" type="curve" smooth="yes"/>
      <point x="1316" y="90"/>
      <point x="1109" y="0"/>
      <point x="858" y="0" type="curve" smooth="yes"/>
      <point x="302" y="0" type="line"/>
      <point x="550" y="1490" type="line"/>
      <point x="954" y="1490" type="line"/>
      <point x="760" y="318" type="line"/>
      <point x="910" y="318" type="line" smooth="yes"/>
      <point x="959" y="318"/>
      <point x="1001" y="326"/>
      <point x="1037" y="342" type="curve" smooth="yes"/>
      <point x="1109" y="374"/>
      <point x="1154" y="432"/>
      <point x="1166" y="504" type="curve" smooth="yes"/>
      <point x="1175" y="555"/>
      <point x="1163" y="597"/>
      <point x="1130" y="631" type="curve" smooth="yes"/>
      <point x="1097" y="664"/>
      <point x="1044" y="681"/>
      <point x="972" y="680" type="curve"/>
      <point x="664" y="680" type="line"/>
    </contour>
  </outline>
</glyph>
<glyph name="tonesix" format="2">
  <advance width="1420"/>
  <unicode hex="0185"/>
  <outline>
    <contour>
      <point x="454" y="1536" type="line"/>
      <point x="510" y="1536" type="line"/>
      <point x="428" y="1048" type="line"/>
      <point x="372" y="1048" type="line"/>
      <point x="186" y="1192" type="line"/>
      <point x="218" y="1384" type="line"/>
    </contour>
    <contour>
      <point x="594" y="1022" type="line"/>
      <point x="766" y="1022" type="line"/>
      <point x="785" y="1055"/>
      <point x="809" y="1079"/>
      <point x="840" y="1095" type="curve" smooth="yes"/>
      <point x="870" y="1110"/>
      <point x="902" y="1120"/>
      <point x="935" y="1125" type="curve" smooth="yes"/>
      <point x="968" y="1130"/>
      <point x="997" y="1132"/>
      <point x="1024" y="1132" type="curve" smooth="yes"/>
      <point x="1097" y="1132"/>
      <point x="1163" y="1112"/>
      <point x="1223" y="1073" type="curve" smooth="yes"/>
      <point x="1283" y="1034"/>
      <point x="1328" y="972"/>
      <point x="1357" y="888" type="curve" smooth="yes"/>
      <point x="1386" y="803"/>
      <point x="1390" y="693"/>
      <point x="1368" y="558" type="curve" smooth="yes"/>
      <point x="1346" y="429"/>
      <point x="1307" y="322"/>
      <point x="1252" y="237" type="curve" smooth="yes"/>
      <point x="1197" y="152"/>
      <point x="1132" y="89"/>
      <point x="1059" y="48" type="curve" smooth="yes"/>
      <point x="985" y="7"/>
      <point x="909" y="-14"/>
      <point x="832" y="-14" type="curve" smooth="yes"/>
      <point x="798" y="-14"/>
      <point x="766" y="-12"/>
      <point x="735" y="-7" type="curve" smooth="yes"/>
      <point x="704" y="-2"/>
      <point x="677" y="8"/>
      <point x="655" y="23" type="curve" smooth="yes"/>
      <point x="633" y="38"/>
      <point x="618" y="60"/>
      <point x="610" y="90" type="curve"/>
      <point x="440" y="90" type="line"/>
    </contour>
    <contour>
      <point x="992" y="558" type="curve" smooth="yes"/>
      <point x="1001" y="617"/>
      <point x="1002" y="666"/>
      <point x="994" y="705" type="curve" smooth="yes"/>
      <point x="978" y="784"/>
      <point x="928" y="824"/>
      <point x="844" y="824" type="curve" smooth="yes"/>
      <point x="795" y="824"/>
      <point x="757" y="811"/>
      <point x="728" y="786" type="curve" smooth="yes"/>
      <point x="699" y="761"/>
      <point x="677" y="728"/>
      <point x="662" y="688" type="curve" smooth="yes"/>
      <point x="647" y="647"/>
      <point x="635" y="604"/>
      <point x="628" y="558" type="curve" smooth="yes"/>
      <point x="620" y="513"/>
      <point x="617" y="471"/>
      <point x="618" y="431" type="curve" smooth="yes"/>
      <point x="621" y="351"/>
      <point x="657" y="294"/>
      <point x="756" y="294" type="curve" smooth="yes"/>
      <point x="799" y="294"/>
      <point x="836" y="304"/>
      <point x="867" y="324" type="curve" smooth="yes"/>
      <point x="898" y="344"/>
      <point x="925" y="374"/>
      <point x="946" y="413" type="curve" smooth="yes"/>
      <point x="967" y="452"/>
      <point x="982" y="500"/>
    </contour>
    <contour>
      <point x="430" y="1490" type="line"/>
      <point x="832" y="1490" type="line"/>
      <point x="744" y="954" type="line"/>
      <point x="524" y="530" type="line"/>
      <point x="620" y="226" type="line"/>
      <point x="582" y="0" type="line"/>
      <point x="184" y="0" type="line"/>
    </contour>
  </outline>
</glyph>
<glyph name="uni0185" format="2">
  <advance width="1420"/>
  <unicode hex="0185"/>
  <outline>
    <contour>
      <point x="454" y="1536" type="line"/>
      <point x="510" y="1536" type="line"/>
      <point x="428" y="1048" type="line"/>
      <point x="372" y="1048" type="line"/>
      <point x="186" y="1192" type="line"/>
      <point x="218" y="1384" type="line"/>
    </contour>
    <contour>
      <point x="594" y="1022" type="line"/>
      <point x="766" y="1022" type="line"/>
      <point x="794" y="1071"/>
      <point x="885" y="1118"/>
      <point x="984" y="1132"/>
      <point x="1024" y="1132" type="qcurve" smooth="yes"/>
      <point x="1133" y="1132"/>
      <point x="1313" y="1014"/>
      <point x="1401" y="761"/>
      <point x="1368" y="558" type="qcurve" smooth="yes"/>
      <point x="1335" y="364"/>
      <point x="1169" y="110"/>
      <point x="948" y="-14"/>
      <point x="832" y="-14" type="qcurve" smooth="yes"/>
      <point x="781" y="-14"/>
      <point x="688" y="0"/>
      <point x="622" y="45"/>
      <point x="610" y="90" type="qcurve"/>
      <point x="440" y="90" type="line"/>
    </contour>
    <contour>
      <point x="992" y="558" type="qcurve" smooth="yes"/>
      <point x="1006" y="646"/>
      <point x="982" y="764"/>
      <point x="907" y="824"/>
      <point x="844" y="824" type="qcurve" smooth="yes"/>
      <point x="771" y="824"/>
      <point x="684" y="748"/>
      <point x="639" y="627"/>
      <point x="628" y="558" type="qcurve"/>
      <point x="616" y="491"/>
      <point x="620" y="371"/>
      <point x="682" y="294"/>
      <point x="756" y="294" type="qcurve" smooth="yes"/>
      <point x="820" y="294"/>
      <point x="914" y="354"/>
      <point x="977" y="471"/>
    </contour>
    <contour>
      <point x="430" y="1490" type="line"/>
      <point x="832" y="1490" type="line"/>
      <point x="744" y="954" type="line"/>
      <point x="524" y="530" type="line"/>
      <point x="620" y="226" type="line"/>
      <point x="582" y="0" type="line"/>
      <point x="184" y="0" type="line"/>
    </contour>
  </outline>
</glyph>
<glyph name="Oopen" format="2">
  <advance width="1532"/>
  <unicode hex="0186"/>
  <anchor x="680" y="0" name="m.uni030F_1"/>
  <anchor x="941" y="1478" name="m.uni0327_3"/>
  <outline>
    <contour>
      <point x="880" y="1510" type="curve" smooth="yes"/>
      <point x="1003" y="1510"/>
      <point x="1112" y="1486"/>
      <point x="1205" y="1439" type="curve" smooth="yes"/>
      <point x="1392" y="1344"/>
      <point x="1503" y="1161"/>
      <point x="1503" y="896" type="curve" smooth="yes"/>
      <point x="1503" y="771"/>
      <point x="1484" y="654"/>
      <point x="1445" y="544" type="curve" smooth="yes"/>
      <point x="1406" y="433"/>
      <point x="1349" y="336"/>
      <point x="1276" y="251" type="curve" smooth="yes"/>
      <point x="1203" y="166"/>
      <point x="1115" y="100"/>
      <point x="1013" y="52" type="curve" smooth="yes"/>
      <point x="910" y="4"/>
      <point x="795" y="-20"/>
      <point x="668" y="-20" type="curve" smooth="yes"/>
      <point x="481" y="-20"/>
      <point x="326" y="30"/>
      <point x="218" y="126" type="curve" smooth="yes"/>
      <point x="110" y="221"/>
      <point x="54" y="363"/>
      <point x="65" y="544" type="curve"/>
      <point x="475" y="544" type="line"/>
      <point x="472" y="480"/>
      <point x="487" y="427"/>
      <point x="520" y="390" type="curve" smooth="yes"/>
      <point x="553" y="353"/>
      <point x="604" y="332"/>
      <point x="673" y="332" type="curve" smooth="yes"/>
      <point x="744" y="332"/>
      <point x="806" y="349"/>
      <point x="859" y="383" type="curve" smooth="yes"/>
      <point x="912" y="417"/>
      <point x="955" y="462"/>
      <point x="990" y="518" type="curve" smooth="yes"/>
      <point x="1024" y="573"/>
      <point x="1050" y="634"/>
      <point x="1067" y="700" type="curve" smooth="yes"/>
      <point x="1084" y="766"/>
      <point x="1092" y="831"/>
      <point x="1092" y="895" type="curve" smooth="yes"/>
      <point x="1092" y="954"/>
      <point x="1083" y="1003"/>
      <point x="1065" y="1042" type="curve" smooth="yes"/>
      <point x="1028" y="1119"/>
      <point x="957" y="1158"/>
      <point x="853" y="1158" type="curve" smooth="yes"/>
      <point x="774" y="1158"/>
      <point x="707" y="1137"/>
      <point x="653" y="1100" type="curve" smooth="yes"/>
      <point x="599" y="1063"/>
      <point x="559" y="1010"/>
      <point x="539" y="946" type="curve"/>
      <point x="129" y="946" type="line"/>
      <point x="160" y="1073"/>
      <point x="241" y="1211"/>
      <point x="368" y="1323" type="curve" smooth="yes"/>
      <point x="495" y="1435"/>
      <point x="667" y="1510"/>
    </contour>
  </outline>
</glyph>
<glyph name="uni0186" format="2">
  <advance width="1575"/>
  <unicode hex="0186"/>
  <outline>
    <contour>
      <point x="903" y="1510" type="qcurve" smooth="yes"/>
      <point x="1088" y="1510"/>
      <point x="1368" y="1368"/>
      <point x="1526" y="1095"/>
      <point x="1526" y="896" type="qcurve" smooth="yes"/>
      <point x="1526" y="709"/>
      <point x="1409" y="378"/>
      <point x="1189" y="124"/>
      <point x="882" y="-20"/>
      <point x="691" y="-20" type="qcurve" smooth="yes"/>
      <point x="551" y="-20"/>
      <point x="322" y="54"/>
      <point x="160" y="197"/>
      <point x="80" y="408"/>
      <point x="88" y="544" type="qcurve"/>
      <point x="498" y="544" type="line"/>
      <point x="496" y="496"/>
      <point x="518" y="418"/>
      <point x="568" y="362"/>
      <point x="644" y="332"/>
      <point x="696" y="332" type="qcurve" smooth="yes"/>
      <point x="803" y="332"/>
      <point x="961" y="434"/>
      <point x="1064" y="601"/>
      <point x="1115" y="799"/>
      <point x="1115" y="895" type="qcurve" smooth="yes"/>
      <point x="1115" y="984"/>
      <point x="1060" y="1100"/>
      <point x="954" y="1158"/>
      <point x="876" y="1158" type="qcurve" smooth="yes"/>
      <point x="817" y="1158"/>
      <point x="716" y="1128"/>
      <point x="635" y="1072"/>
      <point x="577" y="994"/>
      <point x="562" y="946" type="qcurve"/>
      <point x="152" y="946" type="line"/>
      <point x="175" y="1041"/>
      <point x="296" y="1239"/>
      <point x="486" y="1407"/>
      <point x="743" y="1510"/>
    </contour>
  </outline>
</glyph>
<glyph name="Chook" format="2">
  <advance width="1532"/>
  <unicode hex="0187"/>
  <anchor x="944" y="1490" name="m.uni030F_1"/>
  <anchor x="683" y="12" name="m.uni0327_3"/>
  <outline>
    <contour>
      <point x="1131" y="946" type="line"/>
      <point x="1195" y="1332" type="line" smooth="yes"/>
      <point x="1235" y="1577"/>
      <point x="1397" y="1700"/>
      <point x="1678" y="1700" type="curve" smooth="yes"/>
      <point x="1751" y="1700"/>
      <point x="1816" y="1692"/>
      <point x="1872" y="1676" type="curve"/>
      <point x="1827" y="1403" type="line"/>
      <point x="1787" y="1408"/>
      <point x="1752" y="1412"/>
      <point x="1713" y="1412" type="curve" smooth="yes"/>
      <point x="1636" y="1412"/>
      <point x="1602" y="1391"/>
      <point x="1593" y="1332" type="curve" smooth="yes"/>
      <point x="1529" y="946" type="line"/>
    </contour>
    <contour>
      <point x="714" y="-20" type="curve" smooth="yes"/>
      <point x="591" y="-20"/>
      <point x="483" y="4"/>
      <point x="390" y="51" type="curve" smooth="yes"/>
      <point x="202" y="146"/>
      <point x="91" y="330"/>
      <point x="91" y="594" type="curve" smooth="yes"/>
      <point x="91" y="719"/>
      <point x="111" y="836"/>
      <point x="150" y="947" type="curve" smooth="yes"/>
      <point x="189" y="1057"/>
      <point x="245" y="1154"/>
      <point x="318" y="1239" type="curve" smooth="yes"/>
      <point x="391" y="1324"/>
      <point x="479" y="1390"/>
      <point x="582" y="1438" type="curve" smooth="yes"/>
      <point x="685" y="1486"/>
      <point x="799" y="1510"/>
      <point x="926" y="1510" type="curve" smooth="yes"/>
      <point x="1113" y="1510"/>
      <point x="1268" y="1460"/>
      <point x="1376" y="1365" type="curve" smooth="yes"/>
      <point x="1484" y="1269"/>
      <point x="1540" y="1129"/>
      <point x="1529" y="946" type="curve"/>
      <point x="1119" y="946" type="line"/>
      <point x="1122" y="1010"/>
      <point x="1107" y="1063"/>
      <point x="1074" y="1100" type="curve" smooth="yes"/>
      <point x="1041" y="1137"/>
      <point x="990" y="1158"/>
      <point x="921" y="1158" type="curve" smooth="yes"/>
      <point x="850" y="1158"/>
      <point x="788" y="1141"/>
      <point x="735" y="1107" type="curve" smooth="yes"/>
      <point x="682" y="1073"/>
      <point x="639" y="1028"/>
      <point x="605" y="973" type="curve" smooth="yes"/>
      <point x="570" y="917"/>
      <point x="545" y="856"/>
      <point x="528" y="790" type="curve" smooth="yes"/>
      <point x="511" y="724"/>
      <point x="502" y="659"/>
      <point x="502" y="595" type="curve" smooth="yes"/>
      <point x="502" y="536"/>
      <point x="511" y="488"/>
      <point x="530" y="449" type="curve" smooth="yes"/>
      <point x="566" y="371"/>
      <point x="638" y="332"/>
      <point x="741" y="332" type="curve" smooth="yes"/>
      <point x="820" y="332"/>
      <point x="888" y="353"/>
      <point x="942" y="390" type="curve" smooth="yes"/>
      <point x="996" y="427"/>
      <point x="1035" y="480"/>
      <point x="1055" y="544" type="curve"/>
      <point x="1465" y="544" type="line"/>
      <point x="1434" y="417"/>
      <point x="1353" y="279"/>
      <point x="1226" y="167" type="curve" smooth="yes"/>
      <point x="1099" y="55"/>
      <point x="927" y="-20"/>
    </contour>
  </outline>
</glyph>
